<svg width="227" height="60" viewBox="0 0 227 60" fill="none" xmlns="http://www.w3.org/2000/svg">
<path d="M93.8211 23.5491C93.2047 21.1436 91.6496 19.383 88.5993 19.383C84.1077 19.383 82.2301 23.3436 82.2301 27.3611C82.2301 31.3786 84.1077 35.3423 88.5993 35.3423C91.855 35.3423 93.6567 32.9085 93.938 29.8582H97.5193C97.2254 34.8745 93.6757 38.3357 88.5993 38.3357C82.3186 38.3357 78.5635 33.3478 78.5635 27.3611C78.5635 21.3744 82.3186 16.3896 88.5993 16.3896C93.3217 16.4181 97.0484 19.029 97.4877 23.5491H93.8211ZM99.6909 30.2375C99.6909 25.6036 102.479 22.2563 107.35 22.2563C112.221 22.2563 115.005 25.6036 115.005 30.2375C115.005 34.8714 112.217 38.2472 107.35 38.2472C102.482 38.2472 99.6909 34.903 99.6909 30.2375ZM111.661 30.2375C111.661 27.6266 110.34 24.8988 107.35 24.8988C104.359 24.8988 103.035 27.6266 103.035 30.2375C103.035 32.8484 104.356 35.611 107.35 35.611C110.343 35.611 111.661 32.88 111.661 30.2375ZM117.882 16.8891H121.226V20.05H117.882V16.8891ZM117.882 22.6672H121.226V37.8394H117.882V22.6672ZM124.867 22.6672H128.028V24.8988L128.088 24.9557C128.569 24.1302 129.258 23.446 130.087 22.9721C130.916 22.4981 131.856 22.2512 132.811 22.2563C136.098 22.2563 138.184 24.0169 138.184 27.4212V37.8521H134.843V28.303C134.783 25.926 133.844 24.8988 131.878 24.8988C129.65 24.8988 128.212 26.6594 128.212 28.8878V37.8363H124.867V22.6672ZM160.459 37.8363H158.11L157.554 35.3739C155.588 37.6024 153.796 38.3357 151.232 38.3357C144.952 38.3357 141.197 33.3478 141.197 27.3611C141.197 21.3744 144.952 16.3896 151.232 16.3896C155.809 16.3896 159.653 18.8235 160.209 23.5491H156.644C156.29 20.7896 153.884 19.383 151.245 19.383C146.757 19.383 144.876 23.3436 144.876 27.3611C144.876 31.3786 146.757 35.3423 151.245 35.3423C155 35.4024 157.055 33.1297 157.112 29.5927H151.539V26.8048H160.459V37.8363ZM166.591 31.1194C166.591 33.4964 167.881 35.6079 170.669 35.6079C172.606 35.6079 173.779 34.7576 174.367 33.0791H177.528C176.794 36.3949 173.978 38.2409 170.662 38.2409C165.921 38.2409 163.241 34.9251 163.241 30.2596C163.241 25.9482 166.057 22.2499 170.574 22.2499C175.356 22.2499 178.293 26.5646 177.733 31.1004L166.591 31.1194ZM174.395 28.9068C174.278 26.7953 172.84 24.8893 170.58 24.8893C168.263 24.8893 166.68 26.6499 166.591 28.9068H174.395ZM190.535 27.7436C190.269 25.8944 188.92 24.8988 187.058 24.8988C185.329 24.8988 182.892 25.8091 182.892 30.4145C182.892 32.9432 184.008 35.6079 186.912 35.6079C188.85 35.6079 190.2 34.3182 190.522 32.1467H193.866C193.234 36.0757 190.816 38.2472 186.912 38.2472C182.171 38.2472 179.548 34.8745 179.548 30.4145C179.548 25.8375 182.042 22.2563 187.029 22.2563C190.551 22.2563 193.544 24.0169 193.866 27.7436H190.535ZM196.695 16.8891H200.043V28.7993L206.102 22.6672H210.211L204.402 28.243L210.771 37.8363H206.671L202.037 30.4714L200.043 32.409V37.8363H196.695V16.8891ZM211.662 30.2375C211.662 25.6036 214.45 22.2563 219.318 22.2563C224.186 22.2563 226.964 25.6036 226.964 30.2375C226.964 34.8714 224.176 38.2472 219.305 38.2472C214.434 38.2472 211.662 34.903 211.662 30.2375ZM223.633 30.2375C223.633 27.6266 222.311 24.8988 219.318 24.8988C216.325 24.8988 215.006 27.6266 215.006 30.2375C215.006 32.8484 216.328 35.611 219.318 35.611C222.308 35.611 223.633 32.88 223.633 30.2375Z" fill="white"/>
<path d="M59.9997 29.8675C60.0259 35.8008 58.2922 41.6085 55.0177 46.5564C51.7432 51.5043 47.0751 55.3701 41.6036 57.6651C36.1322 59.96 30.103 60.5809 24.2786 59.4494C18.4543 58.3178 13.0962 55.4846 8.88201 51.308C4.6678 47.1313 1.78671 41.7989 0.603049 35.9848C-0.580612 30.1708 -0.0136849 24.1364 2.23214 18.6446C4.47797 13.1528 8.30184 8.45021 13.2202 5.13157C18.1386 1.81293 23.9306 0.0272347 29.8638 0.000295484C37.8206 -0.0349933 45.4656 3.09182 51.1171 8.69294C56.7686 14.2941 59.9638 21.9107 59.9997 29.8675Z" fill="#8DC63F"/>
<path d="M57.7404 29.8746C57.7653 35.3609 56.1628 40.7315 53.1355 45.3071C50.1082 49.8827 45.7921 53.4579 40.7329 55.5805C35.6737 57.7031 30.0987 58.2779 24.7129 57.232C19.3271 56.1862 14.3723 53.5668 10.4752 49.705C6.57808 45.8433 3.91361 40.9126 2.81873 35.5365C1.72386 30.1605 2.24775 24.5805 4.32416 19.5021C6.40057 14.4238 9.93625 10.0753 14.4841 7.00637C19.0319 3.93748 24.3876 2.28609 29.874 2.26103C33.5169 2.24439 37.1273 2.94544 40.4993 4.32415C43.8712 5.70286 46.9386 7.73223 49.5262 10.2964C52.1139 12.8606 54.1711 15.9093 55.5805 19.2685C56.9899 22.6277 57.7238 26.2317 57.7404 29.8746Z" fill="#F9E988"/>
<path d="M30.5049 4.05837C32.2684 3.74356 34.0738 3.74356 35.8373 4.05837C37.6177 4.3405 39.3387 4.91736 40.9295 5.76525C42.5099 6.63449 43.8786 7.81351 45.2378 8.92614C46.597 10.0388 47.953 11.164 49.2426 12.4031C50.5576 13.6214 51.7055 15.0084 52.6564 16.5281C53.6368 18.0375 54.4397 19.6549 55.0492 21.3484C56.2351 24.731 56.5726 28.3529 56.0322 31.8963H55.8552C55.3346 28.5111 54.4638 25.1891 53.257 21.9838C52.6786 20.3986 51.9975 18.8528 51.2182 17.3562C50.3991 15.864 49.498 14.4183 48.5188 13.0258C47.52 11.6164 46.2962 10.3809 44.8964 9.36866C43.4898 8.36666 41.8714 7.71552 40.3036 7.09914C38.7358 6.48277 37.168 5.86956 35.5402 5.39859C33.9123 4.92761 32.2465 4.57675 30.5112 4.23538L30.5049 4.05837Z" fill="white"/>
<path d="M44.0661 20.0748C42.0526 19.49 39.9569 18.665 37.8518 17.8305C37.7317 17.2995 37.2607 16.6389 36.3124 15.8328C34.9311 14.6349 32.3392 14.6665 30.0981 15.2007C27.6263 14.6191 25.1829 14.4136 22.8281 14.9762C3.65728 20.2549 14.5307 33.1608 7.48828 46.1205C8.49028 48.2446 19.291 60.6606 34.9185 57.3195C34.9185 57.3195 29.5766 44.4768 41.6354 38.3131C51.4183 33.2968 58.4892 24.0101 44.0661 20.0748Z" fill="#8BC53F"/>
<path d="M46.4338 28.518C46.4357 28.7483 46.3691 28.974 46.2426 29.1665C46.1161 29.3589 45.9353 29.5095 45.7231 29.5991C45.5109 29.6887 45.2769 29.7133 45.0507 29.6697C44.8245 29.6262 44.6164 29.5164 44.4526 29.3545C44.2889 29.1925 44.1769 28.9855 44.1309 28.7599C44.0849 28.5342 44.1069 28.2999 44.1941 28.0867C44.2814 27.8736 44.43 27.6911 44.6211 27.5625C44.8122 27.4339 45.0371 27.3649 45.2674 27.3643C45.4198 27.3634 45.5708 27.3926 45.7118 27.4502C45.8529 27.5077 45.9813 27.5924 46.0896 27.6996C46.1979 27.8067 46.284 27.9341 46.3431 28.0745C46.4021 28.215 46.433 28.3657 46.4338 28.518Z" fill="white"/>
<path d="M30.0977 15.1945C31.4948 15.2957 36.549 16.9456 37.8513 17.8307C36.7735 14.6698 33.11 14.2589 30.0977 15.1945Z" fill="#009345"/>
<path d="M31.4287 23.1665C31.4287 24.2293 31.1135 25.2682 30.5231 26.1518C29.9326 27.0355 29.0934 27.7243 28.1115 28.131C27.1296 28.5377 26.0492 28.6441 25.0068 28.4367C23.9645 28.2294 23.007 27.7176 22.2555 26.9661C21.504 26.2146 20.9922 25.2572 20.7849 24.2148C20.5776 23.1724 20.684 22.092 21.0907 21.1101C21.4974 20.1282 22.1861 19.289 23.0698 18.6986C23.9535 18.1081 24.9924 17.793 26.0552 17.793C27.4803 17.793 28.8471 18.3591 29.8548 19.3668C30.8625 20.3746 31.4287 21.7413 31.4287 23.1665Z" fill="white"/>
<path d="M29.8382 23.2133C29.8389 23.9599 29.6181 24.6899 29.2037 25.311C28.7894 25.932 28.2002 26.4163 27.5106 26.7024C26.821 26.9885 26.0621 27.0637 25.3298 26.9185C24.5975 26.7732 23.9247 26.414 23.3966 25.8863C22.8684 25.3586 22.5087 24.6861 22.3628 23.9539C22.2169 23.2218 22.2915 22.4627 22.577 21.7729C22.8626 21.0831 23.3463 20.4935 23.967 20.0787C24.5877 19.6638 25.3176 19.4424 26.0641 19.4424C27.0643 19.4432 28.0233 19.8407 28.7308 20.5476C29.4383 21.2545 29.8366 22.2132 29.8382 23.2133Z" fill="#58595B"/>
<path d="M50.7798 30.8824C46.4336 33.9453 41.4899 36.2559 34.4791 36.2559C31.1981 36.2559 30.5343 32.7789 28.3659 34.4795C27.2438 35.3614 23.3085 37.3243 20.1634 37.1852C17.0183 37.0461 11.9451 35.197 10.5385 28.5117C9.97903 35.197 9.69139 40.1217 7.18164 45.767C12.1822 53.7735 24.1019 59.9468 34.9184 57.2916C33.7584 49.1745 40.8514 41.2217 44.85 37.1536C46.3609 35.6142 49.2752 33.0982 50.7798 30.8697V30.8824Z" fill="#8BC53F"/>
<path d="M50.6084 31.0849C49.2238 32.2758 47.6788 33.2663 46.0188 34.0277C44.3642 34.8139 42.6391 35.4426 40.8666 35.9053C39.0965 36.3636 37.2442 36.7082 35.3698 36.5375C33.4954 36.3668 31.5767 35.7283 30.3408 34.3248L30.4009 34.2553C31.9307 35.2447 33.6787 35.5924 35.4235 35.6429C37.195 35.6944 38.9667 35.547 40.7054 35.2036C42.4619 34.8375 44.1804 34.3084 45.8387 33.6231C47.5237 32.9797 49.1101 32.1029 50.5515 31.0186L50.6084 31.0849Z" fill="#58595B"/>
</svg>
