<svg width="287" height="60" viewBox="0 0 287 60" fill="none" xmlns="http://www.w3.org/2000/svg">
<path d="M24.1937 28.7112C25.4841 30.9693 22.5808 31.6145 21.2905 31.7758C19.355 31.9371 18.8711 30.808 19.1937 29.3564C19.355 28.8725 19.6776 28.3886 20.0002 28.0661C20.3227 27.7435 20.9679 27.4209 21.4518 27.4209C21.9357 27.4209 22.5808 27.4209 22.9034 27.7435C23.5486 27.9048 23.8712 28.2274 24.1937 28.7112Z" fill="white"/>
<path d="M31.9354 24.6787C30.4838 35.9691 50.1613 33.5497 49.8388 42.4207C51.7743 39.8401 52.5807 33.0658 46.9355 29.5174C41.7742 26.2916 35.1613 28.0658 31.9354 24.6787Z" fill="white"/>
<path d="M43.3851 20.3226C43.2238 20.1613 43.0625 20.1613 43.0625 20C43.0625 20.1613 43.2238 20.3226 43.3851 20.3226Z" fill="white"/>
<path d="M47.9043 28.5487C47.743 28.2262 47.5817 27.9036 47.2591 27.581C46.6139 26.6133 45.6462 25.9681 44.5172 25.8068C43.872 25.6455 43.0655 25.4842 42.2591 25.4842C41.4526 25.4842 40.8075 25.3229 40.001 25.3229C38.3881 25.1616 36.9365 25.0003 35.3236 24.6778C35.001 24.5165 34.5171 24.5165 34.1945 24.3552C34.0332 24.3552 33.8719 24.1939 33.5494 24.1939C33.3881 24.0326 33.2268 24.0326 32.9042 23.8713C32.0977 23.5487 31.4526 22.9036 30.9687 22.4197C29.8397 21.2906 28.8719 20.0003 27.9042 18.8713C26.9364 17.581 26.13 16.4519 25.0009 15.3229C24.0332 14.1938 22.7428 13.2261 21.4525 12.5809C20.1622 11.9358 18.5493 11.4519 17.0977 11.2906C18.7106 11.1293 20.3235 11.2906 21.7751 11.9358C23.2267 12.5809 24.6783 13.3874 25.8074 14.5164C26.6138 15.1616 27.259 15.968 27.9042 16.7745C32.9042 15.8068 36.7752 16.6132 39.8397 18.3874C40.8075 18.8713 41.7752 19.5164 42.5817 20.3229C42.743 20.4842 42.9042 20.4842 42.9042 20.6455C43.5494 21.2906 44.1946 21.9358 44.6784 22.581C46.9365 24.6778 47.9043 27.0971 47.9043 28.5487Z" fill="white"/>
<path d="M17.5812 12.5791C18.8715 12.7404 20.1619 13.2243 20.9683 14.192C21.7748 15.1598 22.0974 16.4501 22.4199 17.5791C22.5812 18.5469 22.7425 19.5146 23.0651 20.3211C23.2264 20.8049 23.549 21.1275 23.7103 21.4501C23.8716 21.7727 24.1941 22.0953 24.3554 22.4179V22.5792V22.7404C23.8716 23.2243 22.7425 22.7404 22.2587 22.4179C21.4522 22.0953 20.807 21.4501 20.1619 20.805C18.3877 18.8695 17.4199 15.9662 17.4199 13.3856C17.4199 13.2243 17.5812 12.9017 17.5812 12.5791Z" fill="white"/>
<path d="M38.5485 35.1602C35.8066 42.7408 48.226 47.9022 43.5485 55.6441C48.226 53.7086 50.4841 47.7409 48.5486 43.0634C46.9356 38.8698 41.7743 37.2569 38.5485 35.1602Z" fill="white"/>
<path d="M22.2588 44.9997C23.0652 44.5158 23.8717 44.0319 24.6782 43.5481C25.4846 43.2255 26.4524 42.9029 27.4201 42.7416C29.1943 42.419 31.1298 42.2577 32.5814 41.6126C33.3879 41.29 34.033 40.9674 34.6782 40.3222C35.3234 39.8384 35.646 39.1932 35.9685 38.3867C36.2911 37.5803 36.2911 36.7738 36.2911 35.9674C36.2911 34.9996 35.9685 34.1932 35.646 33.3867C36.2911 34.0319 36.775 34.9996 37.0976 35.9674C37.4202 36.9351 37.4202 37.9029 37.2589 38.8706C37.0976 39.8384 36.4524 40.8061 35.8072 41.6126C35.1621 42.2577 34.1943 42.9029 33.2266 43.2255C32.2588 43.5481 31.2911 43.7093 30.3233 43.8706C29.3556 43.8706 28.5491 44.0319 27.5814 44.0319C25.8072 44.0319 24.033 44.3545 22.2588 44.9997Z" fill="white"/>
<path d="M39.6782 58.3872C39.3556 58.5485 39.1943 58.871 38.8717 59.0323C38.5491 59.1936 38.2266 59.3549 37.904 59.5162C37.2588 59.8388 36.4524 60.0001 35.6459 60.0001C33.5491 60.0001 32.0975 58.3872 31.291 56.613C30.6459 55.4839 30.3233 54.1936 29.6781 53.0646C28.7104 51.4516 26.9362 50.1613 25.0007 50.3226C24.1942 50.4839 23.3878 50.8065 23.0652 51.4516C21.9362 53.2258 23.5491 55.8065 25.8071 55.4839C25.9684 55.4839 26.1297 55.4839 26.291 55.3226C26.4523 55.3226 26.6136 55.1613 26.7749 55C27.0975 54.6775 27.2588 54.3549 27.42 54.0323C27.5813 53.7097 27.5813 53.2258 27.5813 52.742C27.42 52.2581 27.2588 51.9355 26.9362 51.7742C27.4201 51.9355 27.7426 52.2581 27.9039 52.742C27.7426 53.5484 27.7426 54.0323 27.7426 54.5162C27.5813 55.0001 27.4201 55.4839 27.0975 55.8065C26.9362 55.9678 26.7749 56.1291 26.4523 56.2904C26.291 56.4517 25.9684 56.613 25.8071 56.613C25.3233 56.7743 24.8394 56.7742 24.3555 56.7742C23.7104 56.613 22.9039 56.4517 22.42 55.9678C21.7749 55.4839 21.291 54.6775 20.6458 54.1936C20.0007 53.3871 19.1942 52.9033 18.2265 52.4194C17.5813 52.0968 16.9361 51.9355 16.291 51.7742C15.9684 51.7742 15.6458 51.6129 15.3232 51.6129C15.1619 51.6129 14.3555 51.4516 14.3555 51.4516C15.4845 50.4839 16.6135 49.6774 17.7426 48.871C19.0329 48.0645 20.3232 47.5807 21.7749 47.0968C23.2265 46.6129 24.6781 46.6129 26.291 46.7742C27.0975 46.9355 27.7426 47.0968 28.5491 47.4194C29.3555 47.7419 30.0007 48.2258 30.6459 48.7097C31.291 49.3549 31.7749 50 32.0975 50.6452C32.4201 51.2904 32.5814 52.0968 32.7427 52.9033C33.2265 55.1613 33.0652 58.7097 35.9685 59.1936C36.1298 59.1936 36.2911 59.1936 36.4524 59.1936H36.9362C37.2588 59.1936 37.5814 59.1936 37.904 59.0323C38.3878 59.0323 39.033 58.7097 39.6782 58.3872Z" fill="white"/>
<path d="M19.8388 24.0324C19.6775 24.5163 19.5162 24.8388 19.3549 25.1614C18.8711 25.8066 18.2259 26.2905 17.5807 26.613C16.9356 26.9356 16.2904 27.0969 15.484 27.0969C15.3227 27.0969 15.1614 27.0969 15.0001 27.0969C14.5162 27.0969 14.1936 27.2582 13.7097 27.5808C13.3872 27.9034 13.0646 28.226 13.0646 28.7098C13.0646 28.8711 12.9033 29.1937 12.9033 29.355C12.9033 30.0002 12.742 30.484 12.742 31.2905C12.5807 32.5808 12.2581 33.7098 11.7743 34.8389C11.1291 36.2905 10.3226 37.5808 10.4839 39.1938C10.6452 40.3228 11.1291 41.1292 11.9355 41.7744C13.2259 43.226 16.2904 43.8712 15.6452 47.2583C15.1614 49.3551 11.7743 51.4519 7.09681 52.2583C7.58069 52.2583 6.45164 50.3228 6.45164 50.1615C5.96777 49.3551 5.32261 48.5486 5.00002 47.7422C4.19357 46.1293 3.87099 44.0325 4.19357 42.2583C4.51615 40.3228 5.96777 38.8712 7.09681 37.2583C8.54843 35.4841 10.0001 33.226 10.3226 30.8066C10.3226 30.3227 10.4839 29.5163 10.6452 28.8711C10.8065 28.0647 10.9678 27.4195 11.2904 26.613C11.4517 26.1292 11.7743 25.8066 12.2581 25.3227C12.4194 25.1614 12.5807 24.8388 12.5807 24.6775C12.5807 24.355 12.5807 24.1937 12.4194 23.8711L4.83873 10.1613L15.8065 23.7098C15.9678 23.8711 16.1291 24.0324 16.2904 24.0324C16.4517 24.1937 16.613 24.1937 16.9356 24.1937C17.0969 24.1937 17.2582 24.1937 17.5807 24.0324C17.742 23.8711 17.9033 23.8711 18.0646 23.7098C18.2259 23.5485 18.2259 23.3872 18.2259 23.0646C18.2259 22.9033 18.2259 22.5808 18.0646 22.4195C17.4194 21.4517 16.613 20.6453 15.8065 19.6775L13.0646 16.2904L7.58068 9.51618L0 0L8.22585 8.87101L14.0323 15.3227L16.9356 18.5485C17.9033 19.6775 18.8711 20.6453 19.8388 21.9356L20.0001 22.0969V22.4195C20.0001 23.0646 20.0001 23.5485 19.8388 24.0324Z" fill="white"/>
<path d="M22.4194 55.8081C21.9355 55.3242 21.4516 54.8403 20.9678 54.3564C21.4516 55.0016 21.7742 55.4855 22.4194 55.8081Z" fill="white"/>
<path fill-rule="evenodd" clip-rule="evenodd" d="M164.517 19.3566C159.194 20.6469 156.775 24.8405 158.226 29.8405C158.871 31.9373 160.807 34.1954 163.71 35.8083C168.71 38.7116 170.323 39.8406 171.13 41.6148C171.775 43.0664 171.936 43.5503 171.613 45.0019C170.807 48.2277 168.549 49.8406 165.323 49.8406C162.097 49.8406 159.839 48.0664 159.194 45.0019C159.033 43.7116 158.71 43.389 158.226 43.389C157.581 43.389 157.42 43.7116 157.42 46.7761V50.1632L159.517 50.8084C162.904 51.9374 167.581 51.7761 170.323 50.4858C175.807 47.9051 177.904 42.9051 175.484 38.2277C174.517 36.4535 172.259 34.518 168.388 32.0986C164.194 29.518 162.42 27.7438 162.097 25.9695C161.613 23.0663 164.194 20.8082 167.742 20.8082C170.484 20.8082 171.613 21.4534 172.581 23.5502C173.226 24.8405 173.549 25.3244 174.355 25.3244C175.162 25.3244 175.323 25.1631 175.001 24.3566C174.839 23.8728 174.678 22.5824 174.678 21.6147C174.678 20.3244 174.517 19.6792 174.033 19.5179C172.904 19.034 165.968 18.8727 164.517 19.3566ZM58.0645 20.4857C58.0645 21.1308 58.387 21.2921 59.0322 21.2921C60.9677 21.2921 61.129 21.776 61.2903 33.5502C61.4516 43.7116 61.6129 44.518 62.4193 46.1309C63.5484 48.2277 65.1613 49.6793 67.5806 50.8084C69.1935 51.6148 70.3226 51.7761 73.7097 51.7761C77.2581 51.7761 78.0646 51.6148 80.0001 50.6471C81.2904 50.0019 82.9033 48.8729 83.5485 48.0664C85.8065 45.3245 86.1291 43.8729 86.2904 32.5825C86.613 21.6147 86.613 21.4534 88.3872 21.4534C88.8711 21.4534 89.0324 21.1308 89.0324 20.6469C89.0324 19.8405 88.7098 19.8405 84.1936 19.8405C79.6775 19.8405 79.3549 19.8405 79.3549 20.6469C79.3549 21.2921 79.6775 21.4534 80.6452 21.6147C82.742 21.776 82.9033 22.5824 82.9033 32.5825C82.9033 42.7438 82.5807 44.6793 80.3226 46.7761C78.3871 48.7116 76.7742 49.3568 74.0323 49.3568C70.1613 49.3568 67.258 47.5826 66.4516 44.3567C66.129 43.2277 65.9677 39.3567 66.129 32.4212L66.2903 22.0986L67.7419 21.6147C68.5484 21.2921 69.1935 20.8082 69.3548 20.4857C69.5161 19.8405 68.871 19.8405 63.8709 19.8405C58.387 19.6792 58.0645 19.6792 58.0645 20.4857ZM95.6453 20.4857C95.6453 21.1308 95.9679 21.2921 96.7743 21.2921C98.8711 21.2921 100 22.0986 100.484 23.8728C100.807 24.8405 100.807 29.518 100.807 36.1309C100.645 48.0664 100.484 48.8729 98.0647 49.3568C97.2582 49.5181 96.9356 49.8406 96.9356 50.3245C96.9356 50.9697 97.2582 51.131 102.581 51.131C107.742 51.131 108.226 51.131 108.226 50.4858C108.226 50.0019 107.742 49.6793 106.452 49.3568C104.839 48.8729 104.678 48.7116 104.194 47.4213C103.549 45.4858 103.549 27.2599 104.032 27.4212C104.194 27.4212 105.807 29.0341 107.581 31.1309C109.355 33.2277 114.032 38.5503 118.226 42.9051C124.678 49.8406 125.807 51.131 126.774 51.131H127.904L128.065 36.9374C128.226 26.776 128.387 22.5824 128.71 22.2599C129.033 21.9373 129.839 21.6147 130.484 21.4534C131.291 21.2921 131.775 20.9695 131.775 20.6469C131.775 20.1631 130.807 20.0018 126.291 20.0018C120.968 19.8405 120.807 19.8405 120.807 20.6469C120.807 21.2921 121.129 21.4534 121.774 21.4534C122.258 21.4534 123.226 21.9373 123.871 22.4211L125 23.3889L125.162 33.0664C125.162 38.5503 125.162 42.7438 125 42.7438C124.839 42.7438 123.549 41.4535 122.258 40.0019C120.968 38.5503 117.258 34.3567 114.032 30.8083C110.807 27.2599 107.258 23.3889 106.129 22.0986L104.194 19.8405H100C95.8066 19.6792 95.6453 19.6792 95.6453 20.4857ZM137.904 20.4857C137.904 21.1308 138.226 21.2921 139.033 21.2921C139.678 21.2921 140.484 21.6147 140.968 21.9373C141.775 22.4211 141.775 23.2276 141.936 34.3567C142.097 48.2277 141.936 49.0342 139.516 49.3568C138.387 49.5181 137.904 49.8406 137.904 50.3245C137.904 50.9697 138.387 51.131 144.033 51.131C149.839 51.131 150.162 51.131 150.162 50.3245C150.162 49.6793 149.839 49.5181 149.194 49.5181C148.71 49.5181 147.904 49.1955 147.42 48.8729C146.613 48.389 146.613 47.5826 146.452 35.647C146.291 23.3889 146.291 22.905 147.097 22.0986C147.581 21.6147 148.387 21.2921 148.871 21.2921C149.678 21.2921 149.839 21.1308 149.839 20.4857C149.839 19.6792 149.517 19.6792 143.71 19.6792C138.226 19.6792 137.904 19.6792 137.904 20.4857ZM180.323 20.4857C180.484 20.9695 180.807 21.2921 181.452 21.2921C181.936 21.2921 182.742 21.776 183.226 22.2599C183.71 22.7437 186.452 29.3567 189.517 37.2599L194.839 51.2923L196.291 51.4536L197.743 51.6148L201.452 41.6148C203.549 36.1309 205.485 31.1309 205.646 30.647C206.13 29.6792 206.13 29.8405 207.42 33.0664C208.065 35.0019 210.001 39.8406 211.614 44.0342L214.517 51.6148H215.807C216.452 51.6148 217.098 51.4535 217.259 51.131C217.42 50.8084 219.194 46.1309 221.452 40.647C223.549 35.1631 225.969 29.0341 226.775 27.0986C228.549 22.5824 228.872 22.0986 230.162 21.6147C230.807 21.4534 231.291 20.9695 231.291 20.6469C231.291 20.1631 230.485 20.0018 226.452 20.0018C221.936 20.0018 221.614 20.0018 221.614 20.8082C221.614 21.4534 221.936 21.6147 222.581 21.6147C224.194 21.6147 224.839 22.0986 224.839 23.0663C224.839 23.8728 217.098 44.6793 216.614 45.1632C216.291 45.4858 209.356 26.1308 209.194 24.1953C208.872 22.4211 209.678 21.6147 211.452 21.6147C212.097 21.6147 212.42 21.4534 212.42 20.8082C212.42 20.0018 212.098 20.0018 206.13 20.0018C200.162 20.0018 199.839 20.0018 199.839 20.8082C199.839 21.2921 200.162 21.6147 200.485 21.6147C201.775 21.6147 203.388 22.905 203.872 24.0341C204.517 25.8083 204.033 27.5825 200.323 37.2599L197.259 45.4858L196.614 43.8729C196.291 43.0664 194.355 37.9051 192.42 32.5825C188.549 22.0986 188.549 21.6147 191.13 21.6147C192.097 21.6147 192.259 21.4534 192.259 20.8082C192.259 20.0018 191.936 20.0018 186.291 20.0018C180.162 19.6792 180.001 19.6792 180.323 20.4857ZM261.936 20.8082C261.936 20.8082 261.936 21.2921 261.936 21.4534C261.936 21.6147 262.42 21.6147 262.42 21.6147C262.743 21.6147 262.904 21.776 263.227 21.776C264.517 22.0986 265.324 22.2599 265.646 23.0663C265.807 23.5502 265.969 25.4857 265.969 35.647C265.969 46.2922 265.969 47.5826 265.646 48.2277C265.324 49.0342 264.678 49.5181 263.065 50.0019C263.065 50.0019 262.42 50.1632 262.259 50.3245C262.098 50.4858 262.098 50.8084 262.098 50.8084C262.098 50.8084 262.098 51.131 262.259 51.2923C262.42 51.4536 262.904 51.4536 262.904 51.4536H266.936H273.711C273.711 51.4536 274.033 51.4536 274.195 51.2923C274.356 51.131 274.356 50.8084 274.356 50.8084C274.356 50.8084 274.356 50.4858 274.195 50.3245C274.033 50.1632 273.388 50.0019 273.388 50.0019C271.937 49.6793 271.13 49.1955 270.807 48.389C270.485 47.7439 270.485 46.2922 270.485 42.9051V38.0664C270.646 38.2277 270.807 38.2277 270.969 38.389C271.775 38.8728 272.743 39.6793 276.291 39.6793C280.646 39.8406 283.227 37.9051 284.84 35.647C286.453 33.3889 286.937 29.8405 285.808 25.9695C284.679 22.2599 281.291 19.8405 276.614 19.6792C274.195 19.5179 270.485 19.6792 268.549 19.8405H268.066C266.291 19.8405 264.033 20.1631 262.904 20.1631C262.582 20.1631 262.582 20.1631 262.42 20.3244C261.936 20.6469 261.936 20.8082 261.936 20.8082ZM279.84 35.647C281.614 34.0341 281.614 31.4535 281.614 29.6792C281.453 27.0986 280.324 22.0986 274.517 22.0986C273.066 22.0986 270.324 22.2599 270.162 24.1953C270.001 24.5179 270.001 26.9373 270.001 30.4857V36.2922L270.646 36.6148C270.969 36.7761 271.453 36.9373 272.098 37.0986C274.517 37.7438 278.066 37.2599 279.84 35.647ZM242.743 20.1631C243.227 20.0018 243.549 19.8405 243.549 19.8405C243.549 19.8405 244.194 19.5179 244.356 19.8405C244.356 20.0018 244.678 20.4857 245.323 22.0986C245.485 22.4211 245.646 22.7437 245.646 23.0663C246.453 25.3244 247.743 28.5502 248.388 30.3244C249.033 32.0986 250.324 35.3244 251.291 37.9051C252.259 40.3245 253.388 43.389 254.033 44.8406C254.517 46.2922 255.324 47.5826 255.485 47.9051C255.646 48.0664 255.646 48.2277 255.807 48.389C256.291 49.0342 256.775 50.0019 257.904 50.1632C257.904 50.1632 258.711 50.3245 258.872 50.4858C259.033 50.6471 259.033 50.8084 259.033 50.8084V51.2923C259.033 51.2923 259.033 51.4536 258.872 51.4536C258.872 51.6148 258.549 51.4536 258.549 51.4536H251.775H246.936C246.936 51.4536 246.775 51.4536 246.614 51.4536C246.452 51.4536 246.453 51.131 246.453 51.131V50.8084C246.453 50.8084 246.452 50.4858 246.614 50.3245C246.775 50.1632 247.582 50.0019 247.582 50.0019C249.033 49.8406 249.678 48.7116 249.84 48.0664V47.9051C250.162 47.26 250.001 46.7761 248.549 43.389C247.582 41.1309 247.259 40.4858 247.098 40.3245C246.936 40.3245 244.356 40.3245 241.614 40.3245H236.291L235.969 41.1309C235.001 43.7116 234.194 46.1309 234.194 46.7761C233.872 48.0664 234.356 49.6793 236.291 50.0019C236.291 50.0019 237.098 50.1632 237.259 50.3245C237.42 50.4858 237.581 50.8084 237.581 50.8084V51.131C237.581 51.131 237.581 51.2923 237.42 51.4536C237.259 51.6148 236.936 51.4536 236.936 51.4536H231.936H227.098C227.098 51.4536 226.936 51.4536 226.775 51.2923C226.614 51.131 226.614 50.9697 226.614 50.9697V50.6471C226.614 50.6471 226.614 50.4858 226.936 50.1632C227.259 49.8406 227.904 49.8406 227.904 49.8406C229.194 49.6793 230.001 48.2277 230.485 47.4213C230.485 47.4213 230.485 47.26 230.646 47.26C230.807 46.9374 231.614 45.1632 232.42 43.2277C233.227 41.2922 234.033 39.0341 234.356 38.389C235.323 35.9696 236.291 33.7115 237.743 30.1631C238.549 28.2276 239.678 25.3244 240.323 23.7115L241.452 20.8082L242.743 20.1631ZM242.42 27.0986C242.743 27.7438 243.065 28.7115 243.227 29.1954C243.388 29.6792 244.033 31.1309 244.517 32.4212C245.001 33.7115 245.646 35.1631 245.969 35.8083C246.291 36.4535 246.453 36.9374 246.453 36.9374C246.453 36.9374 244.517 36.9374 242.098 36.9374C239.356 36.9374 237.743 36.9373 237.743 36.7761C237.743 36.7761 237.904 36.4535 237.904 36.1309C238.065 35.647 239.033 33.0664 240.969 27.5825C241.291 26.776 241.614 25.9696 241.614 25.8083C241.775 25.8083 241.936 25.9696 242.42 27.0986Z" fill="white"/>
</svg>
