<svg width="18" height="14" viewBox="0 0 18 14" fill="none" xmlns="http://www.w3.org/2000/svg">
<path d="M15.2477 1.17252C14.0672 0.617574 12.8184 0.223258 11.5342 0C11.3742 0.29057 11.1873 0.681388 11.0585 0.992305C9.67387 0.783119 8.302 0.783119 6.94286 0.992305C6.81405 0.681459 6.62294 0.29057 6.4615 0C5.17604 0.223361 3.92615 0.618681 2.74513 1.17542C0.395011 4.74372 -0.242091 8.22328 0.0764248 11.6536C1.63518 12.8232 3.14578 13.5337 4.63092 13.9986C5.00001 13.4886 5.32628 12.9487 5.60636 12.3844C5.07313 12.1804 4.55908 11.929 4.07031 11.6333C4.19894 11.5375 4.32453 11.4376 4.44691 11.3339C7.40861 12.7258 10.6267 12.7258 13.5531 11.3339C13.676 11.437 13.8015 11.5368 13.9296 11.6333C13.4401 11.9298 12.925 12.1817 12.3907 12.3859C12.6724 12.9524 12.9981 13.4929 13.3662 14C14.8527 13.5351 16.3647 12.8246 17.9235 11.6536C18.2973 7.67704 17.2851 4.22941 15.2477 1.17252ZM6.00988 9.54403C5.12078 9.54403 4.39164 8.71004 4.39164 7.69449C4.39164 6.67895 5.10524 5.84355 6.00988 5.84355C6.91459 5.84355 7.64366 6.67746 7.62813 7.69449C7.62953 8.71004 6.91459 9.54403 6.00988 9.54403ZM11.99 9.54403C11.1009 9.54403 10.3719 8.71004 10.3719 7.69449C10.3719 6.67895 11.0854 5.84355 11.99 5.84355C12.8947 5.84355 13.6238 6.67746 13.6083 7.69449C13.6083 8.71004 12.8947 9.54403 11.99 9.54403Z" fill="white"/>
</svg>
