<svg width="269" height="50" viewBox="0 0 269 50" fill="none" xmlns="http://www.w3.org/2000/svg">
<path d="M73.4233 36.1139C73.4233 29.0455 73.4233 22.0691 73.4233 15.0898C73.4233 14.7927 73.4798 14.5134 73.5422 13.9014C77.3661 14.0678 81.193 13.937 84.9218 14.4956C88.2466 14.9829 90.1927 17.5529 91.0751 20.6935C92.0904 24.0992 91.8511 27.7561 90.4007 31.0005C89.0963 33.9182 86.9601 35.9178 83.668 36.0842C80.3314 36.2476 76.9709 36.1139 73.4233 36.1139ZM76.2341 25.1443C76.2341 27.6193 76.2608 30.0943 76.2341 32.5723C76.2192 33.5141 76.5312 33.9153 77.5236 33.8796C79.0537 33.8231 80.5898 33.8796 82.1259 33.8528C85.0704 33.7934 87.0759 32.3376 88.0475 29.5417C88.8469 27.2364 89.0041 24.757 88.5021 22.3692C87.6672 18.2096 85.5963 16.519 81.4158 16.4714C80.2779 16.4714 79.134 16.5398 78.0019 16.4506C76.6887 16.3466 76.142 16.7478 76.2192 18.168C76.3173 20.4855 76.2341 22.8179 76.2341 25.1443Z" fill="white"/>
<path d="M145.139 29.3441H147.516C148.732 34.1812 153.887 36.163 158.129 33.5038C159.345 32.7402 159.799 31.6349 159.728 30.2355C159.66 28.8955 159.036 27.918 157.8 27.5169C155.925 26.9078 153.997 26.4561 152.092 25.9421C151.376 25.749 150.657 25.5737 149.941 25.3835C147.647 24.7893 146.025 23.5444 145.781 20.9862C145.538 18.428 146.747 15.8401 148.981 14.7675C152.431 13.1066 155.898 13.2819 159.193 15.2191C161.098 16.3333 161.942 18.2497 161.728 20.3563C159.675 20.8376 159.692 20.7574 158.756 18.8707C158.316 17.9988 157.629 17.2756 156.781 16.7909C154.956 15.8312 152.948 15.8728 151.002 16.47C150.262 16.6957 149.612 17.1505 149.147 17.7688C148.682 18.3871 148.425 19.137 148.414 19.9106C148.414 21.3962 149.183 22.3262 151.064 22.8402C153.304 23.4552 155.592 23.895 157.832 24.5041C161.745 25.5618 163.549 28.6637 162.185 32.2886C161.71 33.522 160.856 34.5728 159.746 35.2895C156.454 37.2148 152.876 37.3693 149.32 36.0055C147.981 35.5184 146.844 34.5988 146.086 33.3923C145.329 32.1858 144.996 30.7613 145.139 29.3441Z" fill="white"/>
<path d="M96.1021 14.2434H107.393C108.483 14.2434 109.573 14.2821 110.661 14.2434C111.618 14.1989 112.096 14.4277 112.108 15.5389C112.108 16.7274 111.514 16.7808 110.622 16.7749C107.205 16.7511 103.789 16.8254 100.375 16.7392C99.0346 16.7066 98.6335 17.1582 98.7375 18.4447C98.8269 19.7307 98.8269 21.0213 98.7375 22.3072C98.6692 23.4482 99.0198 23.873 100.223 23.8463C103.732 23.7691 107.244 23.8196 110.937 23.8196C110.982 24.5951 111.02 25.2903 111.071 26.1965H98.7642C98.7642 28.5735 98.7107 30.7959 98.8296 33.0005C98.8445 33.2976 99.7209 33.7819 100.199 33.7909C103.566 33.8622 106.932 33.8265 110.301 33.8295C112.464 33.8295 112.509 33.8859 112.123 36.2064H96.105L96.1021 14.2434Z" fill="white"/>
<path d="M133.913 36.1179C131.78 36.5309 130.25 36.3467 129.159 34.2371C127.929 31.884 126.257 29.7625 124.771 27.546C124.723 27.4718 124.608 27.445 124.325 27.2786C123.479 28.4998 122.617 29.7298 121.767 30.9748C121.072 31.9939 120.264 32.9655 119.732 34.0678C118.76 36.0822 117.275 36.7418 114.978 36.0912C115.242 35.6782 115.498 35.2414 115.786 34.8314C117.771 31.9939 119.687 29.1059 121.785 26.3576C122.676 25.2018 122.48 24.4619 121.708 23.4042C119.72 20.6915 117.845 17.8927 115.947 15.1235C115.822 14.9171 115.709 14.7038 115.608 14.4847C118.231 13.837 118.784 14.0539 120.091 16.0416C121.524 18.2195 122.988 20.3736 124.587 22.7535C126.153 20.4241 127.582 18.3146 128.993 16.1961C130.479 13.9737 130.479 13.9707 133.402 14.4134C133.105 14.9185 132.838 15.3701 132.547 15.792C130.672 18.5226 128.815 21.2679 126.884 23.9598C126.355 24.6967 126.405 25.2226 126.884 25.9238C128.877 28.7523 130.829 31.6106 132.793 34.463C133.168 34.9859 133.512 35.5118 133.913 36.1179Z" fill="white"/>
<path d="M257.595 29.0736H245.963C245.794 31.819 246.964 33.8899 248.907 34.4812C251.266 35.1943 253.337 34.3921 254.651 32.0627C255.364 30.8029 256.326 31.4684 257.464 31.3615C256.799 33.6166 255.682 35.2656 253.664 36.1748C248.67 38.4121 243.535 35.3161 243.137 29.858C242.962 27.4425 243.167 25.1042 244.608 23.0422C245.43 21.8211 246.607 20.8815 247.98 20.3503C249.353 19.819 250.856 19.7215 252.286 20.071C255.325 20.8138 257.259 23.0421 257.58 26.2837C257.66 27.1127 257.595 27.9565 257.595 29.0736ZM254.921 26.9344C254.778 23.5354 252.913 21.8299 249.897 22.127C249.331 22.1855 248.783 22.3579 248.285 22.634C247.788 22.91 247.352 23.2839 247.003 23.7331C246.654 24.1823 246.399 24.6975 246.255 25.2477C246.11 25.7979 246.079 26.3717 246.162 26.9344H254.921Z" fill="white"/>
<path d="M222.69 31.4707C221.971 34.8816 219.312 36.8634 215.61 36.8456C212.264 36.8307 209.24 34.5399 208.776 31.2003C208.464 29.1641 208.556 27.0863 209.047 25.0856C209.278 24.1934 209.683 23.3555 210.239 22.6201C210.794 21.8847 211.49 21.2661 212.285 20.8C213.08 20.3338 213.96 20.0291 214.873 19.9034C215.786 19.7776 216.715 19.8334 217.607 20.0673C221.766 21.1072 223.032 24.0279 223.091 28.1341C223.091 28.9987 222.592 29.0581 221.933 29.0551C218.961 29.0551 215.99 29.0551 213.019 29.0551H211.432C210.984 31.3013 212.172 33.6723 214.02 34.4033C216.053 35.1936 218.542 34.4478 219.683 32.7037C220.697 31.1587 220.697 31.1587 222.69 31.4707ZM220.251 26.9188C220.325 23.7902 218.566 21.9986 215.649 22.0966C215.052 22.1204 214.466 22.2666 213.929 22.5261C213.391 22.7855 212.912 23.1527 212.522 23.6049C212.132 24.057 211.839 24.5845 211.661 25.1546C211.484 25.7247 211.425 26.3252 211.489 26.9188H220.251Z" fill="white"/>
<path d="M194.056 29.0531C193.895 31.8222 195.087 33.8961 197.027 34.4755C199.639 35.2509 201.582 34.2764 203.136 31.4033H205.513C204.918 33.7178 203.73 35.3668 201.635 36.2344C196.822 38.2192 192.193 35.5926 191.331 30.4376C190.939 28.0607 191.189 25.7966 192.336 23.6752C193.132 22.1731 194.438 21.0035 196.018 20.3758C197.598 19.7481 199.351 19.7033 200.961 20.2494C204.838 21.5181 205.84 24.6616 205.715 28.2092C205.715 28.5063 204.945 28.9907 204.526 28.9996C201.609 29.0709 198.688 29.0382 195.77 29.0412L194.056 29.0531ZM202.996 26.9316C202.996 23.6901 201.127 21.8806 198.183 22.1124C197.602 22.1555 197.035 22.3162 196.518 22.5848C196.001 22.8534 195.543 23.2243 195.174 23.6749C194.804 24.1256 194.53 24.6467 194.368 25.2065C194.206 25.7663 194.16 26.3532 194.231 26.9316H202.996Z" fill="white"/>
<path d="M239.744 36.2184H237.269C237.242 35.6806 237.195 35.1576 237.192 34.6347C237.192 31.8151 237.213 28.9895 237.171 26.1728C237.129 23.4155 236.161 22.1825 234.099 22.1201C231.526 22.0369 229.532 23.5849 229.38 26.0242C229.211 28.7845 229.256 31.5596 229.208 34.3287C229.208 34.9229 229.208 35.4904 229.208 36.1679H226.68V33.1967C226.68 29.5362 226.68 25.8717 226.68 22.2033C226.68 20.07 226.718 20.0403 228.95 20.4206C229.021 20.9138 229.095 21.4338 229.196 22.1231C229.499 21.9786 229.785 21.8012 230.049 21.5942C231.757 19.8828 233.855 19.5916 236.098 19.9927C237.881 20.3136 239.052 21.4546 239.39 23.2016C239.627 24.6132 239.74 26.0429 239.726 27.4742C239.78 30.3503 239.744 33.2086 239.744 36.2184Z" fill="white"/>
<path d="M178.627 25.2102C177.4 25.3469 176.411 25.5371 175.79 23.8673C174.8 21.2081 170.947 20.9733 169.161 23.2998C167.414 25.5757 167.331 30.5584 168.998 32.8937C170.724 35.3093 174.53 34.8488 175.739 31.9429C176.334 30.5019 177.139 30.2256 178.449 30.6208C178.636 32.653 177.394 34.7804 175.436 35.7639C171.687 37.6654 167.473 36.2868 165.878 32.4124C164.345 28.6865 164.636 25.0112 167.251 21.7934C169.033 19.6036 172.132 18.9559 175.008 19.9394C177.317 20.7267 178.473 22.3906 178.627 25.2102Z" fill="white"/>
<path d="M184.313 36.2192H181.864V20.3382H184.063C184.143 21.0216 184.214 21.6425 184.321 22.5844C184.832 22.0436 185.162 21.6633 185.525 21.3187C185.887 20.974 186.22 20.5313 186.651 20.3828C187.482 20.1444 188.328 19.9588 189.182 19.8271C189.316 20.6175 189.447 21.4078 189.586 22.2457C189.072 22.3348 188.793 22.4032 188.508 22.4299C185.861 22.6854 184.428 24.2126 184.348 27.0679C184.274 29.4894 184.321 31.911 184.318 34.3325C184.31 34.9148 184.313 35.4942 184.313 36.2192Z" fill="white"/>
<path d="M263.879 36.2227H261.454V20.3417H263.534C263.617 21.0102 263.697 21.6638 263.813 22.6206C265.245 21.031 266.523 19.5454 268.84 19.789V22.2908C268.543 22.3443 268.276 22.4185 267.994 22.4453C265.474 22.683 263.935 24.2755 263.89 26.801C263.849 29.4186 263.89 32.0392 263.89 34.6568L263.879 36.2227Z" fill="white"/>
<path d="M5.94443 9.2562C6.89223 10.3555 7.72713 11.2558 8.46101 12.2274C8.62145 12.4354 8.58877 12.8781 8.50261 13.1722C7.0913 17.8667 8.57686 20.3031 13.4139 21.1944C13.6011 21.2301 13.7854 21.2895 13.9428 21.3311C14.3291 22.986 13.8893 24.0913 12.2641 24.7687C11.0756 25.2709 9.98522 26.0672 8.6363 26.8486C9.73267 27.4933 10.5349 28.0727 11.4203 28.4679C12.5353 28.961 13.5377 29.6768 14.366 30.5715C15.1942 31.4662 15.8308 32.5207 16.2366 33.6704C17.5498 37.1318 18.7086 40.6527 19.9238 44.1527C20.096 44.8113 20.3837 45.434 20.7736 45.9919C21.0321 45.1481 21.2638 44.2983 21.552 43.4664C22.6662 40.2427 23.7359 37.0041 24.9451 33.816C25.3752 32.5983 26.0522 31.4826 26.9336 30.5388C27.8151 29.595 28.882 28.8434 30.0674 28.3312C30.8697 27.9806 31.6006 27.4636 32.6583 26.8456C31.2589 26.0374 30.1388 25.2412 28.9057 24.7123C27.3399 24.0438 26.918 22.9652 27.2894 21.3341C27.9668 21.1885 28.6948 21.0726 29.3989 20.8735C32.5395 19.9822 34.2241 17.0377 33.0505 14.0784C32.5305 12.7652 32.7534 11.9986 33.6893 11.137C34.2628 10.5349 34.7996 9.89889 35.2967 9.23242C36.6635 11.651 37.439 14.0725 37.5043 16.6842C37.5756 19.6553 37.5043 22.6265 37.6143 25.5977C37.8341 30.7461 39.0278 35.8062 41.1321 40.5101L35.8583 36.3504L31.7818 42.8692L27.4795 38.968C25.2096 42.6345 23.005 46.191 20.6458 50C18.3343 46.2831 16.1118 42.7147 13.7824 38.9651L9.49498 42.9019C8.1104 40.6943 6.78821 38.5818 5.38878 36.3445L0.183298 40.5041C0.085249 40.3615 -0.0157669 40.2664 0.00206023 40.2308C3.27036 33.6942 3.92402 26.7119 3.67741 19.5632C3.57936 16.7703 3.80517 14.0279 4.90451 11.4192C5.18677 10.7418 5.5344 10.1089 5.94443 9.2562Z" fill="white"/>
<path d="M36.8208 3.31305C35.6174 4.96502 34.524 6.70614 33.1929 8.24225C30.7912 11.0191 27.8883 13.3192 24.6359 15.0225C24.0053 15.3036 23.2911 15.3333 22.6393 15.1057C22.0026 14.8361 21.3171 14.7012 20.6258 14.7094C19.9345 14.7176 19.2523 14.8687 18.6223 15.1532C18.1825 15.3463 17.5051 15.483 17.1367 15.281C12.05 12.5178 7.73586 8.91372 4.90433 3.7498C4.79736 3.5537 4.72901 3.33384 4.55371 2.90302C5.49855 3.59233 6.22053 4.1628 6.99007 4.66196C7.83388 5.21162 8.54697 5.1106 9.36701 4.38266C15.7461 -1.32201 24.9479 -1.46164 31.4875 3.98751C33.0949 5.32751 33.5138 5.34533 35.1717 4.09149C35.6055 3.76466 36.0067 3.39623 36.4226 3.04861L36.8208 3.31305Z" fill="white"/>
<path d="M27.395 26.6964C23.2175 29.3141 22.0052 33.2598 20.6652 37.6126C19.1796 33.4143 18.1338 29.3378 14.3574 27.0441C14.3752 26.8628 14.3574 26.7024 14.402 26.6845C16.3511 25.921 16.669 24.3967 16.8057 22.4714C16.9037 21.0987 17.6049 19.6102 18.4517 18.49C19.6729 16.8767 21.512 16.8381 22.748 18.4455C23.6632 19.6339 24.4179 21.2265 24.507 22.6853C24.6348 24.6018 24.923 26.0547 27.395 26.6964Z" fill="white"/>
<path d="M10.8892 14.5361L16.0234 17.7717C15.3768 18.2528 14.593 18.5139 13.7871 18.5165C12.9812 18.5192 12.1956 18.2634 11.5459 17.7866C10.4762 16.9428 10.2504 15.894 10.8892 14.5361Z" fill="white"/>
<path d="M25.1411 17.8511L30.3555 14.5264C30.8339 15.4177 30.8933 16.3091 30.3318 17.1618C29.4048 18.585 27.1259 18.9089 25.1411 17.8511Z" fill="white"/>
</svg>
