<svg width="192" height="50" viewBox="0 0 192 50" fill="none" xmlns="http://www.w3.org/2000/svg">
<path d="M138.702 18.3656C134.752 18.8566 131.839 21.0995 130.768 24.4471C130.032 26.7234 130.121 28.8882 131.047 31.0865C132.141 33.6864 134.495 35.5388 137.619 36.2418C138.523 36.4538 140.855 36.4649 141.793 36.2864C145.419 35.5722 147.952 33.3182 149.001 29.9037C149.247 29.0891 149.28 28.8436 149.28 27.393C149.28 25.9423 149.247 25.6968 149.001 24.8823C147.963 21.5124 145.52 19.2918 142.027 18.5553C141.302 18.4103 139.316 18.2987 138.702 18.3656ZM140.911 22.7956C142.217 23.1415 143.455 23.9896 144.024 24.9827C144.906 26.478 144.873 28.453 143.958 29.8813C142.317 32.459 138.568 32.883 136.314 30.7406C134.439 28.9552 134.372 26.1209 136.158 24.1904C137.352 22.9183 139.249 22.3716 140.911 22.7956Z" fill="white"/>
<path d="M158.006 18.3656C154.055 18.8566 151.143 21.0995 150.072 24.4471C149.335 26.7234 149.425 28.8882 150.351 31.0865C151.444 33.6864 153.799 35.5388 156.923 36.2418C157.827 36.4538 160.159 36.4649 161.096 36.2864C164.723 35.5722 167.256 33.3182 168.305 29.9037C168.55 29.0891 168.584 28.8436 168.584 27.393C168.584 25.9423 168.55 25.6968 168.305 24.8823C167.267 21.5124 164.823 19.2918 161.331 18.5553C160.605 18.4103 158.619 18.2987 158.006 18.3656ZM160.226 22.7956C161.543 23.1415 162.77 23.9896 163.339 24.9827C164.221 26.478 164.187 28.453 163.272 29.8813C161.632 32.459 157.883 32.883 155.629 30.7406C153.754 28.9552 153.687 26.1209 155.473 24.1904C156.655 22.9183 158.552 22.3716 160.226 22.7956Z" fill="white"/>
<path d="M184.005 18.4215C181.706 18.7562 179.977 20.2292 179.419 22.3493C178.883 24.3467 179.263 26.3887 180.334 27.3819C180.97 27.9733 181.729 28.3192 183.815 28.9887C185.835 29.6359 186.293 29.9149 186.505 30.5955C186.739 31.3767 186.159 32.314 185.277 32.5595C184.797 32.6934 183.894 32.6934 183.291 32.5483C182.633 32.3921 181.45 31.8118 180.948 31.3767C180.724 31.1646 180.468 31.0084 180.423 31.0084C180.379 31.0084 180.122 31.3878 179.876 31.8565C179.531 32.5148 179.419 32.6599 179.397 32.4814L179.363 32.2582H176.674H173.996V25.496V18.7339H171.775H169.555V27.4042V36.0744H174.453H179.352V35.5946C179.352 35.338 179.374 35.126 179.397 35.126C179.419 35.126 179.821 35.3157 180.289 35.5277C181.74 36.2083 182.666 36.4092 184.463 36.4092C186.215 36.4092 187.04 36.253 188.123 35.7285C188.982 35.3157 190.142 34.1663 190.533 33.3629C191.303 31.756 191.414 29.5913 190.767 28.2188C190.656 27.9621 190.276 27.46 189.919 27.1141C189.16 26.3553 188.346 25.9424 186.259 25.2729C185.433 25.0162 184.608 24.7038 184.418 24.5922C183.748 24.1793 183.615 23.2755 184.139 22.7064C185.054 21.7244 186.683 21.8137 188.379 22.9407L188.714 23.1527L189.618 21.4231C190.098 20.4858 190.499 19.6936 190.477 19.6824C190.377 19.582 189.116 19.0798 188.402 18.8567C186.895 18.388 185.311 18.2206 184.005 18.4215Z" fill="white"/>
<path d="M59.252 24.9382V36.3646H63.2914C65.512 36.3646 67.8329 36.2977 68.4355 36.2307C73.4234 35.617 77.1058 32.593 78.2886 28.1519C78.6791 26.6789 78.7684 24.0901 78.4895 22.5502C77.9204 19.5597 76.3693 17.1494 73.9814 15.5203C72.9101 14.7838 71.9505 14.3821 70.4106 13.9581C69.2055 13.6345 69.0158 13.6345 64.2175 13.5675L59.2631 13.5117V24.9382H59.252ZM68.0673 18.176C71.2029 18.8456 73.2895 21.4678 73.2895 24.7485C73.2784 26.9244 72.6088 28.7991 71.3591 30.0377C70.1205 31.2874 68.2793 31.89 65.7128 31.9012H64.4965V24.9493V17.9975H65.8467C66.5832 17.9975 67.5763 18.0868 68.0673 18.176Z" fill="white"/>
<path d="M80.375 24.9496V36.3649L89.9937 36.3537H99.6013L102.079 32.8722C103.451 30.9753 104.6 29.4131 104.634 29.4131C104.69 29.4131 105.839 30.9753 107.2 32.8946L109.689 36.3761H112.813C114.52 36.3761 115.926 36.3314 115.926 36.2979C115.926 36.2533 114.085 33.6868 111.865 30.5959L107.803 24.9719L111.686 19.5488C113.829 16.5806 115.692 14.0253 115.815 13.8802C116.06 13.6348 116.06 13.6682 116.06 15.9557V18.2767H118.426H120.792V27.3264V36.3761H123.615H126.438V27.3264V18.2767L129.194 18.2544L131.939 18.2098L130.466 15.8888L128.993 13.5678L119.352 13.5566H109.7L107.223 17.0381C105.85 18.9351 104.701 20.4973 104.667 20.5196C104.623 20.5196 103.473 18.9574 102.112 17.0381L99.6237 13.5566H90.0161H80.3973V24.9496H80.375ZM97.3473 19.2364C99.5567 22.2939 101.364 24.8603 101.364 24.9385C101.364 25.0166 99.5567 27.6054 97.3361 30.6852L93.2967 36.2868L93.2521 34.0997L93.2298 31.9126H89.4247H85.6196V29.3461V26.7908H88.6993H91.7791V24.626V22.4612H88.6993H85.6196V20.2295V17.9978H89.4247H93.2298V15.833C93.2298 14.639 93.2521 13.6682 93.2855 13.6682C93.319 13.6682 95.1379 16.1789 97.3473 19.2364Z" fill="white"/>
<path fill-rule="evenodd" clip-rule="evenodd" d="M16.18 2.81756C13.2044 4.37047 10.7588 5.68161 10.7681 5.7374C10.7681 5.87688 17.9189 9.49414 18.17 9.48484C18.2816 9.48484 19.1185 9.09429 20.0298 8.62935L21.685 7.78315L23.4889 8.71304L25.2929 9.64292L28.25 8.31318C32.6948 6.31393 33.1598 6.09076 33.0854 6.02566C32.9924 5.92338 31.393 5.06788 27.0597 2.78966C24.9675 1.69239 22.9403 0.604425 22.5497 0.390551C22.1592 0.167378 21.7872 0 21.7221 0C21.6571 0 19.1557 1.26464 16.18 2.81756ZM3.11512 9.58713L0.00929943 11.1865V18.2165C0.00929943 22.0848 0.0464949 25.2464 0.102288 25.2464C0.148782 25.2464 1.6738 24.5862 3.49637 23.7772L6.79747 22.308V14.8968L8.40617 15.7709C9.65222 16.4497 10.889 17.1192 12.135 17.798L14.2552 18.9418L15.1943 18.514C15.7895 18.2444 16.3753 17.9747 16.9611 17.705C17.4168 17.4912 18.5326 16.989 19.4439 16.5892C20.3552 16.1893 21.1921 15.7802 21.313 15.6872C21.4711 15.5663 19.5369 14.4969 14.1622 11.7352C10.1079 9.65222 6.65799 7.95983 6.49991 7.96913C6.34183 7.97843 4.81681 8.70374 3.11512 9.58713ZM33.634 10.0335C31.5232 10.9913 29.7936 11.8096 29.7936 11.8561C29.7936 11.9025 30.9466 12.5907 32.3508 13.3811C33.7642 14.1715 34.9079 14.8596 34.9079 14.9154C34.9079 14.9712 33.6619 15.5756 32.1369 16.2544C30.6119 16.9425 26.7621 18.6814 23.5726 20.1227L12.9068 24.9489C10.2195 26.1577 7.80175 27.255 7.53208 27.3759C2.05505 29.8587 0.539335 30.5468 0.33476 30.6677C0.130185 30.7885 0.0836898 31.4767 0.0464943 34.9451L0 39.0831L2.77106 40.4966L5.54212 41.91L9.39185 40.1711C11.5027 39.2133 13.2416 38.3857 13.2416 38.3206C13.2416 38.2555 12.851 38.0045 12.3768 37.7534C11.9025 37.5023 10.9169 36.9444 10.1823 36.5166C9.45695 36.0889 8.73164 35.6983 8.57355 35.6426C8.41547 35.5868 8.28529 35.5031 8.28529 35.438C8.28529 35.3822 9.97768 34.5732 12.0513 33.6526C16.0684 31.8579 19.1371 30.4724 25.73 27.4874C28.6777 26.1577 31.6254 24.8187 34.5825 23.4889C37.1769 22.3173 40.1897 20.9503 41.2777 20.4482L43.2583 19.5369L43.3048 15.3524L43.3513 11.1679L40.543 9.73591C38.9994 8.94551 37.6697 8.29459 37.6046 8.29459C37.5302 8.29459 35.7448 9.08499 33.634 10.0335ZM42.5144 25.1348C42.096 25.3394 41.2777 25.7207 40.6918 25.981C40.106 26.2414 38.9901 26.7435 38.2183 27.0969L36.8142 27.7385L36.7863 31.4116C36.7677 33.4294 36.6933 35.0753 36.6189 35.066C36.4515 35.0381 33.82 33.6898 31.1698 32.2671C29.2542 31.2442 29.1333 31.1977 28.687 31.4209C28.4266 31.551 26.8737 32.2485 25.2371 32.9645C23.6005 33.6898 22.2057 34.3221 22.1406 34.3872C22.0755 34.443 25.3673 36.2284 29.4681 38.3578L36.9072 42.2261L40.0874 40.5802C41.8356 39.6783 43.3234 38.8507 43.3885 38.7484C43.5466 38.5159 43.528 24.735 43.3792 24.7536C43.3141 24.7629 42.9236 24.9303 42.5144 25.1348ZM24.9024 41.3056C24.3537 41.538 23.7958 41.7798 23.2472 42.0216C21.5827 42.7376 21.9081 42.7655 19.9275 41.7798C18.607 41.1196 18.0398 40.9243 17.7887 41.0173C17.6028 41.0917 16.0126 41.8077 14.2459 42.6074C12.4884 43.4071 10.982 44.0673 10.9076 44.0673C10.1637 44.0673 11.4004 44.8019 16.1428 47.1917L21.7036 50L24.0469 48.8469C25.3301 48.2146 27.9338 46.9407 29.8122 46.0201C31.6998 45.0995 33.2155 44.3277 33.1876 44.2905C33.1598 44.2626 31.5789 43.4536 29.6727 42.4865L26.2135 40.7383L24.9024 41.3056Z" fill="white"/>
</svg>
