<?xml version="1.0" standalone="no"?>
<!DOCTYPE svg PUBLIC "-//W3C//DTD SVG 1.1//EN" "http://www.w3.org/Graphics/SVG/1.1/DTD/svg11.dtd" >
<svg xmlns="http://www.w3.org/2000/svg" xmlns:xlink="http://www.w3.org/1999/xlink" version="1.1">
<metadata>
Created by FontForge 20201107 at Thu Nov 14 10:01:05 2024
 By 
Copyright (c) 2016 by Mathieu Desjardins. All rights reserved.
</metadata>
<defs>
<font id="PPSupplyMono-Regular" horiz-adv-x="1228" >
  <font-face 
    font-family="PP Supply Mono"
    font-weight="400"
    font-stretch="normal"
    units-per-em="2048"
    panose-1="0 0 0 0 0 0 0 0 0 0"
    ascent="1638"
    descent="-410"
    x-height="1044"
    cap-height="1434"
    bbox="20 -635 1812 2134"
    underline-thickness="61"
    underline-position="-234"
    unicode-range="U+0020-25CA"
  />
<missing-glyph horiz-adv-x="942" 
d="M772 1454v-1884h-596v1884h596zM315 -301h312v63h-191l131 88h60v62h-312v-62h131l-131 -88v-63zM315 -43h312v213h-312v-213zM315 283h312v213h-189v-107h66v43h61v-88h-188v152h-62v-213zM315 537h312v188h-62v-125h-250v-63zM315 643h189v133h123v62h-312v-62h123v-69
h-123v-64zM315 889h312v63h-123v133h-189v-196zM315 1135h312v61h-123v70h123v61h-310v-61h121v-70h-123v-61zM377 18v88h188v-88h-188zM377 952v68h61v-68h-61z" />
    <glyph glyph-name=".notdef" horiz-adv-x="942" 
d="M772 1454v-1884h-596v1884h596zM315 -301h312v63h-191l131 88h60v62h-312v-62h131l-131 -88v-63zM315 -43h312v213h-312v-213zM315 283h312v213h-189v-107h66v43h61v-88h-188v152h-62v-213zM315 537h312v188h-62v-125h-250v-63zM315 643h189v133h123v62h-312v-62h123v-69
h-123v-64zM315 889h312v63h-123v133h-189v-196zM315 1135h312v61h-123v70h123v61h-310v-61h121v-70h-123v-61zM377 18v88h188v-88h-188zM377 952v68h61v-68h-61z" />
    <glyph glyph-name=".null" horiz-adv-x="0" 
 />
    <glyph glyph-name="nonmarkingreturn" horiz-adv-x="682" 
 />
    <glyph glyph-name="space" unicode=" " 
 />
    <glyph glyph-name="space" unicode="&#xa0;" 
 />
    <glyph glyph-name="exclam" unicode="!" 
d="M512 1434h205v-754l-41 -223h-123l-41 223v754zM502 0v205h225v-205h-225z" />
    <glyph glyph-name="quotedbl" unicode="&#x22;" 
d="M676 1454h205v-207l-41 -223h-123l-41 223v207zM348 1247v207h205v-207l-41 -223h-123z" />
    <glyph glyph-name="numbersign" unicode="#" 
d="M451 0h-205l53 389h-135l20 205h144l34 246h-157l20 204h166l53 390h209l-55 -390h127l53 390h209l-55 -390h133l-21 -204h-141l-35 -246h156l-20 -205h-164l-56 -389h-204l53 389h-127zM535 594h127l34 246h-127z" />
    <glyph glyph-name="dollar" unicode="$" 
d="M512 1638h205v-208q139 -20 233 -127t94 -250v-62h-204v62q0 59 -34 104.5t-89 63.5v-408q75 -45 128.5 -84.5t108 -95.5t83 -125t28.5 -148q0 -146 -98.5 -246.5t-249.5 -111.5v-207h-205v207q-147 12 -247.5 120.5t-100.5 258.5v82h205v-82q0 -64 40.5 -112.5
t102.5 -59.5v483q-58 34 -99 61.5t-87.5 67t-75 78.5t-47.5 89.5t-19 105.5q0 137 90.5 230t237.5 108v206zM389 1094q0 -77 123 -158v289q-59 -11 -91 -45t-32 -86zM717 207q65 11 104 52t39 101q0 107 -143 207v-360z" />
    <glyph glyph-name="percent" unicode="%" 
d="M369 0h-205v328l696 852v254h205v-328l-696 -852v-254zM41 1161q0 114 79 193.5t193 79.5q113 0 192 -79.5t79 -193.5t-79 -193t-192 -79q-114 0 -193 79t-79 193zM246 1161q0 -28 19.5 -47.5t47.5 -19.5t47 19.5t19 47.5t-19 48t-47 20t-47.5 -20t-19.5 -48zM645 272
q0 114 79.5 193.5t193.5 79.5q113 0 191.5 -79.5t78.5 -193.5t-78.5 -193t-191.5 -79q-114 0 -193.5 79t-79.5 193zM850 272q0 -28 20 -47.5t48 -19.5t46.5 19.5t18.5 47.5t-19 48t-46 20q-28 0 -48 -20t-20 -48z" />
    <glyph glyph-name="ampersand" unicode="&#x26;" 
d="M913 614v21h205v-21q0 -191 -102 -346q102 -157 102 -268h-205q0 47 -39 117q-152 -117 -342 -117q-201 0 -311 131.5t-110 355.5l266 250q-129 185 -129 307q0 169 99.5 279.5t252.5 110.5q164 0 264.5 -125t85.5 -312l-299 -280q37 -45 115.5 -134t114.5 -132
q32 78 32 163zM315 399q9 -95 64.5 -144.5t152.5 -49.5q122 0 222 78q-30 35 -117.5 135t-134.5 157zM453 1044q0 -58 71 -167l221 208q-11 68 -49 106t-96 38q-67 0 -107 -50t-40 -135z" />
    <glyph glyph-name="quotesingle" unicode="'" 
d="M512 1454h205v-207l-41 -223h-123l-41 223v207z" />
    <glyph glyph-name="parenleft" unicode="(" 
d="M696 -207q-152 0 -260 109t-108 262v1106q0 153 107.5 260.5t260.5 107.5h205v-204h-205q-69 0 -116.5 -48t-47.5 -116v-1106q0 -68 48 -116t116 -48h205v-207h-205z" />
    <glyph glyph-name="parenright" unicode=")" 
d="M532 -207h-204v207h204q68 0 116 48t48 116v1106q0 68 -47.5 116t-116.5 48h-204v204h204q153 0 261 -107.5t108 -260.5v-1106q0 -152 -108.5 -261.5t-260.5 -109.5z" />
    <glyph glyph-name="asterisk" unicode="*" 
d="M512 1454h205v-82l-53 -162l112 127l72 41l102 -176l-71 -41l-166 -35l166 -34l71 -41l-102 -177l-72 41l-112 127l53 -161v-82h-205v82l53 161l-112 -127l-72 -41l-102 177l71 41l166 34l-166 35l-71 41l102 176l72 -41l112 -127l-53 162v82z" />
    <glyph glyph-name="plus" unicode="+" 
d="M246 649h266v266h205v-266h266v-205h-266v-266h-205v266h-266v205z" />
    <glyph glyph-name="comma" unicode="," 
d="M508 -225h-90l147 430h205l-49 -150z" />
    <glyph glyph-name="hyphen" unicode="-" 
d="M246 649h737v-205h-737v205z" />
    <glyph glyph-name="period" unicode="." 
d="M502 205h225v-205h-225v205z" />
    <glyph glyph-name="slash" unicode="/" 
d="M369 0h-205v328l696 852v254h205v-328l-696 -852v-254z" />
    <glyph glyph-name="zero" unicode="0" 
d="M696 207q48 0 92 29l-419 684v-549q0 -68 48 -116t115 -48h164zM164 371v694q0 153 108 261t260 108h164q154 0 261.5 -107.5t107.5 -261.5v-694q0 -153 -108 -262t-261 -109h-164q-152 0 -260 109t-108 262zM438 1200l422 -686v551q0 69 -47.5 116.5t-116.5 47.5h-164
q-50 0 -94 -29z" />
    <glyph glyph-name="one" unicode="1" 
d="M1065 205v-205h-901v205h348v991l-348 -205v238l348 205h205v-1229h348z" />
    <glyph glyph-name="two" unicode="2" 
d="M1065 205v-205h-901v473l696 391v201q0 69 -47.5 116.5t-116.5 47.5h-164q-67 0 -115 -48t-48 -116v-72h-205v72q0 153 108 261t260 108h164q154 0 261.5 -107.5t107.5 -261.5v-322l-696 -391v-147h696z" />
    <glyph glyph-name="three" unicode="3" 
d="M1065 983q0 -156 -113 -266q113 -110 113 -266v-82q0 -154 -107.5 -261.5t-261.5 -107.5h-164q-152 0 -260 108t-108 261v71h205v-71q0 -68 48 -116t115 -48h164q69 0 116.5 47.5t47.5 116.5v82q0 69 -47.5 116t-116.5 47h-143v205h143q69 0 116.5 47.5t47.5 116.5v82
q0 69 -47.5 116.5t-116.5 47.5h-164q-67 0 -115 -48t-48 -116v-72h-205v72q0 153 108 261t260 108h164q154 0 261.5 -107.5t107.5 -261.5v-82z" />
    <glyph glyph-name="four" unicode="4" 
d="M655 1311h205v-512h205v-205h-205v-594h-205v594h-491v840h205v-635h286v512z" />
    <glyph glyph-name="five" unicode="5" 
d="M164 608v826h778v-205h-573v-373l170 115h157q153 0 261 -108t108 -261v-233q0 -154 -107.5 -261.5t-261.5 -107.5h-164q-152 0 -260 108t-108 261v20h205v-20q0 -68 48 -116t115 -48h164q69 0 116.5 47.5t47.5 116.5v233q0 68 -48 116t-116 48h-94l-233 -158h-205z" />
    <glyph glyph-name="six" unicode="6" 
d="M369 369q0 -68 48 -116t115 -48h164q69 0 116.5 47.5t47.5 116.5v172q0 67 -48 115.5t-116 48.5h-94l-233 -158v-178zM164 369v696q0 154 107 261.5t261 107.5h164q154 0 261.5 -107.5t107.5 -261.5v-61h-205v61q0 69 -47.5 116.5t-116.5 47.5h-164q-69 0 -116 -47.5
t-47 -116.5v-270l170 114h157q153 0 261 -107.5t108 -260.5v-172q0 -154 -107.5 -261.5t-261.5 -107.5h-164q-152 0 -260 108t-108 261z" />
    <glyph glyph-name="seven" unicode="7" 
d="M451 0h-205v399l614 635v195h-491v-225h-205v430h901v-482l-614 -635v-317z" />
    <glyph glyph-name="eight" unicode="8" 
d="M696 205q68 0 116 48.5t48 117.5v100q0 69 -47.5 116.5t-116.5 47.5h-164q-69 0 -116 -48t-47 -116v-100q0 -69 48 -118t115 -48h164zM164 371v100q0 165 125 277q-105 113 -105 258v59q0 153 108 261t261 108h123q154 0 261 -107.5t107 -261.5v-59q0 -151 -104 -258
q125 -109 125 -277v-100q0 -153 -108 -262t-261 -109h-164q-152 0 -260 109t-108 262zM389 1006q0 -68 46 -116.5t112 -49.5h129q68 0 116 48.5t48 117.5v59q0 69 -47.5 116.5t-116.5 47.5h-123q-69 0 -116.5 -48t-47.5 -116v-59z" />
    <glyph glyph-name="nine" unicode="9" 
d="M860 1065q0 67 -48 115.5t-116 48.5h-164q-69 0 -116 -47.5t-47 -116.5v-172q0 -68 48 -116t115 -48h95l233 158v178zM164 369v61h205v-61q0 -69 47 -116.5t116 -47.5h164q69 0 116.5 47.5t47.5 116.5v270l-170 -115h-158q-152 0 -260 108t-108 261v172q0 154 107 261.5
t261 107.5h164q153 0 261 -108t108 -261v-696q0 -154 -107.5 -261.5t-261.5 -107.5h-164q-154 0 -261 107.5t-107 261.5z" />
    <glyph glyph-name="colon" unicode=":" 
d="M502 778h225v-205h-225v205zM502 0v205h225v-205h-225z" />
    <glyph glyph-name="semicolon" unicode=";" 
d="M522 -225h-90l148 430h204l-49 -150zM569 573v205h226v-205h-226z" />
    <glyph glyph-name="less" unicode="&#x3c;" 
d="M911 276v-204h-184l-410 348v205l410 348h184v-205h-108l-287 -244v-4l287 -244h108z" />
    <glyph glyph-name="equal" unicode="=" 
d="M246 866h737v-204h-737v204zM246 270v205h737v-205h-737z" />
    <glyph glyph-name="greater" unicode="&#x3e;" 
d="M317 276h109l287 244v4l-287 244h-109v205h185l409 -348v-205l-409 -348h-185v204z" />
    <glyph glyph-name="question" unicode="?" 
d="M512 457v241l348 220v147q0 69 -47.5 116.5t-116.5 47.5h-164q-67 0 -115 -48t-48 -116v-72h-205v72q0 153 108 261t260 108h164q154 0 261.5 -107.5t107.5 -261.5v-260l-348 -219v-129h-205zM502 0v205h225v-205h-225z" />
    <glyph glyph-name="at" unicode="@" 
d="M922 1065q0 69 -47.5 116.5t-116.5 47.5h-287q-69 0 -116.5 -48t-47.5 -116v-1049q0 -67 48 -115t116 -48h387v-207h-387q-152 0 -260.5 109t-108.5 261v1049q0 153 108 261t261 108h287q154 0 261 -107.5t107 -261.5v-985h-204v74l-109 -74h-63q-152 0 -260.5 108.5
t-108.5 260.5v184q0 153 108 260.5t261 107.5h63l109 -73v137zM586 449q0 -67 48 -115.5t116 -48.5l172 114v283l-172 115q-68 0 -116 -48.5t-48 -115.5v-184z" />
    <glyph glyph-name="A" unicode="A" 
d="M369 0h-205v471l348 963h205l348 -963v-471h-205v332h-491v-332zM406 537h417l-207 573h-4z" />
    <glyph glyph-name="B" unicode="B" 
d="M1024 983q0 -146 -94 -246q63 -52 99 -126t36 -160v-82q0 -154 -107.5 -261.5t-261.5 -107.5h-532v1434h491q154 0 261.5 -107.5t107.5 -261.5v-82zM369 205h327q69 0 116.5 47.5t47.5 116.5v82q0 69 -47.5 116t-116.5 47h-327v-409zM369 819h286q69 0 116.5 47.5
t47.5 116.5v82q0 69 -47.5 116.5t-116.5 47.5h-286v-410z" />
    <glyph glyph-name="C" unicode="C" 
d="M860 1065q0 69 -47.5 116.5t-116.5 47.5h-164q-69 0 -116 -48t-47 -116v-694q0 -68 48 -116t115 -48h164q68 0 116 48.5t48 115.5v112h205v-112q0 -153 -108 -262t-261 -109h-164q-152 0 -260 109t-108 262v694q0 153 108 261t260 108h164q154 0 261.5 -107.5
t107.5 -261.5v-113h-205v113z" />
    <glyph glyph-name="D" unicode="D" 
d="M696 1434q153 0 261 -108t108 -261v-694q0 -152 -108.5 -261.5t-260.5 -109.5h-532v1434h532zM369 207h327q68 0 116 48.5t48 115.5v694q0 68 -47.5 116t-116.5 48h-327v-1022z" />
    <glyph glyph-name="E" unicode="E" 
d="M1065 1434v-205h-696v-375h614v-205h-614v-444h696v-205h-901v1434h901z" />
    <glyph glyph-name="F" unicode="F" 
d="M1065 1434v-205h-696v-436h614v-205h-614v-588h-205v1434h901z" />
    <glyph glyph-name="G" unicode="G" 
d="M553 772h512v-401q0 -153 -108 -262t-261 -109h-164q-152 0 -260 109t-108 262v694q0 153 108 261t260 108h164q154 0 261.5 -107.5t107.5 -261.5v-113h-205v113q0 69 -47.5 116.5t-116.5 47.5h-164q-69 0 -116 -48t-47 -116v-694q0 -68 48 -116t115 -48h164
q68 0 116 48.5t48 115.5v196h-307v205z" />
    <glyph glyph-name="H" unicode="H" 
d="M369 1434v-574h491v574h205v-1434h-205v655h-491v-655h-205v1434h205z" />
    <glyph glyph-name="I" unicode="I" 
d="M164 1434h901v-205h-348v-1024h348v-205h-901v205h348v1024h-348v205z" />
    <glyph glyph-name="J" unicode="J" 
d="M348 1434h717v-1063q0 -152 -108.5 -261.5t-260.5 -109.5h-164q-153 0 -260.5 109t-107.5 262v174h205v-174q0 -68 48 -116t115 -48h164q68 0 116 48.5t48 115.5v858h-512v205z" />
    <glyph glyph-name="K" unicode="K" 
d="M369 0h-205v1434h205v-615h77l377 615h242l-440 -717l440 -717h-242l-377 614h-77v-614z" />
    <glyph glyph-name="L" unicode="L" 
d="M369 1434v-1229h696v-205h-901v1434h205z" />
    <glyph glyph-name="M" unicode="M" 
d="M559 578l-190 405v-983h-205v1434h205l245 -535l246 535h205v-1434h-205v983l-190 -405h-111z" />
    <glyph glyph-name="N" unicode="N" 
d="M860 1434h205v-1434h-297l-399 1090v-1090h-205v1434h297l399 -1090v1090z" />
    <glyph glyph-name="O" unicode="O" 
d="M696 207q68 0 116 48.5t48 115.5v694q0 69 -47.5 116.5t-116.5 47.5h-164q-69 0 -116 -48t-47 -116v-694q0 -68 48 -116t115 -48h164zM164 371v694q0 153 108 261t260 108h164q154 0 261.5 -107.5t107.5 -261.5v-694q0 -153 -108 -262t-261 -109h-164q-152 0 -260 109
t-108 262z" />
    <glyph glyph-name="P" unicode="P" 
d="M1065 942q0 -154 -107.5 -261.5t-261.5 -107.5h-327v-573h-205v1434h532q154 0 261.5 -107.5t107.5 -261.5v-123zM369 778h327q69 0 116.5 47.5t47.5 116.5v123q0 69 -47.5 116.5t-116.5 47.5h-327v-451z" />
    <glyph glyph-name="Q" unicode="Q" 
d="M1065 -168l-180 -100l-166 268h-23h-164q-152 0 -260 109t-108 262v694q0 153 108 261t260 108h164q154 0 261.5 -107.5t107.5 -261.5v-694q0 -89 -39 -167t-108 -130zM369 371q0 -68 48 -116t115 -48h164q68 0 116 48.5t48 115.5v694q0 69 -47.5 116.5t-116.5 47.5h-164
q-69 0 -116 -48t-47 -116v-694z" />
    <glyph glyph-name="R" unicode="R" 
d="M1065 0h-225l-260 573h-211v-573h-205v1434h532q154 0 261.5 -107.5t107.5 -261.5v-123q0 -126 -75 -223.5t-193 -130.5zM369 778h327q69 0 116.5 47.5t47.5 116.5v123q0 69 -47.5 116.5t-116.5 47.5h-327v-451z" />
    <glyph glyph-name="S" unicode="S" 
d="M164 463h205v-82q0 -72 52 -124t124 -52h137q78 0 128 43.5t50 111.5q0 57 -37.5 108.5t-97 93t-131.5 83t-144 87t-131.5 96t-97 119t-37.5 147.5q0 150 106.5 245t274.5 95h97q158 0 270 -111.5t112 -269.5v-62h-204v62q0 73 -52 124.5t-126 51.5h-97q-83 0 -129.5 -36
t-46.5 -99q0 -44 37.5 -86t97 -79.5t131.5 -78t144 -89t131.5 -104t97 -132.5t37.5 -165q0 -154 -110 -257t-273 -103h-137q-158 0 -269.5 111.5t-111.5 269.5v82z" />
    <glyph glyph-name="T" unicode="T" 
d="M164 1434h901v-205h-348v-1229h-205v1229h-348v205z" />
    <glyph glyph-name="U" unicode="U" 
d="M1065 371q0 -152 -108.5 -261.5t-260.5 -109.5h-164q-153 0 -260.5 109t-107.5 262v1063h205v-1063q0 -68 48 -116t115 -48h164q68 0 116 48.5t48 115.5v1063h205v-1063z" />
    <glyph glyph-name="V" unicode="V" 
d="M860 1434h205v-471l-348 -963h-205l-348 963v471h205v-435l243 -675h4l244 675v435z" />
    <glyph glyph-name="W" unicode="W" 
d="M698 1065l113 -645l49 604v410h205v-471l-123 -963h-164l-164 612l-163 -612h-164l-123 963v471h205v-410l49 -604l112 645h168z" />
    <glyph glyph-name="X" unicode="X" 
d="M164 0l338 717l-338 717h225l225 -478l226 478h225l-338 -717l338 -717h-225l-226 477l-225 -477h-225z" />
    <glyph glyph-name="Y" unicode="Y" 
d="M512 0v510l-348 432v492h205v-418l241 -301h4l246 321v398h205v-467l-348 -457v-510h-205z" />
    <glyph glyph-name="Z" unicode="Z" 
d="M164 1434h901v-205l-657 -1024h657v-205h-901v205l659 1024h-659v205z" />
    <glyph glyph-name="bracketleft" unicode="[" 
d="M328 1638h573v-204h-369v-1434h369v-205h-573v1843z" />
    <glyph glyph-name="backslash" unicode="\" 
d="M860 0v254l-696 852v328h205v-254l696 -852v-328h-205z" />
    <glyph glyph-name="bracketright" unicode="]" 
d="M901 1638v-1843h-573v205h368v1434h-368v204h573z" />
    <glyph glyph-name="asciicircum" unicode="^" 
d="M778 717v137l-162 340h-4l-161 -340v-137h-205v184l266 553h205l266 -553v-184h-205z" />
    <glyph glyph-name="underscore" unicode="_" 
d="M20 -68v-204h1188v204h-1188z" />
    <glyph glyph-name="grave" unicode="`" 
d="M457 1540l286 -311h-237l-328 311h279z" />
    <glyph glyph-name="a" unicode="a" 
d="M1065 1044v-1044h-205v115l-170 -115h-158q-152 0 -260 108.5t-108 260.5v307q0 153 107.5 260.5t260.5 107.5h158l170 -114v114h205zM369 369q0 -68 48 -116t115 -48h95l233 157v320l-233 158h-95q-67 0 -115 -48t-48 -116v-307z" />
    <glyph glyph-name="b" unicode="b" 
d="M164 1454h205v-524l170 114h157q153 0 261 -107.5t108 -260.5v-307q0 -152 -108.5 -260.5t-260.5 -108.5h-157l-170 115v-115h-205v1454zM369 362l233 -157h94q68 0 116 48.5t48 115.5v307q0 68 -48 116t-116 48h-94l-233 -158v-320z" />
    <glyph glyph-name="c" unicode="c" 
d="M860 676q0 69 -47.5 116.5t-116.5 47.5h-164q-69 0 -116 -48t-47 -116v-305q0 -68 48 -116t115 -48h164q68 0 116 48.5t48 115.5v20h205v-20q0 -153 -108 -262t-261 -109h-164q-152 0 -260 109t-108 262v305q0 153 107.5 260.5t260.5 107.5h164q154 0 261.5 -107
t107.5 -261v-21h-205v21z" />
    <glyph glyph-name="d" unicode="d" 
d="M1065 1454v-1454h-205v115l-170 -115h-158q-152 0 -260 108.5t-108 260.5v307q0 153 107.5 260.5t260.5 107.5h158l170 -114v524h205zM369 369q0 -68 48 -116t115 -48h95l233 157v320l-233 158h-95q-67 0 -115 -48t-48 -116v-307z" />
    <glyph glyph-name="e" unicode="e" 
d="M1065 696v-221h-696v-104q0 -68 48 -116t115 -48h164q68 0 116 48.5t48 115.5v20h205v-20q0 -153 -108 -262t-261 -109h-164q-152 0 -260 109t-108 262v305q0 153 107.5 260.5t260.5 107.5h164q149 0 255 -100.5t114 -247.5zM369 639h491v37q0 69 -47.5 116.5
t-116.5 47.5h-164q-69 0 -116 -48t-47 -116v-37z" />
    <glyph glyph-name="f" unicode="f" 
d="M870 1454h195v-205h-195q-69 0 -116 -47.5t-47 -116.5v-102h358v-205h-358v-778h-205v778h-338v205h338v102q0 154 107 261.5t261 107.5z" />
    <glyph glyph-name="g" unicode="g" 
d="M1065 -59q0 -153 -108 -262t-261 -109h-164q-152 0 -260 109t-108 262h205q0 -68 48 -116t115 -48h164q68 0 116 48.5t48 115.5v174l-170 -115h-158q-152 0 -260 108.5t-108 260.5v307q0 153 107.5 260.5t260.5 107.5h158l170 -114v114h205v-1103zM369 369q0 -68 48 -116
t115 -48h95l233 157v320l-233 158h-95q-67 0 -115 -48t-48 -116v-307z" />
    <glyph glyph-name="h" unicode="h" 
d="M164 1454h205v-524l170 114h157q153 0 261 -107.5t108 -260.5v-676h-205v676q0 68 -48 116t-116 48h-94l-233 -158v-682h-205v1454z" />
    <glyph glyph-name="i" unicode="i" 
d="M707 205h358v-205h-901v205h338v635h-338v204h543v-839zM481 1229v205h226v-205h-226z" />
    <glyph glyph-name="j" unicode="j" 
d="M1065 1044v-1103q0 -152 -108.5 -261.5t-260.5 -109.5h-164q-153 0 -260.5 109t-107.5 262v59h205v-59q0 -68 48 -116t115 -48h164q68 0 116 48.5t48 115.5v899h-440v204h645zM840 1229v205h225v-205h-225z" />
    <glyph glyph-name="k" unicode="k" 
d="M369 0h-205v1454h205v-829h190l264 419h242l-328 -522l328 -522h-242l-264 420h-190v-420z" />
    <glyph glyph-name="l" unicode="l" 
d="M707 205h358v-205h-901v205h338v1044h-338v205h543v-1249z" />
    <glyph glyph-name="m" unicode="m" 
d="M123 1044h205v-118l123 118h16q165 0 223 -145l150 145h16q250 0 250 -327v-717h-205v717q0 71 -4 94l-180 -172v-639h-205v717q0 71 -4 94l-180 -172v-639h-205v1044zM444 872h13h-13zM834 872h12h-12z" />
    <glyph glyph-name="n" unicode="n" 
d="M164 1044h205v-114l170 114h157q153 0 261 -107.5t108 -260.5v-676h-205v676q0 68 -48 116t-116 48h-94l-233 -158v-682h-205v1044z" />
    <glyph glyph-name="o" unicode="o" 
d="M696 205q69 0 116.5 46.5t47.5 115.5v309q0 69 -47.5 116.5t-116.5 47.5h-164q-69 0 -116 -47.5t-47 -116.5v-309q0 -69 47 -114.5t116 -47.5h164zM164 367v309q0 154 107 261t261 107h164q154 0 261.5 -107t107.5 -261v-309q0 -154 -107.5 -260.5t-261.5 -106.5h-164
q-154 0 -261 106.5t-107 260.5z" />
    <glyph glyph-name="p" unicode="p" 
d="M164 -430v1474h205v-114l170 114h157q152 0 260.5 -108t108.5 -260v-307q0 -153 -108 -261t-261 -108h-157l-170 115v-545h-205zM369 362l233 -157h94q68 0 116 48.5t48 115.5v307q0 68 -48 116t-116 48h-94l-233 -158v-320z" />
    <glyph glyph-name="q" unicode="q" 
d="M1065 -430h-205v545l-170 -115h-158q-152 0 -260 108t-108 261v307q0 152 108 260t260 108h158l170 -114v114h205v-1474zM369 369q0 -68 48 -116t115 -48h95l233 157v320l-233 158h-95q-67 0 -115 -48t-48 -116v-307z" />
    <glyph glyph-name="r" unicode="r" 
d="M164 1044h205v-163l243 163h84q153 0 261 -107.5t108 -260.5v-82h-205v82q0 68 -48 116t-116 48h-20l-307 -207v-633h-205v1044z" />
    <glyph glyph-name="s" unicode="s" 
d="M164 344h205v-41q0 -44 38 -71t103 -27h207q70 0 106.5 22.5t36.5 61.5q0 46 -37.5 77.5t-98 49.5t-133 33t-145 37t-133 53.5t-98 89.5t-37.5 139q0 124 90.5 200t237.5 76h196q138 0 233 -88t95 -217v-18h-205v18q0 43 -34.5 72t-88.5 29h-196q-123 0 -123 -72
q0 -29 29.5 -51t77.5 -35t109 -28.5t125 -30.5t125 -42.5t109 -63.5t77.5 -94.5t29.5 -133.5q0 -129 -96.5 -209t-251.5 -80h-207q-149 0 -247.5 86t-98.5 217v41z" />
    <glyph glyph-name="t" unicode="t" 
d="M850 0q-154 0 -261.5 107.5t-107.5 261.5v471h-317v204h317v267h205v-267h379v-204h-379v-471q0 -69 47.5 -116.5t116.5 -47.5h215v-205h-215z" />
    <glyph glyph-name="u" unicode="u" 
d="M1065 0h-205v115l-170 -115h-158q-152 0 -260 108t-108 261v675h205v-675q0 -68 48 -116t115 -48h95l233 157v682h205v-1044z" />
    <glyph glyph-name="v" unicode="v" 
d="M860 1044h205v-471l-348 -573h-205l-348 573v471h205v-413l243 -402h4l244 402v413z" />
    <glyph glyph-name="w" unicode="w" 
d="M698 860l125 -473l37 248v409h205v-471l-123 -573h-164l-164 489l-163 -489h-164l-123 573v471h205v-409l37 -248l124 473h168z" />
    <glyph glyph-name="x" unicode="x" 
d="M1065 0h-242l-209 332l-208 -332h-242l330 522l-330 522h242l208 -331l209 331h242l-330 -522z" />
    <glyph glyph-name="y" unicode="y" 
d="M524 -430h-219l189 512l-330 962h217l223 -657l242 657h219z" />
    <glyph glyph-name="z" unicode="z" 
d="M164 1044h901v-204l-616 -635h616v-205h-901v205l616 635h-616v204z" />
    <glyph glyph-name="braceleft" unicode="{" 
d="M328 819q69 0 116.5 47.5t47.5 116.5v287q0 154 107 261t261 107h41v-204h-41q-69 0 -116.5 -47.5t-47.5 -116.5v-287q0 -157 -112 -266q112 -109 112 -266v-287q0 -69 47.5 -116.5t116.5 -47.5h41v-205h-41q-154 0 -261 107.5t-107 261.5v287q0 69 -47.5 116t-116.5 47
v205z" />
    <glyph glyph-name="bar" unicode="|" 
d="M717 1638v-1843h-205v1843h205z" />
    <glyph glyph-name="braceright" unicode="}" horiz-adv-x="1310" 
d="M942 614q-69 0 -116.5 -47t-47.5 -116v-287q0 -154 -107 -261.5t-261 -107.5h-41v205h41q69 0 116 47.5t47 116.5v287q0 156 113 266q-113 110 -113 266v287q0 69 -47 116.5t-116 47.5h-41v204h41q154 0 261 -107t107 -261v-287q0 -69 47.5 -116.5t116.5 -47.5v-205z" />
    <glyph glyph-name="asciitilde" unicode="~" 
d="M160 530q38 111 115.5 161t203.5 46l223 -94q37 1 53.5 15.5t30.5 52.5l193 -66q-38 -110 -116 -160.5t-204 -46.5l-223 94q-37 -1 -53.5 -15t-30.5 -52z" />
    <glyph glyph-name="exclamdown" unicode="&#xa1;" 
d="M512 -389v754l41 223h123l41 -223v-754h-205zM502 840v204h225v-204h-225z" />
    <glyph glyph-name="cent" unicode="&#xa2;" 
d="M512 1249h205v-205q147 -8 247.5 -113.5t100.5 -254.5v-21h-205v21q0 64 -40.5 110t-102.5 52v-629q61 8 102 54t41 108v20h205v-20q0 -148 -101 -255t-247 -116v-205h-205v205q-145 9 -246.5 116.5t-101.5 254.5v305q0 148 101 254t247 114v205zM369 371q0 -62 41 -108
t102 -54v629q-61 -6 -102 -52.5t-41 -109.5v-305z" />
    <glyph glyph-name="sterling" unicode="&#xa3;" 
d="M287 205q69 0 116.5 47.5t47.5 116.5v125h-226v204h226v367q0 154 107 261.5t261 107.5h246v-205h-246q-69 0 -116.5 -47.5t-47.5 -116.5v-367h297v-204h-297v-125q0 -85 -37 -164h447v-205h-901v205h123z" />
    <glyph glyph-name="currency" unicode="&#xa4;" 
d="M528 522q35 -35 86 -35t86 35t35 86t-35 86t-86 35t-86 -35t-35 -86t35 -86zM211 348l113 115q-35 67 -35 145t35 146l-113 114l143 144l115 -113q67 35 145 35t146 -35l114 113l144 -144l-113 -114q35 -68 35 -146t-35 -145l113 -115l-144 -143l-114 112
q-68 -35 -146 -35t-145 35l-115 -112z" />
    <glyph glyph-name="yen" unicode="&#xa5;" 
d="M252 647h149l-237 295v492h205v-418l241 -301h4l246 321v398h205v-467l-244 -320h158v-205h-262v-102h262v-205h-262v-135h-205v135h-260v205h260v102h-260v205z" />
    <glyph glyph-name="brokenbar" unicode="&#xa6;" 
d="M717 424v-629h-205v629h205zM512 1010v628h205v-628h-205z" />
    <glyph glyph-name="section" unicode="&#xa7;" 
 />
    <glyph glyph-name="dieresis" unicode="&#xa8;" 
d="M317 1434h226v-205h-226v205zM686 1229v205h225v-205h-225z" />
    <glyph glyph-name="copyright" unicode="&#xa9;" 
d="M707 575v3h143v-3q0 -106 -68 -177.5t-168 -71.5q-101 0 -168 71.5t-67 177.5v107q0 106 67 178t168 72q100 0 168 -72t68 -178v-2h-143v2q0 47 -26.5 76.5t-66.5 29.5t-66 -29.5t-26 -76.5v-107q0 -47 26 -76.5t66 -29.5t66.5 29.5t26.5 76.5zM123 457v342
q0 199 137 327.5t354 128.5t353.5 -128.5t136.5 -327.5v-342q0 -199 -136.5 -328t-353.5 -129q-218 0 -354.5 128.5t-136.5 328.5zM266 457q0 -138 93.5 -226t254.5 -88q160 0 253.5 88t93.5 226v342q0 138 -93.5 225.5t-253.5 87.5t-254 -87.5t-94 -225.5v-342z" />
    <glyph glyph-name="guillemotleft" unicode="&#xab;" 
d="M1106 152h-117l-315 268v205l315 268h117v-205h-41l-193 -164v-4l193 -164h41v-204zM123 420v205l409 348h185v-205h-109l-286 -244v-4l286 -244h109v-204h-185z" />
    <glyph glyph-name="logicalnot" unicode="&#xac;" 
d="M246 649h737v-395h-205v190h-532v205z" />
    <glyph glyph-name="registered" unicode="&#xae;" 
d="M428 1165h205q83 0 140.5 -56.5t57.5 -139.5q0 -98 -79 -158l73 -119h-168l-49 80h-37v-80h-143v473zM78 918q0 146 71.5 269.5t195 195t269.5 71.5t269.5 -71.5t195.5 -195t72 -269.5t-72 -269.5t-195.5 -195.5t-269.5 -72t-269.5 72t-195 195.5t-71.5 269.5zM221 918
q0 -163 114.5 -278.5t278.5 -115.5q163 0 278.5 115.5t115.5 278.5t-115.5 278t-278.5 115q-164 0 -278.5 -115t-114.5 -278zM571 915h62q23 0 39 16t16 38q0 23 -16 38t-39 15h-62v-107z" />
    <glyph glyph-name="macron" unicode="&#xaf;" 
d="M246 1434h737v-205h-737v205z" />
    <glyph glyph-name="degree" unicode="&#xb0;" 
d="M614 909q-114 0 -193 79.5t-79 193.5t79 193t193 79q113 0 192 -79t79 -193t-79 -193.5t-192 -79.5zM547 1182q0 -28 19.5 -48t47.5 -20t47 20t19 48t-19 47.5t-47 19.5t-47.5 -19.5t-19.5 -47.5z" />
    <glyph glyph-name="plusminus" unicode="&#xb1;" 
d="M246 942h266v266h205v-266h266v-205h-266v-266h-205v266h-266v205zM246 164v205h737v-205h-737z" />
    <glyph glyph-name="acute" unicode="&#xb4;" 
d="M772 1540h279l-328 -311h-238z" />
    <glyph glyph-name="paragraph" unicode="&#xb6;" 
d="M123 1065q0 154 107.5 261.5t261.5 107.5h307v-1434h-205v573h-102q-154 0 -261.5 107.5t-107.5 261.5v123zM901 0v1434h205v-1434h-205z" />
    <glyph glyph-name="periodcentered" unicode="&#xb7;" 
d="M502 778h225v-205h-225v205z" />
    <glyph glyph-name="cedilla" unicode="&#xb8;" 
d="M516 0v68h205v-68l-8 -49h18q106 0 182 -77.5t76 -186.5q0 -106 -76 -183t-182 -77h-233v204h233q20 0 36.5 17t16.5 39q0 25 -15.5 42t-37.5 17h-156l-88 166z" />
    <glyph glyph-name="guillemotright" unicode="&#xbb;" 
d="M123 152v204h41l192 164v4l-192 164h-41v205h117l315 -268v-205l-315 -268h-117zM512 72v204h109l286 244v4l-286 244h-109v205h184l410 -348v-205l-410 -348h-184z" />
    <glyph glyph-name="questiondown" unicode="&#xbf;" 
d="M717 588v-242l-348 -219v-147q0 -69 47 -116.5t116 -47.5h164q68 0 116 48t48 116v71h205v-71q0 -153 -108 -261t-261 -108h-164q-154 0 -261 107.5t-107 261.5v260l348 219v129h205zM502 840v204h225v-204h-225z" />
    <glyph glyph-name="Agrave" unicode="&#xc0;" 
d="M369 0h-205v471l348 963h205l348 -963v-471h-205v332h-491v-332zM106 1929h279l287 -311h-238zM406 537h417l-207 573h-4z" />
    <glyph glyph-name="Aacute" unicode="&#xc1;" 
d="M369 0h-205v471l348 963h205l348 -963v-471h-205v332h-491v-332zM406 537h417l-207 573h-4zM516 1618l287 311h278l-327 -311h-238z" />
    <glyph glyph-name="Acircumflex" unicode="&#xc2;" 
d="M369 0h-205v471l348 963h205l348 -963v-471h-205v332h-491v-332zM240 1618l266 311h217l266 -311h-237l-138 141l-137 -141h-237zM406 537h417l-207 573h-4z" />
    <glyph glyph-name="Atilde" unicode="&#xc3;" 
d="M369 0h-205v471l348 963h205l348 -963v-471h-205v332h-491v-332zM250 1657q38 111 115.5 161t203.5 46l224 -95q37 1 53.5 15.5t30.5 52.5l192 -65q-38 -111 -115.5 -161t-203.5 -46l-224 94q-37 -1 -53.5 -15.5t-30.5 -52.5zM406 537h417l-207 573h-4z" />
    <glyph glyph-name="Adieresis" unicode="&#xc4;" 
d="M369 0h-205v471l348 963h205l348 -963v-471h-205v332h-491v-332zM317 1618v205h226v-205h-226zM406 537h417l-207 573h-4zM686 1618v205h225v-205h-225z" />
    <glyph glyph-name="Aring" unicode="&#xc5;" 
d="M369 0h-205v471l348 963h205l348 -963v-471h-205v332h-491v-332zM354 1876q0 107 75.5 182.5t184.5 75.5q106 0 182 -75.5t76 -182.5q0 -106 -76 -182t-182 -76q-109 0 -184.5 75.5t-75.5 182.5zM406 537h417l-207 573h-4zM559 1876q0 -22 15.5 -37.5t39.5 -15.5
q22 0 38 15.5t16 37.5q0 23 -16 38t-38 15q-25 0 -40 -15t-15 -38z" />
    <glyph glyph-name="AE" unicode="&#xc6;" 
d="M1167 1434v-205h-370v-375h329v-205h-329v-444h370v-205h-575v332h-326v-332h-205v471l349 963h757zM303 537h289v573h-82z" />
    <glyph glyph-name="Ccedilla" unicode="&#xc7;" 
d="M860 1065q0 69 -47.5 116.5t-116.5 47.5h-164q-69 0 -116 -48t-47 -116v-694q0 -68 48 -116t115 -48h164q68 0 116 48.5t48 115.5v112h205v-112q0 -146 -99.5 -253t-244.5 -118l-8 -49h18q106 0 182 -77.5t76 -186.5q0 -106 -76 -183t-182 -77h-233v204h233q20 0 36.5 17
t16.5 39q0 25 -15.5 42t-37.5 17h-156l-88 166l29 88q-146 6 -249 114.5t-103 256.5v694q0 153 108 261t260 108h164q154 0 261.5 -107.5t107.5 -261.5v-113h-205v113z" />
    <glyph glyph-name="Egrave" unicode="&#xc8;" 
d="M1065 1434v-205h-696v-375h614v-205h-614v-444h696v-205h-901v1434h901zM106 1929h279l287 -311h-238z" />
    <glyph glyph-name="Eacute" unicode="&#xc9;" 
d="M1065 1434v-205h-696v-375h614v-205h-614v-444h696v-205h-901v1434h901zM516 1618l287 311h278l-327 -311h-238z" />
    <glyph glyph-name="Ecircumflex" unicode="&#xca;" 
d="M1065 1434v-205h-696v-375h614v-205h-614v-444h696v-205h-901v1434h901zM240 1618l266 311h217l266 -311h-237l-138 141l-137 -141h-237z" />
    <glyph glyph-name="Edieresis" unicode="&#xcb;" 
d="M1065 1434v-205h-696v-375h614v-205h-614v-444h696v-205h-901v1434h901zM317 1618v205h226v-205h-226zM686 1618v205h225v-205h-225z" />
    <glyph glyph-name="Igrave" unicode="&#xcc;" 
d="M164 1434h901v-205h-348v-1024h348v-205h-901v205h348v1024h-348v205zM106 1929h279l287 -311h-238z" />
    <glyph glyph-name="Iacute" unicode="&#xcd;" 
d="M164 1434h901v-205h-348v-1024h348v-205h-901v205h348v1024h-348v205zM516 1618l287 311h278l-327 -311h-238z" />
    <glyph glyph-name="Icircumflex" unicode="&#xce;" 
d="M164 1434h901v-205h-348v-1024h348v-205h-901v205h348v1024h-348v205zM240 1618l266 311h217l266 -311h-237l-138 141l-137 -141h-237z" />
    <glyph glyph-name="Idieresis" unicode="&#xcf;" 
d="M164 1434h901v-205h-348v-1024h348v-205h-901v205h348v1024h-348v205zM317 1618v205h226v-205h-226zM686 1618v205h225v-205h-225z" />
    <glyph glyph-name="Eth" unicode="&#xd0;" 
d="M41 905h123v529h532q153 0 261 -108t108 -261v-694q0 -152 -108.5 -261.5t-260.5 -109.5h-532v700h-123v205zM369 207h327q68 0 116 48.5t48 115.5v694q0 68 -47.5 116t-116.5 48h-327v-324h266v-205h-266v-493z" />
    <glyph glyph-name="Ntilde" unicode="&#xd1;" 
d="M860 1434h205v-1434h-297l-399 1090v-1090h-205v1434h297l399 -1090v1090zM250 1657q38 111 115.5 161t203.5 46l224 -95q37 1 53.5 15.5t30.5 52.5l192 -65q-38 -111 -115.5 -161t-203.5 -46l-224 94q-37 -1 -53.5 -15.5t-30.5 -52.5z" />
    <glyph glyph-name="Ograve" unicode="&#xd2;" 
d="M696 207q68 0 116 48.5t48 115.5v694q0 69 -47.5 116.5t-116.5 47.5h-164q-69 0 -116 -48t-47 -116v-694q0 -68 48 -116t115 -48h164zM106 1929h279l287 -311h-238zM164 371v694q0 153 108 261t260 108h164q154 0 261.5 -107.5t107.5 -261.5v-694q0 -153 -108 -262
t-261 -109h-164q-152 0 -260 109t-108 262z" />
    <glyph glyph-name="Oacute" unicode="&#xd3;" 
d="M696 207q68 0 116 48.5t48 115.5v694q0 69 -47.5 116.5t-116.5 47.5h-164q-69 0 -116 -48t-47 -116v-694q0 -68 48 -116t115 -48h164zM164 371v694q0 153 108 261t260 108h164q154 0 261.5 -107.5t107.5 -261.5v-694q0 -153 -108 -262t-261 -109h-164q-152 0 -260 109
t-108 262zM516 1618l287 311h278l-327 -311h-238z" />
    <glyph glyph-name="Ocircumflex" unicode="&#xd4;" 
d="M696 207q68 0 116 48.5t48 115.5v694q0 69 -47.5 116.5t-116.5 47.5h-164q-69 0 -116 -48t-47 -116v-694q0 -68 48 -116t115 -48h164zM164 371v694q0 153 108 261t260 108h164q154 0 261.5 -107.5t107.5 -261.5v-694q0 -153 -108 -262t-261 -109h-164q-152 0 -260 109
t-108 262zM240 1618l266 311h217l266 -311h-237l-138 141l-137 -141h-237z" />
    <glyph glyph-name="Otilde" unicode="&#xd5;" 
d="M696 207q68 0 116 48.5t48 115.5v694q0 69 -47.5 116.5t-116.5 47.5h-164q-69 0 -116 -48t-47 -116v-694q0 -68 48 -116t115 -48h164zM164 371v694q0 153 108 261t260 108h164q154 0 261.5 -107.5t107.5 -261.5v-694q0 -153 -108 -262t-261 -109h-164q-152 0 -260 109
t-108 262zM250 1657q38 111 115.5 161t203.5 46l224 -95q37 1 53.5 15.5t30.5 52.5l192 -65q-38 -111 -115.5 -161t-203.5 -46l-224 94q-37 -1 -53.5 -15.5t-30.5 -52.5z" />
    <glyph glyph-name="Odieresis" unicode="&#xd6;" 
d="M696 207q68 0 116 48.5t48 115.5v694q0 69 -47.5 116.5t-116.5 47.5h-164q-69 0 -116 -48t-47 -116v-694q0 -68 48 -116t115 -48h164zM164 371v694q0 153 108 261t260 108h164q154 0 261.5 -107.5t107.5 -261.5v-694q0 -153 -108 -262t-261 -109h-164q-152 0 -260 109
t-108 262zM317 1618v205h226v-205h-226zM686 1618v205h225v-205h-225z" />
    <glyph glyph-name="multiply" unicode="&#xd7;" 
d="M426 883l188 -189l189 189l145 -144l-188 -188l188 -189l-145 -145l-189 189l-188 -189l-145 145l188 189l-188 188z" />
    <glyph glyph-name="Oslash" unicode="&#xd8;" 
d="M696 207q68 0 116 48.5t48 115.5v694v14l-328 -872h164zM156 -215l120 321q-112 109 -112 265v694q0 153 108 261t260 108h164q40 0 74 -9l84 224h219l-119 -320q111 -108 111 -264v-694q0 -153 -108 -262t-261 -109h-164q-42 0 -73 8l-84 -223h-219zM369 371v-17
l327 875h-164q-69 0 -116 -48t-47 -116v-694z" />
    <glyph glyph-name="Ugrave" unicode="&#xd9;" 
d="M1065 371q0 -152 -108.5 -261.5t-260.5 -109.5h-164q-153 0 -260.5 109t-107.5 262v1063h205v-1063q0 -68 48 -116t115 -48h164q68 0 116 48.5t48 115.5v1063h205v-1063zM106 1929h279l287 -311h-238z" />
    <glyph glyph-name="Uacute" unicode="&#xda;" 
d="M1065 371q0 -152 -108.5 -261.5t-260.5 -109.5h-164q-153 0 -260.5 109t-107.5 262v1063h205v-1063q0 -68 48 -116t115 -48h164q68 0 116 48.5t48 115.5v1063h205v-1063zM516 1618l287 311h278l-327 -311h-238z" />
    <glyph glyph-name="Ucircumflex" unicode="&#xdb;" 
d="M1065 371q0 -152 -108.5 -261.5t-260.5 -109.5h-164q-153 0 -260.5 109t-107.5 262v1063h205v-1063q0 -68 48 -116t115 -48h164q68 0 116 48.5t48 115.5v1063h205v-1063zM240 1618l266 311h217l266 -311h-237l-138 141l-137 -141h-237z" />
    <glyph glyph-name="Udieresis" unicode="&#xdc;" 
d="M1065 371q0 -152 -108.5 -261.5t-260.5 -109.5h-164q-153 0 -260.5 109t-107.5 262v1063h205v-1063q0 -68 48 -116t115 -48h164q68 0 116 48.5t48 115.5v1063h205v-1063zM317 1618v205h226v-205h-226zM686 1618v205h225v-205h-225z" />
    <glyph glyph-name="Yacute" unicode="&#xdd;" 
d="M512 0v510l-348 432v492h205v-418l241 -301h4l246 321v398h205v-467l-348 -457v-510h-205zM516 1618l287 311h278l-327 -311h-238z" />
    <glyph glyph-name="Thorn" unicode="&#xde;" 
d="M1065 676q0 -154 -107.5 -261.5t-261.5 -107.5h-327v-307h-205v1434h205v-267h327q154 0 261.5 -107t107.5 -261v-123zM369 512h327q69 0 116.5 47.5t47.5 116.5v123q0 69 -47.5 116.5t-116.5 47.5h-327v-451z" />
    <glyph glyph-name="germandbls" unicode="&#xdf;" 
d="M963 983q0 -121 -72 -219q80 -51 127 -133t47 -180v-82q0 -154 -107.5 -261.5t-261.5 -107.5h-164v205h164q69 0 116.5 47.5t47.5 116.5v82q0 69 -47.5 116t-116.5 47h-164v205h62q69 0 116.5 47.5t47.5 116.5v82q0 69 -47.5 116.5t-116.5 47.5h-62q-67 0 -115 -48
t-48 -116v-1065h-205v1065q0 153 108 261t260 108h62q154 0 261.5 -107.5t107.5 -261.5v-82z" />
    <glyph glyph-name="agrave" unicode="&#xe0;" 
d="M1065 1044v-1044h-205v115l-170 -115h-158q-152 0 -260 108.5t-108 260.5v307q0 153 107.5 260.5t260.5 107.5h158l170 -114v114h205zM147 1540h279l287 -311h-238zM369 369q0 -68 48 -116t115 -48h95l233 157v320l-233 158h-95q-67 0 -115 -48t-48 -116v-307z" />
    <glyph glyph-name="aacute" unicode="&#xe1;" 
d="M1065 1044v-1044h-205v115l-170 -115h-158q-152 0 -260 108.5t-108 260.5v307q0 153 107.5 260.5t260.5 107.5h158l170 -114v114h205zM369 369q0 -68 48 -116t115 -48h95l233 157v320l-233 158h-95q-67 0 -115 -48t-48 -116v-307zM557 1229l287 311h278l-327 -311h-238z
" />
    <glyph glyph-name="acircumflex" unicode="&#xe2;" 
d="M1065 1044v-1044h-205v115l-170 -115h-158q-152 0 -260 108.5t-108 260.5v307q0 153 107.5 260.5t260.5 107.5h158l170 -114v114h205zM281 1229l266 311h217l266 -311h-237l-138 141l-137 -141h-237zM369 369q0 -68 48 -116t115 -48h95l233 157v320l-233 158h-95
q-67 0 -115 -48t-48 -116v-307z" />
    <glyph glyph-name="atilde" unicode="&#xe3;" 
d="M1065 1044v-1044h-205v115l-170 -115h-158q-152 0 -260 108.5t-108 260.5v307q0 153 107.5 260.5t260.5 107.5h158l170 -114v114h205zM291 1268q38 111 115.5 161t203.5 46l224 -95q37 1 53.5 15.5t30.5 52.5l192 -66q-38 -110 -115.5 -160t-203.5 -46l-224 94
q-37 -1 -53.5 -15.5t-30.5 -52.5zM369 369q0 -68 48 -116t115 -48h95l233 157v320l-233 158h-95q-67 0 -115 -48t-48 -116v-307z" />
    <glyph glyph-name="adieresis" unicode="&#xe4;" 
d="M1065 1044v-1044h-205v115l-170 -115h-158q-152 0 -260 108.5t-108 260.5v307q0 153 107.5 260.5t260.5 107.5h158l170 -114v114h205zM358 1229v205h226v-205h-226zM369 369q0 -68 48 -116t115 -48h95l233 157v320l-233 158h-95q-67 0 -115 -48t-48 -116v-307zM727 1229
v205h225v-205h-225z" />
    <glyph glyph-name="aring" unicode="&#xe5;" 
d="M1065 1044v-1044h-205v115l-170 -115h-158q-152 0 -260 108.5t-108 260.5v307q0 153 107.5 260.5t260.5 107.5h158l170 -114v114h205zM369 369q0 -68 48 -116t115 -48h95l233 157v320l-233 158h-95q-67 0 -115 -48t-48 -116v-307zM395 1487q0 107 75.5 182.5t184.5 75.5
q106 0 182 -75.5t76 -182.5q0 -106 -76 -182t-182 -76q-109 0 -184.5 75.5t-75.5 182.5zM600 1487q0 -22 15.5 -37.5t39.5 -15.5q22 0 38 15.5t16 37.5q0 23 -16 38t-38 15q-25 0 -40 -15t-15 -38z" />
    <glyph glyph-name="ae" unicode="&#xe6;" 
d="M717 1044v-26q63 26 133 26q153 0 245.5 -106.5t92.5 -261.5v-201h-471v-104q0 -71 34 -117.5t99 -46.5t99 46.5t34 117.5h205q0 -156 -94 -263.5t-244 -107.5q-67 0 -133 27v-27h-205v68l-109 -68h-55q-140 0 -223.5 95t-83.5 274v307q0 180 83 274t224 94h55l109 -67
v67h205zM246 369q0 -164 86 -164h12l168 106v422l-168 107h-12q-86 0 -86 -164v-307zM717 639h266v37q0 73 -33.5 118.5t-99.5 45.5t-99.5 -46t-33.5 -118v-37z" />
    <glyph glyph-name="ccedilla" unicode="&#xe7;" 
d="M860 676q0 69 -47.5 116.5t-116.5 47.5h-164q-69 0 -116 -48t-47 -116v-305q0 -68 48 -116t115 -48h164q68 0 116 48.5t48 115.5v20h205v-20q0 -146 -99.5 -253t-244.5 -118l-8 -49h18q106 0 182 -77.5t76 -186.5q0 -106 -76 -183t-182 -77h-233v204h233q20 0 36.5 17
t16.5 39q0 25 -15.5 42t-37.5 17h-156l-88 166l29 88q-146 6 -249 114.5t-103 256.5v305q0 153 107.5 260.5t260.5 107.5h164q154 0 261.5 -107t107.5 -261v-21h-205v21z" />
    <glyph glyph-name="egrave" unicode="&#xe8;" 
d="M1065 696v-221h-696v-104q0 -68 48 -116t115 -48h164q68 0 116 48.5t48 115.5v20h205v-20q0 -153 -108 -262t-261 -109h-164q-152 0 -260 109t-108 262v305q0 153 107.5 260.5t260.5 107.5h164q149 0 255 -100.5t114 -247.5zM178 1540h279l286 -311h-237zM369 639h491v37
q0 69 -47.5 116.5t-116.5 47.5h-164q-69 0 -116 -48t-47 -116v-37z" />
    <glyph glyph-name="eacute" unicode="&#xe9;" 
d="M1065 696v-221h-696v-104q0 -68 48 -116t115 -48h164q68 0 116 48.5t48 115.5v20h205v-20q0 -153 -108 -262t-261 -109h-164q-152 0 -260 109t-108 262v305q0 153 107.5 260.5t260.5 107.5h164q149 0 255 -100.5t114 -247.5zM369 639h491v37q0 69 -47.5 116.5
t-116.5 47.5h-164q-69 0 -116 -48t-47 -116v-37zM485 1229l287 311h279l-328 -311h-238z" />
    <glyph glyph-name="ecircumflex" unicode="&#xea;" 
d="M1065 696v-221h-696v-104q0 -68 48 -116t115 -48h164q68 0 116 48.5t48 115.5v20h205v-20q0 -153 -108 -262t-261 -109h-164q-152 0 -260 109t-108 262v305q0 153 107.5 260.5t260.5 107.5h164q149 0 255 -100.5t114 -247.5zM240 1229l266 311h217l266 -311h-237
l-138 141l-137 -141h-237zM369 639h491v37q0 69 -47.5 116.5t-116.5 47.5h-164q-69 0 -116 -48t-47 -116v-37z" />
    <glyph glyph-name="edieresis" unicode="&#xeb;" 
d="M1065 696v-221h-696v-104q0 -68 48 -116t115 -48h164q68 0 116 48.5t48 115.5v20h205v-20q0 -153 -108 -262t-261 -109h-164q-152 0 -260 109t-108 262v305q0 153 107.5 260.5t260.5 107.5h164q149 0 255 -100.5t114 -247.5zM317 1229v205h226v-205h-226zM369 639h491v37
q0 69 -47.5 116.5t-116.5 47.5h-164q-69 0 -116 -48t-47 -116v-37zM686 1229v205h225v-205h-225z" />
    <glyph glyph-name="igrave" unicode="&#xec;" 
d="M707 205h358v-205h-901v205h338v635h-338v204h543v-839zM106 1540h279l287 -311h-238z" />
    <glyph glyph-name="iacute" unicode="&#xed;" 
d="M707 205h358v-205h-901v205h338v635h-338v204h543v-839zM516 1229l287 311h278l-327 -311h-238z" />
    <glyph glyph-name="icircumflex" unicode="&#xee;" 
d="M707 205h358v-205h-901v205h338v635h-338v204h543v-839zM240 1229l266 311h217l266 -311h-237l-138 141l-137 -141h-237z" />
    <glyph glyph-name="idieresis" unicode="&#xef;" 
d="M707 205h358v-205h-901v205h338v635h-338v204h543v-839zM317 1229v205h226v-205h-226zM686 1229v205h225v-205h-225z" />
    <glyph glyph-name="ntilde" unicode="&#xf1;" 
d="M164 1044h205v-114l170 114h157q153 0 261 -107.5t108 -260.5v-676h-205v676q0 68 -48 116t-116 48h-94l-233 -158v-682h-205v1044zM205 1268q38 111 115.5 161t203.5 46l224 -95q37 1 53 15.5t30 52.5l193 -66q-38 -110 -115.5 -160t-203.5 -46l-224 94
q-37 -1 -53.5 -15.5t-30.5 -52.5z" />
    <glyph glyph-name="ograve" unicode="&#xf2;" 
d="M696 205q69 0 116.5 46.5t47.5 115.5v309q0 69 -47.5 116.5t-116.5 47.5h-164q-69 0 -116 -47.5t-47 -116.5v-309q0 -69 47 -114.5t116 -47.5h164zM164 367v309q0 154 107 261t261 107h164q154 0 261.5 -107t107.5 -261v-309q0 -154 -107.5 -260.5t-261.5 -106.5h-164
q-154 0 -261 106.5t-107 260.5zM178 1540h279l286 -311h-237z" />
    <glyph glyph-name="oacute" unicode="&#xf3;" 
d="M696 205q69 0 116.5 46.5t47.5 115.5v309q0 69 -47.5 116.5t-116.5 47.5h-164q-69 0 -116 -47.5t-47 -116.5v-309q0 -69 47 -114.5t116 -47.5h164zM164 367v309q0 154 107 261t261 107h164q154 0 261.5 -107t107.5 -261v-309q0 -154 -107.5 -260.5t-261.5 -106.5h-164
q-154 0 -261 106.5t-107 260.5zM485 1229l287 311h279l-328 -311h-238z" />
    <glyph glyph-name="ocircumflex" unicode="&#xf4;" 
d="M696 205q69 0 116.5 46.5t47.5 115.5v309q0 69 -47.5 116.5t-116.5 47.5h-164q-69 0 -116 -47.5t-47 -116.5v-309q0 -69 47 -114.5t116 -47.5h164zM164 367v309q0 154 107 261t261 107h164q154 0 261.5 -107t107.5 -261v-309q0 -154 -107.5 -260.5t-261.5 -106.5h-164
q-154 0 -261 106.5t-107 260.5zM240 1229l266 311h217l266 -311h-237l-138 141l-137 -141h-237z" />
    <glyph glyph-name="otilde" unicode="&#xf5;" 
d="M696 205q69 0 116.5 46.5t47.5 115.5v309q0 69 -47.5 116.5t-116.5 47.5h-164q-69 0 -116 -47.5t-47 -116.5v-309q0 -69 47 -114.5t116 -47.5h164zM164 367v309q0 154 107 261t261 107h164q154 0 261.5 -107t107.5 -261v-309q0 -154 -107.5 -260.5t-261.5 -106.5h-164
q-154 0 -261 106.5t-107 260.5zM205 1268q38 111 115.5 161t203.5 46l224 -95q37 1 53 15.5t30 52.5l193 -66q-38 -110 -115.5 -160t-203.5 -46l-224 94q-37 -1 -53.5 -15.5t-30.5 -52.5z" />
    <glyph glyph-name="odieresis" unicode="&#xf6;" 
d="M696 205q69 0 116.5 46.5t47.5 115.5v309q0 69 -47.5 116.5t-116.5 47.5h-164q-69 0 -116 -47.5t-47 -116.5v-309q0 -69 47 -114.5t116 -47.5h164zM164 367v309q0 154 107 261t261 107h164q154 0 261.5 -107t107.5 -261v-309q0 -154 -107.5 -260.5t-261.5 -106.5h-164
q-154 0 -261 106.5t-107 260.5zM317 1229v205h226v-205h-226zM686 1229v205h225v-205h-225z" />
    <glyph glyph-name="divide" unicode="&#xf7;" 
d="M246 649h737v-205h-737v205zM502 117v205h225v-205h-225zM502 772v205h225v-205h-225z" />
    <glyph glyph-name="oslash" unicode="&#xf8;" 
d="M696 205q69 0 116.5 46.5t47.5 115.5v309q0 61 -39 106l-215 -577h90zM164 367v309q0 154 107 261t261 107h164h4l74 195h219l-94 -254q77 -51 121.5 -132t44.5 -177v-309q0 -154 -107.5 -260.5t-261.5 -106.5h-164h-2l-73 -195h-219l94 252q-77 51 -122.5 132.5
t-45.5 177.5zM369 367q0 -62 39 -107l217 580h-93q-69 0 -116 -47.5t-47 -116.5v-309z" />
    <glyph glyph-name="ugrave" unicode="&#xf9;" 
d="M1065 0h-205v115l-170 -115h-158q-152 0 -260 108t-108 261v675h205v-675q0 -68 48 -116t115 -48h95l233 157v682h205v-1044zM178 1540h279l286 -311h-237z" />
    <glyph glyph-name="uacute" unicode="&#xfa;" 
d="M1065 0h-205v115l-170 -115h-158q-152 0 -260 108t-108 261v675h205v-675q0 -68 48 -116t115 -48h95l233 157v682h205v-1044zM485 1229l287 311h279l-328 -311h-238z" />
    <glyph glyph-name="ucircumflex" unicode="&#xfb;" 
d="M1065 0h-205v115l-170 -115h-158q-152 0 -260 108t-108 261v675h205v-675q0 -68 48 -116t115 -48h95l233 157v682h205v-1044zM240 1229l266 311h217l266 -311h-237l-138 141l-137 -141h-237z" />
    <glyph glyph-name="udieresis" unicode="&#xfc;" 
d="M1065 0h-205v115l-170 -115h-158q-152 0 -260 108t-108 261v675h205v-675q0 -68 48 -116t115 -48h95l233 157v682h205v-1044zM317 1229v205h226v-205h-226zM686 1229v205h225v-205h-225z" />
    <glyph glyph-name="yacute" unicode="&#xfd;" 
d="M524 -430h-219l189 512l-330 962h217l223 -657l242 657h219zM485 1229l287 311h279l-328 -311h-238z" />
    <glyph glyph-name="thorn" unicode="&#xfe;" 
d="M164 -430v1884h205v-524l170 114h157q152 0 260.5 -108t108.5 -260v-307q0 -153 -108 -261t-261 -108h-157l-170 115v-545h-205zM369 362l233 -157h94q68 0 116 48.5t48 115.5v307q0 68 -48 116t-116 48h-94l-233 -158v-320z" />
    <glyph glyph-name="ydieresis" unicode="&#xff;" 
d="M524 -430h-219l189 512l-330 962h217l223 -657l242 657h219zM317 1229v205h226v-205h-226zM686 1229v205h225v-205h-225z" />
    <glyph glyph-name="Amacron" unicode="&#x100;" 
d="M369 0h-205v471l348 963h205l348 -963v-471h-205v332h-491v-332zM246 1618v205h737v-205h-737zM406 537h417l-207 573h-4z" />
    <glyph glyph-name="amacron" unicode="&#x101;" 
d="M1065 1044v-1044h-205v115l-170 -115h-158q-152 0 -260 108.5t-108 260.5v307q0 153 107.5 260.5t260.5 107.5h158l170 -114v114h205zM287 1229v205h737v-205h-737zM369 369q0 -68 48 -116t115 -48h95l233 157v320l-233 158h-95q-67 0 -115 -48t-48 -116v-307z" />
    <glyph glyph-name="Abreve" unicode="&#x102;" 
d="M369 0h-205v471l348 963h205l348 -963v-471h-205v332h-491v-332zM299 1933v2h205v-2q0 -46 32 -78t78 -32q44 0 76.5 32.5t32.5 77.5v2h205v-2q0 -130 -92.5 -222.5t-221.5 -92.5q-130 0 -222.5 92t-92.5 223zM406 537h417l-207 573h-4z" />
    <glyph glyph-name="abreve" unicode="&#x103;" 
d="M1065 1044v-1044h-205v115l-170 -115h-158q-152 0 -260 108.5t-108 260.5v307q0 153 107.5 260.5t260.5 107.5h158l170 -114v114h205zM340 1544v2h205v-2q0 -46 32 -78t78 -32q45 0 77 32t32 78v2h205v-2q0 -130 -92.5 -222.5t-221.5 -92.5q-131 0 -223 92.5t-92 222.5z
M369 369q0 -68 48 -116t115 -48h95l233 157v320l-233 158h-95q-67 0 -115 -48t-48 -116v-307z" />
    <glyph glyph-name="Aogonek" unicode="&#x104;" 
d="M369 0h-205v471l348 963h205l348 -963v-471q-65 -66 -92.5 -115.5t-24 -76.5t28.5 -44t52.5 -21.5t60.5 -4.5v-205h-132q-63 0 -113.5 23.5t-79.5 62t-39 89t0 101.5t44.5 102t89.5 89v332h-491v-332zM406 537h417l-207 573h-4z" />
    <glyph glyph-name="aogonek" unicode="&#x105;" 
d="M1065 1044v-1044q-65 -66 -92.5 -115.5t-24 -76.5t28.5 -44t52.5 -21.5t60.5 -4.5v-205h-132q-63 0 -113.5 23.5t-79.5 62t-39 89t0 101.5t44.5 102t89.5 89v115l-170 -115h-158q-152 0 -260 108.5t-108 260.5v307q0 153 107.5 260.5t260.5 107.5h158l170 -114v114h205z
M369 369q0 -68 48 -116t115 -48h95l233 157v320l-233 158h-95q-67 0 -115 -48t-48 -116v-307z" />
    <glyph glyph-name="Cacute" unicode="&#x106;" 
d="M860 1065q0 69 -47.5 116.5t-116.5 47.5h-164q-69 0 -116 -48t-47 -116v-694q0 -68 48 -116t115 -48h164q68 0 116 48.5t48 115.5v112h205v-112q0 -153 -108 -262t-261 -109h-164q-152 0 -260 109t-108 262v694q0 153 108 261t260 108h164q154 0 261.5 -107.5
t107.5 -261.5v-113h-205v113zM516 1618l287 311h278l-327 -311h-238z" />
    <glyph glyph-name="cacute" unicode="&#x107;" 
d="M860 676q0 69 -47.5 116.5t-116.5 47.5h-164q-69 0 -116 -48t-47 -116v-305q0 -68 48 -116t115 -48h164q68 0 116 48.5t48 115.5v20h205v-20q0 -153 -108 -262t-261 -109h-164q-152 0 -260 109t-108 262v305q0 153 107.5 260.5t260.5 107.5h164q154 0 261.5 -107
t107.5 -261v-21h-205v21zM516 1229l287 311h278l-327 -311h-238z" />
    <glyph glyph-name="Cdotaccent" unicode="&#x10a;" 
d="M860 1065q0 69 -47.5 116.5t-116.5 47.5h-164q-69 0 -116 -48t-47 -116v-694q0 -68 48 -116t115 -48h164q68 0 116 48.5t48 115.5v112h205v-112q0 -153 -108 -262t-261 -109h-164q-152 0 -260 109t-108 262v694q0 153 108 261t260 108h164q154 0 261.5 -107.5
t107.5 -261.5v-113h-205v113zM502 1618v205h225v-205h-225z" />
    <glyph glyph-name="cdotaccent" unicode="&#x10b;" 
d="M860 676q0 69 -47.5 116.5t-116.5 47.5h-164q-69 0 -116 -48t-47 -116v-305q0 -68 48 -116t115 -48h164q68 0 116 48.5t48 115.5v20h205v-20q0 -153 -108 -262t-261 -109h-164q-152 0 -260 109t-108 262v305q0 153 107.5 260.5t260.5 107.5h164q154 0 261.5 -107
t107.5 -261v-21h-205v21zM502 1229v205h225v-205h-225z" />
    <glyph glyph-name="Ccaron" unicode="&#x10c;" 
d="M860 1065q0 69 -47.5 116.5t-116.5 47.5h-164q-69 0 -116 -48t-47 -116v-694q0 -68 48 -116t115 -48h164q68 0 116 48.5t48 115.5v112h205v-112q0 -153 -108 -262t-261 -109h-164q-152 0 -260 109t-108 262v694q0 153 108 261t260 108h164q154 0 261.5 -107.5
t107.5 -261.5v-113h-205v113zM240 1929h237l137 -141l138 141h237l-266 -311h-217z" />
    <glyph glyph-name="ccaron" unicode="&#x10d;" 
d="M860 676q0 69 -47.5 116.5t-116.5 47.5h-164q-69 0 -116 -48t-47 -116v-305q0 -68 48 -116t115 -48h164q68 0 116 48.5t48 115.5v20h205v-20q0 -153 -108 -262t-261 -109h-164q-152 0 -260 109t-108 262v305q0 153 107.5 260.5t260.5 107.5h164q154 0 261.5 -107
t107.5 -261v-21h-205v21zM240 1540h237l137 -141l138 141h237l-266 -311h-217z" />
    <glyph glyph-name="Dcaron" unicode="&#x10e;" 
d="M696 1434q153 0 261 -108t108 -261v-694q0 -152 -108.5 -261.5t-260.5 -109.5h-532v1434h532zM199 1929h237l137 -141l138 141h237l-266 -311h-217zM369 207h327q68 0 116 48.5t48 115.5v694q0 68 -47.5 116t-116.5 48h-327v-1022z" />
    <glyph glyph-name="dcaron" unicode="&#x10f;" 
d="M1065 1454v-1454h-205v115l-170 -115h-158q-152 0 -260 108.5t-108 260.5v307q0 153 107.5 260.5t260.5 107.5h158l170 -114v524h205zM369 369q0 -68 48 -116t115 -48h95l233 157v320l-233 158h-95q-67 0 -115 -48t-48 -116v-307zM1229 1247v207h205v-207l-41 -223h-123z
" />
    <glyph glyph-name="Dcroat" unicode="&#x110;" 
d="M41 905h123v529h532q153 0 261 -108t108 -261v-694q0 -152 -108.5 -261.5t-260.5 -109.5h-532v700h-123v205zM369 207h327q68 0 116 48.5t48 115.5v694q0 68 -47.5 116t-116.5 48h-327v-324h266v-205h-266v-493z" />
    <glyph glyph-name="dcroat" unicode="&#x111;" 
d="M1065 1454v-98h102v-205h-102v-1151h-205v115l-170 -115h-158q-152 0 -260 108.5t-108 260.5v307q0 153 107.5 260.5t260.5 107.5h158l170 -114v221h-430v205h430v98h205zM369 369q0 -68 48 -116t115 -48h95l233 157v320l-233 158h-95q-67 0 -115 -48t-48 -116v-307z" />
    <glyph glyph-name="Emacron" unicode="&#x112;" 
d="M1065 1434v-205h-696v-375h614v-205h-614v-444h696v-205h-901v1434h901zM246 1599v205h737v-205h-737z" />
    <glyph glyph-name="emacron" unicode="&#x113;" 
d="M1065 696v-221h-696v-104q0 -68 48 -116t115 -48h164q68 0 116 48.5t48 115.5v20h205v-20q0 -153 -108 -262t-261 -109h-164q-152 0 -260 109t-108 262v305q0 153 107.5 260.5t260.5 107.5h164q149 0 255 -100.5t114 -247.5zM246 1229v205h737v-205h-737zM369 639h491v37
q0 69 -47.5 116.5t-116.5 47.5h-164q-69 0 -116 -48t-47 -116v-37z" />
    <glyph glyph-name="Edotaccent" unicode="&#x116;" 
d="M1065 1434v-205h-696v-375h614v-205h-614v-444h696v-205h-901v1434h901zM502 1618v205h225v-205h-225z" />
    <glyph glyph-name="edotaccent" unicode="&#x117;" 
d="M1065 696v-221h-696v-104q0 -68 48 -116t115 -48h164q68 0 116 48.5t48 115.5v20h205v-20q0 -153 -108 -262t-261 -109h-164q-152 0 -260 109t-108 262v305q0 153 107.5 260.5t260.5 107.5h164q149 0 255 -100.5t114 -247.5zM369 639h491v37q0 69 -47.5 116.5
t-116.5 47.5h-164q-69 0 -116 -48t-47 -116v-37zM502 1229v205h225v-205h-225z" />
    <glyph glyph-name="Eogonek" unicode="&#x118;" 
d="M1065 1434v-205h-696v-375h614v-205h-614v-444h696v-205h-293q-50 -57 -68.5 -99.5t-11.5 -66t32 -37.5t50.5 -18t56.5 -4v-205h-131q-71 0 -125 28.5t-80.5 76t-31.5 103t19.5 115t74.5 107.5h-393v1434h901z" />
    <glyph glyph-name="eogonek" unicode="&#x119;" 
d="M1065 696v-221h-696v-104q0 -68 48 -116t115 -48h164q68 0 116 48.5t48 115.5v20h205v-20q0 -129 -80 -230t-203 -131q-46 -50 -69 -89.5t-22.5 -64t11.5 -41.5t35 -25.5t46.5 -11.5t47.5 -3v-205h-131q-71 0 -125 28.5t-80.5 76t-31.5 103t19.5 115t74.5 107.5h-25
q-152 0 -260 109t-108 262v305q0 153 107.5 260.5t260.5 107.5h164q149 0 255 -100.5t114 -247.5zM369 639h491v37q0 69 -47.5 116.5t-116.5 47.5h-164q-69 0 -116 -48t-47 -116v-37z" />
    <glyph glyph-name="Ecaron" unicode="&#x11a;" 
d="M1065 1434v-205h-696v-375h614v-205h-614v-444h696v-205h-901v1434h901zM240 1929h237l137 -141l138 141h237l-266 -311h-217z" />
    <glyph glyph-name="ecaron" unicode="&#x11b;" 
d="M1065 696v-221h-696v-104q0 -68 48 -116t115 -48h164q68 0 116 48.5t48 115.5v20h205v-20q0 -153 -108 -262t-261 -109h-164q-152 0 -260 109t-108 262v305q0 153 107.5 260.5t260.5 107.5h164q149 0 255 -100.5t114 -247.5zM240 1540h237l137 -141l138 141h237
l-266 -311h-217zM369 639h491v37q0 69 -47.5 116.5t-116.5 47.5h-164q-69 0 -116 -48t-47 -116v-37z" />
    <glyph glyph-name="Gbreve" unicode="&#x11e;" 
d="M553 772h512v-401q0 -153 -108 -262t-261 -109h-164q-152 0 -260 109t-108 262v694q0 153 108 261t260 108h164q154 0 261.5 -107.5t107.5 -261.5v-113h-205v113q0 69 -47.5 116.5t-116.5 47.5h-164q-69 0 -116 -48t-47 -116v-694q0 -68 48 -116t115 -48h164
q68 0 116 48.5t48 115.5v196h-307v205zM299 1933v2h205v-2q0 -46 32 -78t78 -32q44 0 76.5 32.5t32.5 77.5v2h205v-2q0 -130 -92.5 -222.5t-221.5 -92.5q-130 0 -222.5 92t-92.5 223z" />
    <glyph glyph-name="gbreve" unicode="&#x11f;" 
d="M1065 -59q0 -153 -108 -262t-261 -109h-164q-152 0 -260 109t-108 262h205q0 -68 48 -116t115 -48h164q68 0 116 48.5t48 115.5v174l-170 -115h-158q-152 0 -260 108.5t-108 260.5v307q0 153 107.5 260.5t260.5 107.5h158l170 -114v114h205v-1103zM299 1544v2h205v-2
q0 -46 32 -78t78 -32q44 0 76.5 32t32.5 78v2h205v-2q0 -130 -92.5 -222.5t-221.5 -92.5q-130 0 -222.5 92.5t-92.5 222.5zM369 369q0 -68 48 -116t115 -48h95l233 157v320l-233 158h-95q-67 0 -115 -48t-48 -116v-307z" />
    <glyph glyph-name="Gdotaccent" unicode="&#x120;" 
d="M553 772h512v-401q0 -153 -108 -262t-261 -109h-164q-152 0 -260 109t-108 262v694q0 153 108 261t260 108h164q154 0 261.5 -107.5t107.5 -261.5v-113h-205v113q0 69 -47.5 116.5t-116.5 47.5h-164q-69 0 -116 -48t-47 -116v-694q0 -68 48 -116t115 -48h164
q68 0 116 48.5t48 115.5v196h-307v205zM502 1618v205h225v-205h-225z" />
    <glyph glyph-name="gdotaccent" unicode="&#x121;" 
d="M1065 -59q0 -153 -108 -262t-261 -109h-164q-152 0 -260 109t-108 262h205q0 -68 48 -116t115 -48h164q68 0 116 48.5t48 115.5v174l-170 -115h-158q-152 0 -260 108.5t-108 260.5v307q0 153 107.5 260.5t260.5 107.5h158l170 -114v114h205v-1103zM369 369q0 -68 48 -116
t115 -48h95l233 157v320l-233 158h-95q-67 0 -115 -48t-48 -116v-307zM502 1229v205h225v-205h-225z" />
    <glyph glyph-name="uni0122" unicode="&#x122;" 
d="M553 772h512v-401q0 -153 -108 -262t-261 -109h-164q-152 0 -260 109t-108 262v694q0 153 108 261t260 108h164q154 0 261.5 -107.5t107.5 -261.5v-113h-205v113q0 69 -47.5 116.5t-116.5 47.5h-164q-69 0 -116 -48t-47 -116v-694q0 -68 48 -116t115 -48h164
q68 0 116 48.5t48 115.5v196h-307v205zM383 -635l147 430h205l-49 -149l-213 -281h-90z" />
    <glyph glyph-name="uni0123" unicode="&#x123;" 
d="M1065 -59q0 -153 -108 -262t-261 -109h-164q-152 0 -260 109t-108 262h205q0 -68 48 -116t115 -48h164q68 0 116 48.5t48 115.5v174l-170 -115h-158q-152 0 -260 108.5t-108 260.5v307q0 153 107.5 260.5t260.5 107.5h158l170 -114v114h205v-1103zM369 369q0 -68 48 -116
t115 -48h95l233 157v320l-233 158h-95q-67 0 -115 -48t-48 -116v-307zM492 1229l49 149l213 281h90l-148 -430h-204z" />
    <glyph glyph-name="Hbar" unicode="&#x126;" 
d="M61 1249h103v185h205v-185h491v185h205v-185h102v-205h-102v-1044h-205v655h-491v-655h-205v1044h-103v205zM369 860h491v184h-491v-184z" />
    <glyph glyph-name="hbar" unicode="&#x127;" 
d="M164 1454h205v-98h430v-205h-430v-221l170 114h157q153 0 261 -107.5t108 -260.5v-676h-205v676q0 68 -48 116t-116 48h-94l-233 -158v-682h-205v1151h-103v205h103v98z" />
    <glyph glyph-name="Imacron" unicode="&#x12a;" 
d="M164 1434h901v-205h-348v-1024h348v-205h-901v205h348v1024h-348v205zM246 1602v204h737v-204h-737z" />
    <glyph glyph-name="imacron" unicode="&#x12b;" 
d="M707 205h358v-205h-901v205h338v635h-338v204h543v-839zM246 1229v205h737v-205h-737z" />
    <glyph glyph-name="Iogonek" unicode="&#x12e;" 
d="M164 1434h901v-205h-348v-1024h348v-205h-25q-65 -66 -92.5 -115.5t-24 -76.5t28.5 -44t52.5 -21.5t60.5 -4.5v-205h-131q-63 0 -113.5 23.5t-79.5 62t-39 89t0 101.5t44.5 102t89.5 89h-672v205h348v1024h-348v205z" />
    <glyph glyph-name="iogonek" unicode="&#x12f;" 
d="M707 205h358v-205h-293q-50 -57 -68.5 -99.5t-11.5 -66t32 -37.5t50.5 -18t56.5 -4v-205h-131q-71 0 -125 28.5t-80.5 76t-31.5 103t19.5 115t74.5 107.5h-393v205h338v635h-338v204h543v-839zM502 1229v205h225v-205h-225z" />
    <glyph glyph-name="Idotaccent" unicode="&#x130;" 
d="M164 1434h901v-205h-348v-1024h348v-205h-901v205h348v1024h-348v205zM502 1618v205h225v-205h-225z" />
    <glyph glyph-name="dotlessi" unicode="&#x131;" 
d="M707 205h358v-205h-901v205h338v635h-338v204h543v-839z" />
    <glyph glyph-name="uni0136" unicode="&#x136;" 
d="M369 0h-205v1434h205v-615h77l377 615h242l-440 -717l440 -717h-242l-377 614h-77v-614zM383 -635l147 430h205l-49 -149l-213 -281h-90z" />
    <glyph glyph-name="uni0137" unicode="&#x137;" 
d="M369 0h-205v1454h205v-829h190l264 419h242l-328 -522l328 -522h-242l-264 420h-190v-420zM383 -635l147 430h205l-49 -149l-213 -281h-90z" />
    <glyph glyph-name="Lacute" unicode="&#x139;" 
d="M369 1434v-1229h696v-205h-901v1434h205zM168 1618l287 311h278l-327 -311h-238z" />
    <glyph glyph-name="lacute" unicode="&#x13a;" 
d="M707 205h358v-205h-901v205h338v1044h-338v205h543v-1249zM485 1618l287 311h279l-328 -311h-238z" />
    <glyph glyph-name="uni013B" unicode="&#x13b;" 
d="M369 1434v-1229h696v-205h-901v1434h205zM383 -635l147 430h205l-49 -149l-213 -281h-90z" />
    <glyph glyph-name="uni013C" unicode="&#x13c;" 
d="M707 205h358v-205h-901v205h338v1044h-338v205h543v-1249zM383 -635l147 430h205l-49 -149l-213 -281h-90z" />
    <glyph glyph-name="Lcaron" unicode="&#x13d;" 
d="M369 1434v-1229h696v-205h-901v1434h205zM616 1024l148 430h205l-49 -149l-213 -281h-91z" />
    <glyph glyph-name="lcaron" unicode="&#x13e;" 
d="M707 205h358v-205h-901v205h338v1044h-338v205h543v-1249zM870 1247v207h205v-207l-41 -223h-123z" />
    <glyph glyph-name="Lslash" unicode="&#x141;" 
d="M756 797l-387 -144v-448h696v-205h-901v575l-123 -45l2 220l121 45v639h205v-564l387 146v-219z" />
    <glyph glyph-name="lslash" unicode="&#x142;" 
d="M973 797l-266 -99v-493h358v-205h-901v205h338v416l-244 -91l2 220l242 90v409h-338v205h543v-539l266 101v-219z" />
    <glyph glyph-name="Nacute" unicode="&#x143;" 
d="M860 1434h205v-1434h-297l-399 1090v-1090h-205v1434h297l399 -1090v1090zM516 1618l287 311h278l-327 -311h-238z" />
    <glyph glyph-name="nacute" unicode="&#x144;" 
d="M164 1044h205v-114l170 114h157q153 0 261 -107.5t108 -260.5v-676h-205v676q0 68 -48 116t-116 48h-94l-233 -158v-682h-205v1044zM516 1229l287 311h278l-327 -311h-238z" />
    <glyph glyph-name="uni0145" unicode="&#x145;" 
d="M860 1434h205v-1434h-297l-399 1090v-1090h-205v1434h297l399 -1090v1090zM383 -635l147 430h205l-49 -149l-213 -281h-90z" />
    <glyph glyph-name="uni0146" unicode="&#x146;" 
d="M164 1044h205v-114l170 114h157q153 0 261 -107.5t108 -260.5v-676h-205v676q0 68 -48 116t-116 48h-94l-233 -158v-682h-205v1044zM383 -635l147 430h205l-49 -149l-213 -281h-90z" />
    <glyph glyph-name="Ncaron" unicode="&#x147;" 
d="M860 1434h205v-1434h-297l-399 1090v-1090h-205v1434h297l399 -1090v1090zM240 1929h237l137 -141l138 141h237l-266 -311h-217z" />
    <glyph glyph-name="ncaron" unicode="&#x148;" 
d="M164 1044h205v-114l170 114h157q153 0 261 -107.5t108 -260.5v-676h-205v676q0 68 -48 116t-116 48h-94l-233 -158v-682h-205v1044zM240 1540h237l137 -141l138 141h237l-266 -311h-217z" />
    <glyph glyph-name="Eng" unicode="&#x14a;" 
d="M696 -430h-164v205h164q69 0 116.5 47.5t47.5 116.5v61h-92l-399 1090v-1090h-205v1434h297l399 -1090v1090h205v-1495q0 -154 -107.5 -261.5t-261.5 -107.5z" />
    <glyph glyph-name="eng" unicode="&#x14b;" 
d="M696 -430h-164v205h164q69 0 116.5 47.5t47.5 116.5v737q0 68 -48 116t-116 48h-94l-233 -158v-682h-205v1044h205v-114l170 114h157q153 0 261 -107.5t108 -260.5v-737q0 -154 -107.5 -261.5t-261.5 -107.5z" />
    <glyph glyph-name="Omacron" unicode="&#x14c;" 
d="M696 207q68 0 116 48.5t48 115.5v694q0 69 -47.5 116.5t-116.5 47.5h-164q-69 0 -116 -48t-47 -116v-694q0 -68 48 -116t115 -48h164zM164 371v694q0 153 108 261t260 108h164q154 0 261.5 -107.5t107.5 -261.5v-694q0 -153 -108 -262t-261 -109h-164q-152 0 -260 109
t-108 262zM246 1618v205h737v-205h-737z" />
    <glyph glyph-name="omacron" unicode="&#x14d;" 
d="M696 205q69 0 116.5 46.5t47.5 115.5v309q0 69 -47.5 116.5t-116.5 47.5h-164q-69 0 -116 -47.5t-47 -116.5v-309q0 -69 47 -114.5t116 -47.5h164zM164 367v309q0 154 107 261t261 107h164q154 0 261.5 -107t107.5 -261v-309q0 -154 -107.5 -260.5t-261.5 -106.5h-164
q-154 0 -261 106.5t-107 260.5zM246 1229v205h737v-205h-737z" />
    <glyph glyph-name="Ohungarumlaut" unicode="&#x150;" 
d="M696 207q68 0 116 48.5t48 115.5v694q0 69 -47.5 116.5t-116.5 47.5h-164q-69 0 -116 -48t-47 -116v-694q0 -68 48 -116t115 -48h164zM164 371v694q0 153 108 261t260 108h164q154 0 261.5 -107.5t107.5 -261.5v-694q0 -153 -108 -262t-261 -109h-164q-152 0 -260 109
t-108 262zM270 1618l287 311h279l-328 -311h-238zM680 1618l287 311h278l-327 -311h-238z" />
    <glyph glyph-name="ohungarumlaut" unicode="&#x151;" 
d="M696 205q69 0 116.5 46.5t47.5 115.5v309q0 69 -47.5 116.5t-116.5 47.5h-164q-69 0 -116 -47.5t-47 -116.5v-309q0 -69 47 -114.5t116 -47.5h164zM164 367v309q0 154 107 261t261 107h164q154 0 261.5 -107t107.5 -261v-309q0 -154 -107.5 -260.5t-261.5 -106.5h-164
q-154 0 -261 106.5t-107 260.5zM281 1229l286 311h279l-328 -311h-237zM690 1229l287 311h278l-327 -311h-238z" />
    <glyph glyph-name="OE" unicode="&#x152;" 
d="M430 207q68 0 116 48.5t48 115.5v694q0 69 -47.5 116.5t-116.5 47.5t-116.5 -48t-47.5 -116v-694q0 -67 48 -115.5t116 -48.5zM61 371v694q0 153 108 261t261 108q85 0 164 -37v37h573v-205h-368v-375h327v-205h-327v-444h368v-205h-573v39q-76 -39 -164 -39
q-155 0 -262 110.5t-107 260.5z" />
    <glyph glyph-name="oe" unicode="&#x153;" 
d="M379 207q65 0 99 46.5t34 117.5v305q0 73 -33.5 118.5t-99.5 45.5t-99.5 -46t-33.5 -118v-305q0 -71 34 -117.5t99 -46.5zM41 371v305q0 157 94 262.5t244 105.5q142 0 235 -96q96 96 236 96q153 0 245.5 -106.5t92.5 -261.5v-201h-471v-104q0 -71 34 -117.5t99 -46.5
t99 46.5t34 117.5h205q0 -156 -94 -263.5t-244 -107.5q-141 0 -236 98q-92 -98 -235 -98q-101 0 -179.5 52t-118.5 136t-40 183zM717 639h266v37q0 73 -33.5 118.5t-99.5 45.5t-99.5 -46t-33.5 -118v-37z" />
    <glyph glyph-name="Racute" unicode="&#x154;" 
d="M1065 0h-225l-260 573h-211v-573h-205v1434h532q154 0 261.5 -107.5t107.5 -261.5v-123q0 -126 -75 -223.5t-193 -130.5zM369 778h327q69 0 116.5 47.5t47.5 116.5v123q0 69 -47.5 116.5t-116.5 47.5h-327v-451zM516 1618l287 311h278l-327 -311h-238z" />
    <glyph glyph-name="racute" unicode="&#x155;" 
d="M164 1044h205v-163l243 163h84q153 0 261 -107.5t108 -260.5v-82h-205v82q0 68 -48 116t-116 48h-20l-307 -207v-633h-205v1044zM516 1229l287 311h278l-327 -311h-238z" />
    <glyph glyph-name="uni0156" unicode="&#x156;" 
d="M1065 0h-225l-260 573h-211v-573h-205v1434h532q154 0 261.5 -107.5t107.5 -261.5v-123q0 -126 -75 -223.5t-193 -130.5zM369 778h327q69 0 116.5 47.5t47.5 116.5v123q0 69 -47.5 116.5t-116.5 47.5h-327v-451zM383 -635l147 430h205l-49 -149l-213 -281h-90z" />
    <glyph glyph-name="uni0157" unicode="&#x157;" 
d="M164 1044h205v-163l243 163h84q153 0 261 -107.5t108 -260.5v-82h-205v82q0 68 -48 116t-116 48h-20l-307 -207v-633h-205v1044zM35 -635l147 430h205l-49 -149l-213 -281h-90z" />
    <glyph glyph-name="Rcaron" unicode="&#x158;" 
d="M1065 0h-225l-260 573h-211v-573h-205v1434h532q154 0 261.5 -107.5t107.5 -261.5v-123q0 -126 -75 -223.5t-193 -130.5zM240 1929h237l137 -141l138 141h237l-266 -311h-217zM369 778h327q69 0 116.5 47.5t47.5 116.5v123q0 69 -47.5 116.5t-116.5 47.5h-327v-451z" />
    <glyph glyph-name="rcaron" unicode="&#x159;" 
d="M164 1044h205v-163l243 163h84q153 0 261 -107.5t108 -260.5v-82h-205v82q0 68 -48 116t-116 48h-20l-307 -207v-633h-205v1044zM240 1540h237l137 -141l138 141h237l-266 -311h-217z" />
    <glyph glyph-name="Sacute" unicode="&#x15a;" 
d="M164 463h205v-82q0 -72 52 -124t124 -52h137q78 0 128 43.5t50 111.5q0 57 -37.5 108.5t-97 93t-131.5 83t-144 87t-131.5 96t-97 119t-37.5 147.5q0 150 106.5 245t274.5 95h97q158 0 270 -111.5t112 -269.5v-62h-204v62q0 73 -52 124.5t-126 51.5h-97q-83 0 -129.5 -36
t-46.5 -99q0 -44 37.5 -86t97 -79.5t131.5 -78t144 -89t131.5 -104t97 -132.5t37.5 -165q0 -154 -110 -257t-273 -103h-137q-158 0 -269.5 111.5t-111.5 269.5v82zM516 1618l287 311h278l-327 -311h-238z" />
    <glyph glyph-name="sacute" unicode="&#x15b;" 
d="M164 344h205v-41q0 -44 38 -71t103 -27h207q70 0 106.5 22.5t36.5 61.5q0 46 -37.5 77.5t-98 49.5t-133 33t-145 37t-133 53.5t-98 89.5t-37.5 139q0 124 90.5 200t237.5 76h196q138 0 233 -88t95 -217v-18h-205v18q0 43 -34.5 72t-88.5 29h-196q-123 0 -123 -72
q0 -29 29.5 -51t77.5 -35t109 -28.5t125 -30.5t125 -42.5t109 -63.5t77.5 -94.5t29.5 -133.5q0 -129 -96.5 -209t-251.5 -80h-207q-149 0 -247.5 86t-98.5 217v41zM516 1229l287 311h278l-327 -311h-238z" />
    <glyph glyph-name="Scedilla" unicode="&#x15e;" 
d="M164 463h205v-82q0 -72 52 -124t124 -52h137q78 0 128 43.5t50 111.5q0 57 -37.5 108.5t-97 93t-131.5 83t-144 87t-131.5 96t-97 119t-37.5 147.5q0 150 106.5 245t274.5 95h97q158 0 270 -111.5t112 -269.5v-62h-204v62q0 73 -52 124.5t-126 51.5h-97q-83 0 -129.5 -36
t-46.5 -99q0 -44 37.5 -86t97 -79.5t131.5 -78t144 -89t131.5 -104t97 -132.5t37.5 -165q0 -144 -98 -245t-248 -113v-2l-8 -49h18q106 0 182 -77.5t76 -186.5q0 -106 -76 -183t-182 -77h-233v204h233q20 0 36.5 17t16.5 39q0 25 -15.5 42t-37.5 17h-156l-88 166l29 90
q-148 11 -249 120t-101 259v82z" />
    <glyph glyph-name="scedilla" unicode="&#x15f;" 
d="M164 344h205v-41q0 -44 38 -71t103 -27h207q70 0 106.5 22.5t36.5 61.5q0 46 -37.5 77.5t-98 49.5t-133 33t-145 37t-133 53.5t-98 89.5t-37.5 139q0 124 90.5 200t237.5 76h196q138 0 233 -88t95 -217v-18h-205v18q0 43 -34.5 72t-88.5 29h-196q-123 0 -123 -72
q0 -29 29.5 -51t77.5 -35t109 -28.5t125 -30.5t125 -42.5t109 -63.5t77.5 -94.5t29.5 -133.5q0 -129 -96 -209t-250 -80l-8 -49h18q106 0 182 -77.5t76 -186.5q0 -106 -76 -183t-182 -77h-233v204h233q20 0 36.5 17t16.5 39q0 25 -15.5 42t-37.5 17h-156l-88 166l29 88h-4
q-149 0 -247.5 86t-98.5 217v41z" />
    <glyph glyph-name="Scaron" unicode="&#x160;" 
d="M164 463h205v-82q0 -72 52 -124t124 -52h137q78 0 128 43.5t50 111.5q0 57 -37.5 108.5t-97 93t-131.5 83t-144 87t-131.5 96t-97 119t-37.5 147.5q0 150 106.5 245t274.5 95h97q158 0 270 -111.5t112 -269.5v-62h-204v62q0 73 -52 124.5t-126 51.5h-97q-83 0 -129.5 -36
t-46.5 -99q0 -44 37.5 -86t97 -79.5t131.5 -78t144 -89t131.5 -104t97 -132.5t37.5 -165q0 -154 -110 -257t-273 -103h-137q-158 0 -269.5 111.5t-111.5 269.5v82zM240 1929h237l137 -141l138 141h237l-266 -311h-217z" />
    <glyph glyph-name="scaron" unicode="&#x161;" 
d="M164 344h205v-41q0 -44 38 -71t103 -27h207q70 0 106.5 22.5t36.5 61.5q0 46 -37.5 77.5t-98 49.5t-133 33t-145 37t-133 53.5t-98 89.5t-37.5 139q0 124 90.5 200t237.5 76h196q138 0 233 -88t95 -217v-18h-205v18q0 43 -34.5 72t-88.5 29h-196q-123 0 -123 -72
q0 -29 29.5 -51t77.5 -35t109 -28.5t125 -30.5t125 -42.5t109 -63.5t77.5 -94.5t29.5 -133.5q0 -129 -96.5 -209t-251.5 -80h-207q-149 0 -247.5 86t-98.5 217v41zM240 1540h237l137 -141l138 141h237l-266 -311h-217z" />
    <glyph glyph-name="uni0162" unicode="&#x162;" 
d="M164 1434h901v-205h-348v-1161h2v-68l-8 -49h18q106 0 182 -77.5t76 -186.5q0 -106 -76 -183t-182 -77h-233v204h233q20 0 36.5 17t16.5 39q0 25 -15.5 42t-37.5 17h-156l-88 166l29 88h-2v1229h-348v205z" />
    <glyph glyph-name="uni0163" unicode="&#x163;" 
d="M164 840v204h317v267h205v-267h379v-204h-379v-471q0 -69 47.5 -116.5t116.5 -47.5h215v-205h-186l-9 -49h19q106 0 182 -77.5t76 -186.5q0 -106 -76 -183t-182 -77h-234v204h234q20 0 36.5 17t16.5 39q0 25 -15.5 42t-37.5 17h-156l-88 166l29 88v45
q-88 47 -140.5 133.5t-52.5 190.5v471h-317z" />
    <glyph glyph-name="Tcaron" unicode="&#x164;" 
d="M164 1434h901v-205h-348v-1229h-205v1229h-348v205zM240 1929h237l137 -141l138 141h237l-266 -311h-217z" />
    <glyph glyph-name="tcaron" unicode="&#x165;" 
d="M850 0q-154 0 -261.5 107.5t-107.5 261.5v471h-317v204h317v267h205v-267h379v-204h-379v-471q0 -69 47.5 -116.5t116.5 -47.5h215v-205h-215zM844 1411v207h205v-207l-41 -223h-123z" />
    <glyph glyph-name="Tbar" unicode="&#x166;" 
d="M164 1434h901v-205h-348v-580h266v-205h-266v-444h-205v444h-266v205h266v580h-348v205z" />
    <glyph glyph-name="tbar" unicode="&#x167;" 
d="M850 0q-154 0 -261.5 107.5t-107.5 261.5v75h-235v205h235v191h-317v204h317v267h205v-267h379v-204h-379v-191h297v-205h-297v-75q0 -69 47.5 -116.5t116.5 -47.5h215v-205h-215z" />
    <glyph glyph-name="Umacron" unicode="&#x16a;" 
d="M1065 371q0 -152 -108.5 -261.5t-260.5 -109.5h-164q-153 0 -260.5 109t-107.5 262v1063h205v-1063q0 -68 48 -116t115 -48h164q68 0 116 48.5t48 115.5v1063h205v-1063zM246 1618v205h737v-205h-737z" />
    <glyph glyph-name="umacron" unicode="&#x16b;" 
d="M1065 0h-205v115l-170 -115h-158q-152 0 -260 108t-108 261v675h205v-675q0 -68 48 -116t115 -48h95l233 157v682h205v-1044zM246 1229v205h737v-205h-737z" />
    <glyph glyph-name="Uring" unicode="&#x16e;" 
d="M1065 371q0 -152 -108.5 -261.5t-260.5 -109.5h-164q-153 0 -260.5 109t-107.5 262v1063h205v-1063q0 -68 48 -116t115 -48h164q68 0 116 48.5t48 115.5v1063h205v-1063zM354 1876q0 107 75.5 182.5t184.5 75.5q106 0 182 -75.5t76 -182.5q0 -106 -76 -182t-182 -76
q-109 0 -184.5 75.5t-75.5 182.5zM559 1876q0 -22 15.5 -37.5t39.5 -15.5q22 0 38 15.5t16 37.5q0 23 -16 38t-38 15q-25 0 -40 -15t-15 -38z" />
    <glyph glyph-name="uring" unicode="&#x16f;" 
d="M1065 0h-205v115l-170 -115h-158q-152 0 -260 108t-108 261v675h205v-675q0 -68 48 -116t115 -48h95l233 157v682h205v-1044zM354 1487q0 107 75.5 182.5t184.5 75.5q106 0 182 -75.5t76 -182.5q0 -106 -76 -182t-182 -76q-109 0 -184.5 75.5t-75.5 182.5zM559 1487
q0 -22 15.5 -37.5t39.5 -15.5q22 0 38 15.5t16 37.5q0 23 -16 38t-38 15q-25 0 -40 -15t-15 -38z" />
    <glyph glyph-name="Uhungarumlaut" unicode="&#x170;" 
d="M1065 371q0 -152 -108.5 -261.5t-260.5 -109.5h-164q-153 0 -260.5 109t-107.5 262v1063h205v-1063q0 -68 48 -116t115 -48h164q68 0 116 48.5t48 115.5v1063h205v-1063zM270 1618l287 311h279l-328 -311h-238zM680 1618l287 311h278l-327 -311h-238z" />
    <glyph glyph-name="uhungarumlaut" unicode="&#x171;" 
d="M1065 0h-205v115l-170 -115h-158q-152 0 -260 108t-108 261v675h205v-675q0 -68 48 -116t115 -48h95l233 157v682h205v-1044zM281 1229l286 311h279l-328 -311h-237zM690 1229l287 311h278l-327 -311h-238z" />
    <glyph glyph-name="Uogonek" unicode="&#x172;" 
d="M1065 371q0 -129 -80 -230t-203 -131q-46 -50 -69 -89.5t-22.5 -64t11.5 -41.5t35 -25.5t46.5 -11.5t47.5 -3v-205h-131q-71 0 -125 28.5t-80.5 76t-31.5 103t19.5 115t74.5 107.5h-25q-153 0 -260.5 109t-107.5 262v1063h205v-1063q0 -68 48 -116t115 -48h164
q68 0 116 48.5t48 115.5v1063h205v-1063z" />
    <glyph glyph-name="uogonek" unicode="&#x173;" 
d="M1065 0q-65 -66 -92.5 -115.5t-24 -76.5t28.5 -44t52.5 -21.5t60.5 -4.5v-205h-132q-63 0 -113.5 23.5t-79.5 62t-39 89t0 101.5t44.5 102t89.5 89v115l-170 -115h-158q-152 0 -260 108t-108 261v675h205v-675q0 -68 48 -116t115 -48h95l233 157v682h205v-1044z" />
    <glyph glyph-name="Wcircumflex" unicode="&#x174;" 
d="M698 1065l113 -645l49 604v410h205v-471l-123 -963h-164l-164 612l-163 -612h-164l-123 963v471h205v-410l49 -604l112 645h168zM240 1618l266 311h217l266 -311h-237l-138 141l-137 -141h-237z" />
    <glyph glyph-name="wcircumflex" unicode="&#x175;" 
d="M698 860l125 -473l37 248v409h205v-471l-123 -573h-164l-164 489l-163 -489h-164l-123 573v471h205v-409l37 -248l124 473h168zM240 1229l266 311h217l266 -311h-237l-138 141l-137 -141h-237z" />
    <glyph glyph-name="Ycircumflex" unicode="&#x176;" 
d="M512 0v510l-348 432v492h205v-418l241 -301h4l246 321v398h205v-467l-348 -457v-510h-205zM240 1618l266 311h217l266 -311h-237l-138 141l-137 -141h-237z" />
    <glyph glyph-name="ycircumflex" unicode="&#x177;" 
d="M524 -430h-219l189 512l-330 962h217l223 -657l242 657h219zM240 1229l266 311h217l266 -311h-237l-138 141l-137 -141h-237z" />
    <glyph glyph-name="Ydieresis" unicode="&#x178;" 
d="M512 0v510l-348 432v492h205v-418l241 -301h4l246 321v398h205v-467l-348 -457v-510h-205zM317 1618v205h226v-205h-226zM686 1618v205h225v-205h-225z" />
    <glyph glyph-name="Zacute" unicode="&#x179;" 
d="M164 1434h901v-205l-657 -1024h657v-205h-901v205l659 1024h-659v205zM516 1618l287 311h278l-327 -311h-238z" />
    <glyph glyph-name="zacute" unicode="&#x17a;" 
d="M164 1044h901v-204l-616 -635h616v-205h-901v205l616 635h-616v204zM516 1229l287 311h278l-327 -311h-238z" />
    <glyph glyph-name="Zdotaccent" unicode="&#x17b;" 
d="M164 1434h901v-205l-657 -1024h657v-205h-901v205l659 1024h-659v205zM502 1618v205h225v-205h-225z" />
    <glyph glyph-name="zdotaccent" unicode="&#x17c;" 
d="M164 1044h901v-204l-616 -635h616v-205h-901v205l616 635h-616v204zM502 1229v205h225v-205h-225z" />
    <glyph glyph-name="Zcaron" unicode="&#x17d;" 
d="M164 1434h901v-205l-657 -1024h657v-205h-901v205l659 1024h-659v205zM240 1929h237l137 -141l138 141h237l-266 -311h-217z" />
    <glyph glyph-name="zcaron" unicode="&#x17e;" 
d="M164 1044h901v-204l-616 -635h616v-205h-901v205l616 635h-616v204zM240 1540h237l137 -141l138 141h237l-266 -311h-217z" />
    <glyph glyph-name="uni0218" unicode="&#x218;" 
d="M164 463h205v-82q0 -72 52 -124t124 -52h137q78 0 128 43.5t50 111.5q0 57 -37.5 108.5t-97 93t-131.5 83t-144 87t-131.5 96t-97 119t-37.5 147.5q0 150 106.5 245t274.5 95h97q158 0 270 -111.5t112 -269.5v-62h-204v62q0 73 -52 124.5t-126 51.5h-97q-83 0 -129.5 -36
t-46.5 -99q0 -44 37.5 -86t97 -79.5t131.5 -78t144 -89t131.5 -104t97 -132.5t37.5 -165q0 -154 -110 -257t-273 -103h-137q-158 0 -269.5 111.5t-111.5 269.5v82zM383 -635l147 430h205l-49 -149l-213 -281h-90z" />
    <glyph glyph-name="uni0219" unicode="&#x219;" 
d="M164 344h205v-41q0 -44 38 -71t103 -27h207q70 0 106.5 22.5t36.5 61.5q0 46 -37.5 77.5t-98 49.5t-133 33t-145 37t-133 53.5t-98 89.5t-37.5 139q0 124 90.5 200t237.5 76h196q138 0 233 -88t95 -217v-18h-205v18q0 43 -34.5 72t-88.5 29h-196q-123 0 -123 -72
q0 -29 29.5 -51t77.5 -35t109 -28.5t125 -30.5t125 -42.5t109 -63.5t77.5 -94.5t29.5 -133.5q0 -129 -96.5 -209t-251.5 -80h-207q-149 0 -247.5 86t-98.5 217v41zM383 -635l147 430h205l-49 -149l-213 -281h-90z" />
    <glyph glyph-name="uni021A" unicode="&#x21a;" 
d="M164 1434h901v-205h-348v-1229h-205v1229h-348v205zM383 -635l147 430h205l-49 -149l-213 -281h-90z" />
    <glyph glyph-name="uni021B" unicode="&#x21b;" 
d="M850 0q-154 0 -261.5 107.5t-107.5 261.5v471h-317v204h317v267h205v-267h379v-204h-379v-471q0 -69 47.5 -116.5t116.5 -47.5h215v-205h-215zM543 -635l147 430h205l-49 -149l-213 -281h-90z" />
    <glyph glyph-name="circumflex" unicode="&#x2c6;" 
d="M723 1540l266 -311h-237l-138 141l-137 -141h-237l266 311h217z" />
    <glyph glyph-name="caron" unicode="&#x2c7;" 
d="M723 1229h-217l-266 311h237l137 -141l138 141h237z" />
    <glyph glyph-name="breve" unicode="&#x2d8;" 
d="M723 1544v2h205v-2q0 -130 -92.5 -222.5t-221.5 -92.5q-130 0 -222.5 92.5t-92.5 222.5v2h205v-2q0 -46 32 -78t78 -32q44 0 76.5 32t32.5 78z" />
    <glyph glyph-name="dotaccent" unicode="&#x2d9;" 
d="M502 1434h225v-205h-225v205z" />
    <glyph glyph-name="ring" unicode="&#x2da;" 
d="M616 1229q-109 0 -184.5 75.5t-75.5 182.5t75.5 182.5t184.5 75.5q106 0 182 -75.5t76 -182.5q0 -106 -76 -182t-182 -76zM561 1487q0 -22 15.5 -37.5t39.5 -15.5q22 0 38 15.5t16 37.5q0 23 -16 38t-38 15q-25 0 -40 -15t-15 -38z" />
    <glyph glyph-name="ogonek" unicode="&#x2db;" 
d="M831 -225v-205h-131q-63 0 -113.5 23.5t-79.5 62t-39 89t0 101.5t44.5 102t89.5 89h205q-65 -66 -93 -115.5t-24 -76.5t28.5 -44t52 -21.5t60.5 -4.5z" />
    <glyph glyph-name="tilde" unicode="&#x2dc;" 
d="M205 1268q38 111 115.5 161t203.5 46l224 -95q37 1 53 15.5t30 52.5l193 -66q-38 -110 -115.5 -160t-203.5 -46l-224 94q-37 -1 -53.5 -15.5t-30.5 -52.5z" />
    <glyph glyph-name="hungarumlaut" unicode="&#x2dd;" 
d="M977 1540h278l-327 -311h-238zM281 1229l286 311h279l-328 -311h-237z" />
    <glyph glyph-name="gravecomb" unicode="&#x300;" horiz-adv-x="0" 
d="M457 1540l286 -311h-237l-328 311h279z" />
    <glyph glyph-name="acutecomb" unicode="&#x301;" horiz-adv-x="0" 
d="M772 1540h279l-328 -311h-238z" />
    <glyph glyph-name="uni0302" unicode="&#x302;" horiz-adv-x="0" 
d="M723 1540l266 -311h-237l-138 141l-137 -141h-237l266 311h217z" />
    <glyph glyph-name="tildecomb" unicode="&#x303;" horiz-adv-x="0" 
d="M205 1268q38 111 115.5 161t203.5 46l224 -95q37 1 53 15.5t30 52.5l193 -66q-38 -110 -115.5 -160t-203.5 -46l-224 94q-37 -1 -53.5 -15.5t-30.5 -52.5z" />
    <glyph glyph-name="uni0304" unicode="&#x304;" horiz-adv-x="0" 
d="M246 1434h737v-205h-737v205z" />
    <glyph glyph-name="uni0306" unicode="&#x306;" horiz-adv-x="0" 
d="M723 1544v2h205v-2q0 -130 -92.5 -222.5t-221.5 -92.5q-130 0 -222.5 92.5t-92.5 222.5v2h205v-2q0 -46 32 -78t78 -32q44 0 76.5 32t32.5 78z" />
    <glyph glyph-name="uni0307" unicode="&#x307;" horiz-adv-x="0" 
d="M502 1434h225v-205h-225v205z" />
    <glyph glyph-name="uni0308" unicode="&#x308;" horiz-adv-x="0" 
d="M317 1434h226v-205h-226v205zM686 1229v205h225v-205h-225z" />
    <glyph glyph-name="uni030A" unicode="&#x30a;" horiz-adv-x="0" 
d="M616 1229q-109 0 -184.5 75.5t-75.5 182.5t75.5 182.5t184.5 75.5q106 0 182 -75.5t76 -182.5q0 -106 -76 -182t-182 -76zM561 1487q0 -22 15.5 -37.5t39.5 -15.5q22 0 38 15.5t16 37.5q0 23 -16 38t-38 15q-25 0 -40 -15t-15 -38z" />
    <glyph glyph-name="uni030B" unicode="&#x30b;" horiz-adv-x="0" 
d="M915 1540h279l-328 -311h-237zM219 1229l287 311h278l-327 -311h-238z" />
    <glyph glyph-name="uni030C" unicode="&#x30c;" horiz-adv-x="0" 
d="M723 1229h-217l-266 311h237l137 -141l138 141h237z" />
    <glyph glyph-name="uni0312" unicode="&#x312;" horiz-adv-x="0" 
d="M733 1659h90l-147 -430h-205l49 149z" />
    <glyph glyph-name="uni0326" unicode="&#x326;" horiz-adv-x="0" 
d="M453 -635h-91l148 430h205l-49 -149z" />
    <glyph glyph-name="uni0327" unicode="&#x327;" horiz-adv-x="0" 
d="M516 0v68h205v-68l-8 -49h18q106 0 182 -77.5t76 -186.5q0 -106 -76 -183t-182 -77h-233v204h233q20 0 36.5 17t16.5 39q0 25 -15.5 42t-37.5 17h-156l-88 166z" />
    <glyph glyph-name="uni0328" unicode="&#x328;" horiz-adv-x="0" 
d="M831 -225v-205h-131q-63 0 -113.5 23.5t-79.5 62t-39 89t0 101.5t44.5 102t89.5 89h205q-65 -66 -93 -115.5t-24 -76.5t28.5 -44t52 -21.5t60.5 -4.5z" />
    <glyph glyph-name="uni0335" unicode="&#x335;" horiz-adv-x="0" 
d="M246 649h737v-205h-737v205z" />
    <glyph glyph-name="uni0336" unicode="&#x336;" horiz-adv-x="0" 
d="M20 649v-205h1188v205h-1188z" />
    <glyph glyph-name="uni0337" unicode="&#x337;" horiz-adv-x="0" 
d="M774 1239h219l-536 -1434h-219z" />
    <glyph glyph-name="uni0338" unicode="&#x338;" horiz-adv-x="0" 
d="M854 1649h219l-698 -1864h-219z" />
    <glyph glyph-name="Wgrave" unicode="&#x1e80;" 
d="M698 1065l113 -645l49 604v410h205v-471l-123 -963h-164l-164 612l-163 -612h-164l-123 963v471h205v-410l49 -604l112 645h168zM106 1929h279l287 -311h-238z" />
    <glyph glyph-name="wgrave" unicode="&#x1e81;" 
d="M698 860l125 -473l37 248v409h205v-471l-123 -573h-164l-164 489l-163 -489h-164l-123 573v471h205v-409l37 -248l124 473h168zM178 1540h279l286 -311h-237z" />
    <glyph glyph-name="Wacute" unicode="&#x1e82;" 
d="M698 1065l113 -645l49 604v410h205v-471l-123 -963h-164l-164 612l-163 -612h-164l-123 963v471h205v-410l49 -604l112 645h168zM516 1618l287 311h278l-327 -311h-238z" />
    <glyph glyph-name="wacute" unicode="&#x1e83;" 
d="M698 860l125 -473l37 248v409h205v-471l-123 -573h-164l-164 489l-163 -489h-164l-123 573v471h205v-409l37 -248l124 473h168zM485 1229l287 311h279l-328 -311h-238z" />
    <glyph glyph-name="Wdieresis" unicode="&#x1e84;" 
d="M698 1065l113 -645l49 604v410h205v-471l-123 -963h-164l-164 612l-163 -612h-164l-123 963v471h205v-410l49 -604l112 645h168zM317 1618v205h226v-205h-226zM686 1618v205h225v-205h-225z" />
    <glyph glyph-name="wdieresis" unicode="&#x1e85;" 
d="M698 860l125 -473l37 248v409h205v-471l-123 -573h-164l-164 489l-163 -489h-164l-123 573v471h205v-409l37 -248l124 473h168zM317 1229v205h226v-205h-226zM686 1229v205h225v-205h-225z" />
    <glyph glyph-name="Ygrave" unicode="&#x1ef2;" 
d="M512 0v510l-348 432v492h205v-418l241 -301h4l246 321v398h205v-467l-348 -457v-510h-205zM106 1929h279l287 -311h-238z" />
    <glyph glyph-name="ygrave" unicode="&#x1ef3;" 
d="M524 -430h-219l189 512l-330 962h217l223 -657l242 657h219zM178 1540h279l286 -311h-237z" />
    <glyph glyph-name="endash" unicode="&#x2013;" 
d="M123 649h983v-205h-983v205z" />
    <glyph glyph-name="emdash" unicode="&#x2014;" 
d="M20 649v-205h1188v205h-1188z" />
    <glyph glyph-name="quoteleft" unicode="&#x2018;" 
d="M721 1456h90l-147 -430h-205l49 150z" />
    <glyph glyph-name="quoteright" unicode="&#x2019;" 
d="M508 1024h-90l147 430h205l-49 -149z" />
    <glyph glyph-name="quotesinglbase" unicode="&#x201a;" 
d="M508 -225h-90l147 430h205l-49 -150z" />
    <glyph glyph-name="quotedblleft" unicode="&#x201c;" 
d="M557 1456h90l-147 -430h-205l49 150zM641 1026l49 150l213 280h90l-147 -430h-205z" />
    <glyph glyph-name="quotedblright" unicode="&#x201d;" 
d="M670 1024h-90l147 430h205l-49 -149zM233 1024l148 430h205l-49 -149l-213 -281h-91z" />
    <glyph glyph-name="quotedblbase" unicode="&#x201e;" 
d="M508 -225h-90l147 430h205l-49 -150z" />
    <glyph glyph-name="dagger" unicode="&#x2020;" 
d="M205 1188h307v246h205v-246h307v-205h-307v-614h-205v614h-307v205z" />
    <glyph glyph-name="daggerdbl" unicode="&#x2021;" 
d="M205 819h307v164h-307v205h307v246h205v-246h307v-205h-307v-164h307v-205h-307v-245h-205v245h-307v205z" />
    <glyph glyph-name="bullet" unicode="&#x2022;" 
d="M440 778h205l143 -61v-164l-143 -61h-205v286z" />
    <glyph glyph-name="ellipsis" unicode="&#x2026;" 
d="M502 205h225v-205h-225v205zM164 0v205h225v-205h-225zM840 0v205h225v-205h-225z" />
    <glyph glyph-name="perthousand" unicode="&#x2030;" horiz-adv-x="2457" 
d="M1542 0q-114 0 -193 79t-79 193t79 193.5t193 79.5q113 0 191.5 -79.5t78.5 -193.5t-78.5 -193t-191.5 -79zM41 1161q0 114 79 193.5t193 79.5q113 0 192 -79.5t79 -193.5t-79 -193t-192 -79q-114 0 -193 79t-79 193zM164 0v328l696 852v254h205v-328l-696 -852v-254
h-205zM246 1161q0 -28 19.5 -47.5t47.5 -19.5t47 19.5t19 47.5t-19 48t-47 20t-47.5 -20t-19.5 -48zM645 272q0 114 79.5 193.5t193.5 79.5q113 0 191.5 -79.5t78.5 -193.5t-78.5 -193t-191.5 -79q-114 0 -193.5 79t-79.5 193zM850 272q0 -28 20 -47.5t48 -19.5t46.5 19.5
t18.5 47.5t-19 48t-46 20q-28 0 -48 -20t-20 -48zM1475 272q0 -28 19.5 -47.5t47.5 -19.5t47 19.5t19 47.5t-19 48t-47 20t-47.5 -20t-19.5 -48z" />
    <glyph glyph-name="guilsinglleft" unicode="&#x2039;" 
d="M911 276v-204h-184l-410 348v205l410 348h184v-205h-108l-287 -244v-4l287 -244h108z" />
    <glyph glyph-name="guilsinglright" unicode="&#x203a;" 
d="M317 276h109l287 244v4l-287 244h-109v205h185l409 -348v-205l-409 -348h-185v204z" />
    <glyph glyph-name="fraction" unicode="&#x2044;" 
d="M369 0h-205v328l696 852v254h205v-328l-696 -852v-254z" />
    <glyph glyph-name="Euro" unicode="&#x20ac;" 
d="M860 1065q0 69 -47.5 116.5t-116.5 47.5h-41q-69 0 -116 -48t-47 -116v-172h276v-205h-276v-82h276v-205h-276v-30q0 -68 48 -116t115 -48h41q68 0 116 48.5t48 115.5v20h205v-20q0 -153 -108 -262t-261 -109h-41q-152 0 -260 109t-108 262v30h-123v205h123v82h-123v205
h123v172q0 153 107.5 261t260.5 108h41q154 0 261.5 -107.5t107.5 -261.5v-21h-205v21z" />
    <glyph glyph-name="trademark" unicode="&#x2122;" horiz-adv-x="2457" 
d="M164 1434h594v-144h-226v-553h-143v553h-225v144zM860 737v697h164l184 -375l185 375h163v-697h-143v445l-149 -301h-111l-149 301v-445h-144z" />
    <glyph glyph-name="arrowleft" unicode="&#x2190;" 
d="M1147 645h-748l168 143h109v205h-184l-410 -348v-205l410 -348h184v205h-109l-286 244v4l118 100h-206v-205h954v205z" />
    <glyph glyph-name="arrowup" unicode="&#x2191;" 
d="M512 0h205v748l143 -168v-109h205v184l-348 410h-205l-348 -410v-184h205v109l243 286h4l101 -118v206h-205v-954z" />
    <glyph glyph-name="arrowright" unicode="&#x2192;" 
d="M82 645v-205h747l-167 -143h-109v-205h184l410 348v205l-410 348h-184v-205h109l286 -243v-4l-119 -101h207v205h-954z" />
    <glyph glyph-name="arrowdown" unicode="&#x2193;" 
d="M512 1065v-748l-143 168v109h-205v-184l348 -410h205l348 410v184h-205v-109l-244 -286h-4l-100 118v-206h205v954h-205z" />
    <glyph glyph-name="arrowboth" unicode="&#x2194;" 
d="M84 662v-205h254l-119 100v4l119 101h-254zM20 457l410 -348l76 204l-168 144h553l-168 -144l76 -204l409 348v205l-409 348l-76 -205l287 -244v-4l-119 -100h254v205h-807l168 143l-76 205l-410 -348v-205z" />
    <glyph glyph-name="arrowupdn" unicode="&#x2195;" 
d="M510 63h205v254l-101 -118h-4l-100 118v-254zM162 410l348 -410h205l348 410l-205 75l-143 -168v553l143 -168l205 76l-348 410h-205l-348 -410l205 -76l243 287h4l101 -119v254h-205v-807l-143 168z" />
    <glyph glyph-name="uni2196" unicode="&#x2196;" 
d="M1061 227l-529 531l222 -19l75 -77l146 145l-131 131l-535 43l-145 -145l43 -535l131 -131l143 145l-75 76l-31 375l4 4l153 -12l-145 145l-145 -145l676 -674z" />
    <glyph glyph-name="uni2197" unicode="&#x2197;" 
d="M166 227l143 -143l531 528l-19 -221l-76 -76l144 -145l131 131l43 535l-145 145l-535 -43l-131 -131l145 -145l76 77l375 31l4 -4l-12 -154l145 146l-145 145z" />
    <glyph glyph-name="uni2198" unicode="&#x2198;" 
d="M166 842l528 -531l-221 19l-76 78l-145 -146l131 -131l535 -43l145 145l-43 535l-131 131l-144 -145l76 -76l31 -375l-4 -4l-154 12l146 -145l145 145l-676 674z" />
    <glyph glyph-name="uni2199" unicode="&#x2199;" 
d="M1061 842l-143 143l-531 -528l19 221l75 76l-143 145l-131 -131l-43 -535l145 -145l535 43l131 131l-146 146l-75 -78l-375 -31l-4 4l12 154l-145 -146l145 -145z" />
    <glyph glyph-name="partialdiff" unicode="&#x2202;" 
 />
    <glyph glyph-name="emptyset" unicode="&#x2205;" 
d="M614 82q-21 0 -53 4l-33 -86h-219l60 158q-90 61 -142.5 157.5t-52.5 208.5q0 181 129 310t311 129q14 0 54 -5l32 86h220l-60 -157q90 -60 142.5 -155.5t52.5 -207.5q0 -183 -129 -312.5t-312 -129.5zM379 524q0 -96 65 -164l148 398q-89 -9 -151 -77t-62 -157zM637 287
q90 9 151.5 77t61.5 160q0 94 -66 160z" />
    <glyph glyph-name="product" unicode="&#x220f;" 
 />
    <glyph glyph-name="summation" unicode="&#x2211;" 
 />
    <glyph glyph-name="minus" unicode="&#x2212;" 
d="M246 649h737v-205h-737v205z" />
    <glyph glyph-name="radical" unicode="&#x221a;" 
 />
    <glyph glyph-name="infinity" unicode="&#x221e;" 
d="M860 461q45 14 74 52t29 87t-29 87t-74 52l-115 -139zM61 600q0 159 120 264t282 82l151 -184l152 184q162 23 281.5 -82t119.5 -264t-119.5 -264t-281.5 -82l-152 184l-151 -184q-162 -23 -282 82t-120 264zM266 600q0 -49 29 -87t74 -52l114 139l-114 139
q-45 -14 -74 -52t-29 -87z" />
    <glyph glyph-name="integral" unicode="&#x222b;" 
 />
    <glyph glyph-name="approxequal" unicode="&#x2248;" 
d="M160 287q38 111 115.5 161t203.5 46l223 -95q37 1 53.5 15.5t30.5 52.5l193 -66q-38 -110 -116 -160.5t-204 -45.5l-223 94q-37 -1 -53.5 -15.5t-30.5 -52.5zM160 715q38 111 115.5 161t203.5 46l223 -95q37 1 53.5 15.5t30.5 52.5l193 -66q-38 -110 -116 -160.5
t-204 -45.5l-223 94q-37 -1 -53.5 -15.5t-30.5 -52.5z" />
    <glyph glyph-name="notequal" unicode="&#x2260;" 
d="M684 1044h219l-67 -178h147v-204h-223l-70 -187h293v-205h-371l-69 -186h-219l69 186h-147v205h225l70 187h-295v204h370z" />
    <glyph glyph-name="lessequal" unicode="&#x2264;" 
d="M983 635v-205h-184l-553 266v205l553 266h184v-204h-137l-340 -162v-4l340 -162h137zM246 123v205h737v-205h-737z" />
    <glyph glyph-name="greaterequal" unicode="&#x2265;" 
d="M246 635h137l340 162v4l-340 162h-137v204h184l553 -266v-205l-553 -266h-184v205zM246 123v205h737v-205h-737z" />
    <glyph glyph-name="lozenge" unicode="&#x25ca;" 
d="M860 631l-244 287h-4l-243 -287v-217l243 -287h4l244 287v217zM164 338v369l348 409h205l348 -409v-369l-348 -410h-205z" />
    <glyph glyph-name="i.loclTRK" 
d="M707 205h358v-205h-901v205h338v635h-338v204h543v-839zM502 1229v205h225v-205h-225z" />
  </font>
</defs>
</svg>
