<svg width="18" height="11" viewBox="0 0 18 11" fill="none" xmlns="http://www.w3.org/2000/svg">
<path d="M5.4 0C6.83217 0 8.20568 0.579463 9.21838 1.61091C10.2311 2.64236 10.8 4.04131 10.8 5.5C10.8 6.95869 10.2311 8.35764 9.21838 9.38909C8.20568 10.4205 6.83217 11 5.4 11C3.96783 11 2.59432 10.4205 1.58162 9.38909C0.568927 8.35764 0 6.95869 0 5.5C0 4.04131 0.568927 2.64236 1.58162 1.61091C2.59432 0.579463 3.96783 0 5.4 0ZM13.5 0.916667C14.85 0.916667 15.75 2.96908 15.75 5.5C15.75 8.03092 14.85 10.0833 13.5 10.0833C12.15 10.0833 11.25 8.03092 11.25 5.5C11.25 2.96908 12.15 0.916667 13.5 0.916667ZM17.1 1.375C17.442 1.375 17.7408 2.13308 17.892 3.43383L17.9343 3.83992L17.9514 4.05533L17.9784 4.50817L17.9874 4.74558L17.9982 5.2415L18 5.5L17.9982 5.7585L17.9874 6.25442L17.9784 6.49275L17.9514 6.94467L17.9334 7.16008L17.8929 7.56617C17.7408 8.86783 17.4429 9.625 17.1 9.625C16.758 9.625 16.4592 8.86692 16.308 7.56617L16.2657 7.16008C16.2595 7.08832 16.2538 7.01651 16.2486 6.94467L16.2216 6.49183C16.2181 6.41271 16.2151 6.33357 16.2126 6.25442L16.2018 5.7585V5.2415L16.2126 4.74558L16.2216 4.50725L16.2486 4.05533L16.2666 3.83992L16.3071 3.43383C16.4592 2.13217 16.7571 1.375 17.1 1.375Z" fill="white"/>
</svg>
