<svg width="18" height="15" viewBox="0 0 18 15" fill="none" xmlns="http://www.w3.org/2000/svg">
<path d="M1.10227 6.52448L11.8174 2.07772C12.8834 1.61451 16.4674 0.132261 16.4674 0.132261C16.4674 0.132261 18.1215 -0.516224 17.9929 1.05867C17.9561 1.70715 17.5701 3.98612 17.2026 6.43184L16.0447 13.7134C16.0447 13.7134 15.9528 14.788 15.1624 14.9733C14.3721 15.1586 13.0856 14.3248 12.865 14.1396C12.6812 13.9913 9.40972 11.9162 8.21507 10.8971C7.88424 10.6192 7.51665 10.0634 8.25183 9.41487C9.90597 7.87703 11.8909 5.98716 13.0856 4.78283C13.637 4.22699 14.1883 2.93001 11.8909 4.50491L5.42141 8.87755C5.42141 8.87755 4.68624 9.34076 3.30779 8.91461C1.92934 8.48846 0.311961 7.93262 0.311961 7.93262C0.311961 7.93262 -0.772419 7.2656 1.10227 6.52448Z" fill="white"/>
</svg>
