<svg width="247" height="55" viewBox="0 0 247 55" fill="none" xmlns="http://www.w3.org/2000/svg">
<path d="M229.529 21.2926V22.3556C230.944 20.5012 233.169 19.4449 235.5 19.519C236.837 19.5176 238.151 19.8718 239.306 20.5454C240.38 21.1001 241.234 22.0008 241.732 23.1017C242.117 24.1654 242.294 25.2928 242.255 26.4229V33.5138C242.255 34.5836 242.267 35.2177 242.292 35.4169C242.416 36.2643 242.752 36.6878 243.299 36.6878C243.593 36.6807 243.887 36.6496 244.176 36.5946C244.429 36.5443 244.684 36.5134 244.941 36.501C245.255 36.497 245.557 36.6177 245.781 36.8367C246.011 37.0469 246.14 37.346 246.135 37.6579C246.14 38.0217 245.974 38.3668 245.688 38.5908C245.383 38.8416 244.999 38.9741 244.605 38.9637C244.031 38.9449 243.458 38.8946 242.889 38.8131C242.147 38.7172 241.398 38.6673 240.65 38.6639C240.114 38.6582 239.579 38.683 239.045 38.738C237.801 38.8876 237.142 38.962 237.067 38.962C236.072 38.962 235.574 38.5268 235.574 37.6556C235.574 36.8843 236.006 36.4987 236.869 36.4987C237.098 36.5013 237.328 36.5265 237.553 36.5731C237.853 36.6459 238.157 36.6968 238.464 36.725C239.073 36.725 239.402 36.0409 239.453 34.6724V27.6549C239.486 26.7431 239.424 25.8303 239.267 24.9316C239.08 24.0403 238.562 23.2536 237.818 22.7295C237.001 22.1581 236.026 21.8576 235.03 21.8714C233.047 21.8714 231.622 22.5803 230.754 23.9981C230.16 24.9685 229.862 26.6231 229.862 28.9617V33.925C229.822 34.6785 229.898 35.4336 230.086 36.1643C230.189 36.5288 230.528 36.7753 230.907 36.7612C231.184 36.7492 231.46 36.7052 231.728 36.6301C232.008 36.5533 232.296 36.5094 232.586 36.4997C233.358 36.4997 233.743 36.9165 233.743 37.7495C233.743 38.5579 233.246 38.9624 232.25 38.9624C232.051 38.9624 231.405 38.8879 230.31 38.7387C229.704 38.6602 229.093 38.623 228.481 38.6264C227.783 38.6388 227.086 38.6884 226.393 38.7759C225.299 38.9003 224.676 38.9624 224.527 38.9624C223.482 38.9624 222.96 38.5388 222.96 37.6914C222.915 37.3591 223.03 37.0251 223.27 36.7901C223.509 36.555 223.846 36.4463 224.177 36.4973C224.415 36.5141 224.65 36.5513 224.88 36.6097C225.211 36.6831 225.549 36.7206 225.888 36.7217C226.648 36.7217 227.041 36 227.068 34.5571V24.5946C227.069 24.0011 226.96 23.4126 226.745 22.8593C226.578 22.5471 226.242 22.3636 225.889 22.3928C225.626 22.4042 225.365 22.4421 225.11 22.5048C224.855 22.5679 224.594 22.6054 224.331 22.6171C223.419 22.6171 222.963 22.2127 222.963 21.4042C222.963 20.5709 223.523 20.1541 224.642 20.1541C224.768 20.1518 224.893 20.1642 225.015 20.1913L226.396 20.3406C226.746 20.3449 227.096 20.3137 227.44 20.247C228.087 20.185 228.423 20.1538 228.447 20.1538C229.168 20.1538 229.529 20.5334 229.529 21.2926ZM214.639 31.8717V29.2219C214.143 29.6894 213.554 30.0455 212.91 30.2661C211.845 30.5434 210.756 30.7182 209.658 30.7886C206.833 31.0609 205.42 32.1058 205.42 33.9233C205.384 34.7908 205.766 35.6231 206.446 36.1623C207.251 36.7475 208.233 37.0375 209.227 36.9835C210.894 36.9835 212.206 36.5295 213.164 35.6214C214.156 34.6312 214.69 33.2724 214.639 31.8717ZM218.818 39.2977C216.778 39.2977 215.522 38.4148 215.051 36.6479C213.78 38.515 211.789 39.4486 209.078 39.4486C207.062 39.4486 205.452 38.951 204.245 37.9557C203.048 36.9825 202.378 35.5034 202.435 33.9612C202.343 32.0541 203.381 30.2705 205.085 29.4083C205.628 29.0884 206.211 28.8443 206.82 28.682C207.305 28.57 208.281 28.4268 209.75 28.2528C211.839 28.0288 213.201 27.7179 213.835 27.3199C214.468 26.9218 214.786 26.1881 214.788 25.1181C214.83 24.1936 214.436 23.3032 213.725 22.7124C212.868 22.082 211.819 21.7724 210.758 21.8372C209.644 21.8355 208.554 22.1594 207.623 22.7701C207.25 23.0185 207.063 23.2801 207.063 23.5537C207.063 23.6533 207.175 23.7777 207.399 23.927C207.775 24.2361 207.972 24.7133 207.922 25.1979C207.934 25.6684 207.735 26.1197 207.381 26.4292C207.005 26.7582 206.518 26.9319 206.019 26.9145C205.407 26.9292 204.818 26.6854 204.396 26.2428C203.965 25.8062 203.729 25.2136 203.742 24.6006C203.742 23.2087 204.432 22.0142 205.813 21.0179C207.283 19.9942 209.042 19.47 210.833 19.5223C215.361 19.5223 217.625 21.6946 217.625 26.0389V33.5615C217.602 34.2697 217.627 34.9786 217.699 35.6838C217.849 36.5526 218.272 36.9872 218.97 36.9872C219.841 36.9872 220.276 36.1962 220.276 34.6151V32.7992C220.276 32.0085 220.656 31.6132 221.415 31.6132C222.224 31.6132 222.628 32.2104 222.628 33.4045V35.7193C222.576 38.1049 221.306 39.2977 218.818 39.2977ZM194.598 26.4976C194.598 25.5027 195.22 24.9303 196.464 24.7811C196.362 23.9478 195.904 23.1993 195.209 22.7288C194.391 22.2007 193.428 21.9401 192.455 21.9824C190.816 21.9411 189.261 22.7084 188.297 24.0349C187.248 25.4034 186.723 27.2189 186.723 29.4818C186.723 31.8207 187.216 33.6554 188.202 34.9863C189.146 36.2981 190.685 37.0483 192.3 36.9835C193.332 37.0047 194.34 36.6764 195.162 36.0517C195.989 35.4038 196.576 34.4974 196.827 33.4766C197.077 32.6058 197.226 32.1081 197.276 31.9837C197.494 31.5206 197.964 31.2289 198.475 31.2373C198.866 31.2238 199.245 31.3717 199.523 31.646C199.799 31.9223 199.948 32.2999 199.935 32.6899C199.895 33.4706 199.691 34.2348 199.338 34.932C198.989 35.7277 198.51 36.4594 197.92 37.0966C196.445 38.6673 194.364 39.5247 192.212 39.4486C189.863 39.5321 187.604 38.5432 186.072 36.7616C184.517 34.9702 183.74 32.6188 183.74 29.7085C183.74 26.6217 184.542 24.1526 186.145 22.3006C187.749 20.4485 189.883 19.522 192.546 19.5203C194.34 19.4553 196.1 20.0307 197.509 21.144C198.781 22.1302 199.514 23.6584 199.487 25.2676C199.519 26.0946 199.247 26.9044 198.722 27.5442C198.241 28.1277 197.519 28.458 196.763 28.4396C196.194 28.459 195.639 28.2585 195.214 27.8802C194.815 27.5328 194.589 27.0271 194.598 26.4976ZM173.228 19.519C174.725 19.4667 176.195 19.9274 177.394 20.8255V20.6762C177.394 19.7557 177.792 19.2953 178.589 19.2953C179.409 19.2953 179.82 19.6934 179.82 20.4894C179.82 20.6387 179.799 21.0119 179.758 21.6091C179.675 22.1027 179.633 22.6021 179.633 23.102C179.643 23.539 179.674 23.9749 179.727 24.4085C179.78 24.8421 179.811 25.278 179.82 25.715C179.82 26.6603 179.416 27.1331 178.607 27.1331C178.278 27.1743 177.948 27.0627 177.712 26.8296C177.475 26.5969 177.358 26.2686 177.393 25.9386V24.7073C177.369 23.9608 176.938 23.32 176.101 22.7855C175.218 22.2379 174.195 21.9589 173.157 21.983C172.124 21.9468 171.109 22.2553 170.271 22.8599C169.546 23.3502 169.111 24.1677 169.109 25.0433C169.109 26.6355 170.207 27.5808 172.403 27.8796L174.575 28.178C178.818 28.7504 180.939 30.5045 180.939 33.4404C180.986 35.1322 180.226 36.7458 178.892 37.7877C177.529 38.895 175.742 39.4486 173.534 39.4486C171.602 39.4895 169.712 38.8708 168.178 37.6948V38.4044C168.178 39.3004 167.754 39.748 166.907 39.748C165.987 39.748 165.527 39.2383 165.527 38.2183C165.634 37.5757 165.709 36.9279 165.75 36.2777C165.8 35.9316 165.824 35.5829 165.824 35.2334C165.828 34.6704 165.778 34.1081 165.675 33.5541C165.589 33.1487 165.539 32.7369 165.526 32.3231C165.526 31.4519 165.924 31.0163 166.72 31.0163C167.243 31.0163 167.572 31.1407 167.709 31.3895C167.904 32.0293 167.987 32.6983 167.952 33.3663C167.977 34.436 168.537 35.3069 169.631 35.9786C170.904 36.6955 172.351 37.0442 173.811 36.9862C174.896 37.0288 175.962 36.6995 176.834 36.0537C177.59 35.5101 178.036 34.6332 178.028 33.7023C178.028 32.0102 176.685 31.0267 173.997 30.7517C171.435 30.4794 169.482 29.9757 168.139 29.2403C166.796 28.5049 166.123 27.2173 166.123 25.3776C166.078 23.7341 166.808 22.1651 168.095 21.1417C169.409 20.0599 171.12 19.519 173.228 19.519ZM152.689 21.2175V22.2432C153.835 20.5049 155.794 19.4764 157.876 19.52C159.424 19.4513 160.941 19.9791 162.112 20.9941C163.185 21.9559 163.779 23.3418 163.735 24.7821C163.779 25.7398 163.489 26.6831 162.914 27.4507C162.399 28.1197 161.594 28.5013 160.75 28.4768C160.216 28.4909 159.697 28.3044 159.294 27.9543C158.913 27.6428 158.693 27.1757 158.697 26.6834C158.698 26.2834 158.859 25.9001 159.145 25.6201C159.411 25.3236 159.79 25.1543 160.189 25.1533C160.354 25.1727 160.517 25.2106 160.674 25.2656C160.811 25.0128 160.888 24.7318 160.898 24.4444C160.895 23.7167 160.54 23.035 159.945 22.6155C159.264 22.1027 158.427 21.8392 157.575 21.8694C155.635 21.8694 154.341 22.7402 153.694 24.4816C153.296 25.5513 153.097 27.1683 153.097 29.3332V31.7956C153.097 33.4629 153.109 34.3958 153.135 34.5946C153.26 36.0124 153.649 36.7217 154.302 36.7217C154.645 36.7196 154.986 36.6767 155.318 36.5939C155.553 36.5352 155.793 36.503 156.035 36.4983C156.838 36.4983 157.24 36.8903 157.24 37.6743C157.24 38.5321 156.73 38.961 155.71 38.961H155.561C154.993 38.9469 154.426 38.9033 153.863 38.8306C153.3 38.7575 152.733 38.7139 152.165 38.6995C151.17 38.6995 150.386 38.7243 149.813 38.7742L147.726 38.9607C146.706 38.9607 146.196 38.5254 146.196 37.6542C146.196 36.8829 146.673 36.4973 147.627 36.4973C147.816 36.4926 148.005 36.505 148.192 36.5345L148.757 36.6465C148.93 36.6861 149.107 36.7109 149.284 36.7213C149.912 36.7213 150.251 36.1489 150.3 35.0044V33.1014L150.188 24.6295C150.114 23.1617 149.74 22.4277 149.069 22.4277C148.793 22.4361 148.518 22.4673 148.247 22.5212C147.977 22.5752 147.702 22.6064 147.427 22.6148C146.606 22.6148 146.195 22.2228 146.195 21.4388C146.195 20.5807 146.73 20.1518 147.799 20.1518C148.175 20.1618 148.548 20.193 148.919 20.2453C149.291 20.2976 149.665 20.3288 150.039 20.3389C150.364 20.3275 150.688 20.2963 151.01 20.2453C151.24 20.1789 151.479 20.1471 151.719 20.1518C152.365 20.1531 152.689 20.5082 152.689 21.2175ZM130.745 26.8709C130.745 27.2193 131.019 27.3933 131.569 27.3933H140.519C141.044 27.3933 141.306 27.2193 141.306 26.8709C141.313 25.5667 140.769 24.32 139.808 23.4377C138.88 22.4961 137.61 21.971 136.288 21.982C134.87 21.9894 133.507 22.529 132.468 23.4934C131.319 24.5011 130.745 25.6271 130.745 26.8709ZM144.293 27.8115C144.343 28.3946 144.279 28.9815 144.106 29.5405C143.982 29.7524 143.62 29.858 143.021 29.858H131.121C130.9 29.8332 130.678 29.8792 130.485 29.9895C130.375 30.1045 130.32 30.2621 130.335 30.4211C130.279 32.1417 130.881 33.8187 132.019 35.11C133.068 36.328 134.604 37.0154 136.211 36.9862C137.281 36.9936 138.33 36.6817 139.222 36.0899C140.071 35.5718 140.703 34.763 140.999 33.8133L141.337 32.7312C141.467 32.1665 141.994 31.7839 142.571 31.8355C143.494 31.8355 143.956 32.3086 143.956 33.2536C143.956 34.8706 143.135 36.3082 141.493 37.5657C139.893 38.8074 137.92 39.4711 135.895 39.4486C133.284 39.4486 131.207 38.571 129.664 36.8159C128.12 35.0611 127.349 32.7033 127.349 29.744C127.349 26.7086 128.17 24.2459 129.811 22.3549C131.409 20.4834 133.771 19.4398 136.23 19.5187C138.403 19.4506 140.503 20.301 142.015 21.8613C143.546 23.4558 144.368 25.602 144.292 27.8115H144.293ZM109.4 14.7482L109.249 22.0189C110.043 21.2168 110.967 20.5545 111.981 20.0595C112.907 19.6793 113.9 19.4952 114.9 19.5187C117.046 19.5187 118.768 20.1283 120.066 21.3476C121.377 22.5977 122.086 24.3515 122.012 26.1616V32.3938C122.012 33.8619 122.025 34.6707 122.049 34.8196C122.149 36.0637 122.472 36.6854 123.02 36.6854C123.315 36.6636 123.605 36.5932 123.878 36.4769C124.075 36.4373 124.275 36.4195 124.476 36.4242C125.396 36.4242 125.856 36.8481 125.856 37.6951C125.856 38.5422 125.259 38.966 124.065 38.966C123.591 38.955 123.118 38.9174 122.647 38.854C121.805 38.7437 120.958 38.6813 120.11 38.6673C119.611 38.6592 119.112 38.684 118.617 38.7417C117.572 38.8909 116.925 38.9657 116.676 38.9657C116.267 38.9795 115.868 38.8396 115.556 38.5737C115.265 38.3292 115.1 37.9654 115.108 37.5848C115.106 37.2659 115.251 36.9631 115.5 36.7639C115.753 36.5429 116.078 36.4232 116.414 36.4279C116.745 36.4386 117.073 36.5013 117.385 36.6143C117.589 36.6858 117.803 36.7237 118.02 36.7263C118.767 36.7263 119.152 35.9179 119.177 34.3009C119.177 34.0021 119.202 33.4176 119.251 32.5471V28.9271C119.251 26.3897 119.002 24.6852 118.502 23.8146C117.778 22.5209 116.504 21.874 114.681 21.874C112.708 21.874 111.272 22.5457 110.373 23.8894C109.749 24.8099 109.424 26.2901 109.4 28.3302V31.0173C109.38 31.2711 109.33 31.5216 109.25 31.7637V32.4726C109.25 33.8904 109.263 34.7117 109.289 34.9357C109.417 36.1546 109.788 36.7642 110.401 36.7642C110.695 36.7478 110.985 36.6911 111.264 36.5962C111.53 36.504 111.808 36.4477 112.089 36.4286C112.908 36.4286 113.317 36.8256 113.317 37.62C113.317 38.5174 112.766 38.966 111.664 38.966C111.313 38.966 110.787 38.9288 110.085 38.854C109.274 38.7628 108.459 38.7129 107.643 38.7048C107.217 38.7048 106.629 38.742 105.877 38.8168C104.875 38.9164 104.236 38.966 103.961 38.966C102.933 38.966 102.42 38.5046 102.42 37.5818C102.42 36.8129 102.901 36.4286 103.864 36.4286C104.109 36.4148 104.355 36.4504 104.586 36.5325C104.884 36.616 105.19 36.6687 105.498 36.6898C105.903 36.6898 106.176 36.3102 106.315 35.5513C106.502 34.0088 106.584 32.4552 106.56 30.9016V24.2214C106.56 20.4894 106.485 18.1324 106.336 17.1499C106.187 16.1673 105.839 15.6757 105.292 15.6754C105.028 15.6878 104.765 15.725 104.508 15.7874C104.239 15.8521 103.964 15.8897 103.687 15.8997C102.84 15.8997 102.416 15.5017 102.416 14.7053C102.418 14.3535 102.584 14.0225 102.864 13.8099C103.168 13.5591 103.552 13.4266 103.946 13.4367C104.071 13.4367 104.494 13.4742 105.217 13.549C105.726 13.6003 106.236 13.6251 106.747 13.6235C107.06 13.6148 107.372 13.5836 107.68 13.5299C107.964 13.4793 108.25 13.4481 108.539 13.4364C109.111 13.4364 109.397 13.8488 109.397 14.6734L109.4 14.7482ZM99.0251 33.6634V31.2748C99.0499 30.2547 99.4979 29.7447 100.369 29.7447C101.24 29.7447 101.675 30.3164 101.673 31.4599C101.673 34.1718 101.327 36.0631 100.635 37.1334C99.6971 38.5767 98.1529 39.2984 96.0024 39.2984C94.0252 39.2984 92.6168 38.6639 91.7768 37.3953C91.1591 36.4745 90.8503 34.9072 90.8503 32.6926V23.7365C90.8503 23.2137 90.6085 22.9525 90.1243 22.9525H88.9033C88.5271 22.9642 88.1619 22.823 87.892 22.5608C87.6304 22.3133 87.4849 21.9676 87.4912 21.6075C87.4922 21.257 87.6334 20.921 87.8829 20.6749C88.1039 20.4204 88.4228 20.2722 88.7598 20.2661H90.2155C90.639 20.2661 90.851 20.0297 90.851 19.5572V15.7129C90.851 14.7676 91.3362 14.2951 92.3066 14.2951C93.2023 14.2951 93.65 14.7676 93.65 15.7129V19.7074C93.65 20.0807 93.874 20.2671 94.3217 20.2671H98.3896C99.3352 20.2671 99.8077 20.7027 99.8077 21.5732C99.8077 22.4941 99.2977 22.9542 98.2776 22.9542H94.1721C93.8237 22.9542 93.6497 23.2154 93.6497 23.7382V32.9186C93.6497 35.5312 94.5202 36.837 96.2609 36.837C98.0268 36.836 98.9483 35.7777 99.0251 33.6634ZM67.6753 18.8869C67.6753 17.0456 67.0412 16.1254 65.7723 16.1254C65.5087 16.116 65.2455 16.1412 64.9883 16.1995C64.6566 16.2673 64.3193 16.3048 63.9806 16.3118C63.6691 16.3165 63.3699 16.1874 63.1597 15.9574C62.9357 15.7213 62.815 15.4058 62.8237 15.0805C62.8237 14.2093 63.3445 13.774 64.386 13.774C64.4108 13.774 64.5966 13.7864 64.9433 13.8113C68.6625 14.0601 70.3982 14.1845 70.1507 14.1845H70.52L79.4834 13.9229C79.6568 13.9229 80.3017 13.8857 81.4173 13.8106C81.814 13.7861 82.1732 13.7737 82.4954 13.7737C83.7848 13.7737 84.4296 14.3458 84.4296 15.4903C84.4296 15.6895 84.3937 16.3239 84.3227 17.3936C84.2697 18.1897 84.2428 18.9238 84.2428 19.5954C84.2325 20.2058 84.2532 20.8161 84.3052 21.424C84.3743 21.9565 84.4155 22.4921 84.4296 23.0286C84.4296 23.9739 83.9816 24.4467 83.0859 24.4467C82.1903 24.4467 81.7426 23.7844 81.7426 22.4595V20.5079C81.7426 18.4084 81.3087 17.171 80.4412 16.7957C79.7963 16.5211 78.1351 16.3836 75.4571 16.3836C74.4145 16.3487 73.3706 16.387 72.3331 16.4976C71.2667 16.7756 70.7336 17.5338 70.7336 18.7719V22.5038C70.7336 23.4994 70.9542 24.0715 71.3958 24.2207C71.6859 24.2817 71.9827 24.3069 72.2788 24.2952H73.7881C75.3344 24.2952 76.1073 23.7603 76.1073 22.6906C76.1003 22.3033 76.0691 21.917 76.0137 21.5337C75.9551 21.1122 75.9239 20.688 75.9202 20.2628C75.9202 19.2672 76.3618 18.7699 77.2451 18.7699C78.1284 18.7699 78.57 19.3047 78.57 20.3744C78.57 20.5733 78.4895 21.3449 78.3285 22.6892C78.2004 23.6919 78.1314 24.7013 78.122 25.7123C78.122 26.2096 78.172 27.0929 78.2715 28.3621C78.2964 28.5613 78.3584 28.9966 78.458 29.6686C78.5234 30.1011 78.5606 30.5371 78.57 30.9747C78.623 31.3449 78.4986 31.7181 78.2343 31.9824C77.9701 32.2466 77.5965 32.371 77.2266 32.3184C76.3558 32.3184 75.9202 31.7956 75.9202 30.751C75.9296 30.3516 75.9608 29.9526 76.0137 29.5569C76.0667 29.1605 76.0979 28.7618 76.1073 28.3624C76.1073 27.2927 75.3981 26.7579 73.9803 26.7579H72.3006C71.5793 26.7579 71.1376 26.8823 70.976 27.1311C70.7668 27.6388 70.6836 28.1894 70.7336 28.7363V31.0515C70.7336 31.4492 70.746 31.9844 70.7708 32.6561C70.7956 33.477 70.808 34.0242 70.808 34.2982C70.8325 35.2935 71.0317 35.9152 71.4046 36.1643C71.6772 36.3384 72.324 36.4256 73.3451 36.4256H78.4235C79.8915 36.4256 80.8989 36.2079 81.4465 35.7727C81.9938 35.3371 82.2677 34.5222 82.2677 33.3284C82.2677 32.9548 82.2489 32.4015 82.2117 31.6672C82.1745 30.9331 82.1557 30.3795 82.1554 30.0059C82.1554 28.8866 82.597 28.3269 83.481 28.3269C84.4135 28.3269 84.88 28.899 84.88 30.0435C84.88 30.4911 84.8612 31.1756 84.824 32.096C84.7868 33.0162 84.7683 33.7006 84.7683 34.1483C84.7683 34.4967 84.7868 35.0128 84.824 35.6972C84.8612 36.3813 84.88 36.8974 84.88 37.2458C84.88 38.4151 84.3076 38.9999 83.1631 38.9999C82.8908 38.9999 82.4555 38.9714 81.8566 38.9144C81.5582 38.8842 81.0106 38.8688 80.2145 38.8688C80.3888 38.8688 79.4184 38.8406 77.3038 38.7836C75.1888 38.7266 73.3602 38.6991 71.8177 38.7011C69.4791 38.7011 67.1901 38.7883 64.9511 38.9624C64.8384 38.9637 64.7257 38.9761 64.6154 38.9999H64.3924C63.3475 38.9999 62.825 38.5519 62.825 37.6562C62.825 36.8601 63.2113 36.4618 63.9839 36.4618C64.1084 36.4618 64.4444 36.4869 64.9916 36.5362C65.2468 36.6086 65.5104 36.6462 65.7753 36.6485C67.0442 36.6485 67.6787 35.7156 67.6787 33.8495L67.6753 18.8869Z" fill="white"/>
<path d="M11.4562 26.1448C11.4562 24.8554 12.5021 23.8102 13.7914 23.8105H13.8018L17.691 23.8233C18.9821 23.8233 20.029 24.8698 20.029 26.1612V40.8676C20.4669 40.7379 21.0276 40.599 21.6443 40.4542C22.5242 40.2473 23.1463 39.4623 23.1463 38.5582V20.3173C23.1463 19.026 24.1928 17.9787 25.4842 17.9787H29.3852C30.6762 17.9787 31.7231 19.0256 31.7231 20.3167V37.247C31.7231 37.247 32.6993 36.8523 33.6493 36.4509C34.3709 36.1458 34.84 35.4386 34.8407 34.6552V14.4718C34.8407 13.1807 35.8873 12.1342 37.1783 12.1338H41.0749C42.3653 12.1352 43.4109 13.1814 43.4109 14.4718V31.0923C46.7894 28.644 50.2131 25.6991 52.93 22.1583C53.7308 21.1144 53.9551 19.7385 53.5272 18.4944C48.5368 4.13643 32.8518 -3.45722 18.4938 1.53323C4.13614 6.52401 -3.45751 22.209 1.53327 36.567C2.0963 38.187 2.80955 39.751 3.66399 41.2385C4.3427 42.4085 5.63743 43.0792 6.98481 42.9588C7.72187 42.8937 8.63968 42.8022 9.73086 42.6741C10.7131 42.5611 11.4548 41.7301 11.4558 40.7412V26.1448" fill="white"/>
<path d="M11.373 49.7301C23.6691 58.6751 40.8885 55.9586 49.8336 43.6625C53.2583 38.9551 55.1027 33.2826 55.1017 27.4612C55.1017 26.8257 55.0722 26.2003 55.0299 25.5766C44.9699 40.5801 26.3954 47.5943 11.373 49.7301Z" fill="white"/>
</svg>
