<svg width="290" height="50" viewBox="0 0 290 50" fill="none" xmlns="http://www.w3.org/2000/svg">
<path d="M42.7195 29.8934C41.8497 30.4264 40.8349 30.5233 40.0617 30.0872C39.0951 29.5058 38.5152 28.1977 38.5152 26.405V20.9302C38.5152 18.314 37.5004 16.4244 35.7607 15.9399C32.8129 15.0678 30.5899 18.7015 29.7684 20.0581L24.5492 28.4399V18.1201C24.5009 15.7461 23.7277 14.3411 22.278 13.905C21.3115 13.6143 19.8617 13.7597 18.4603 15.8915L6.81386 34.593C5.26746 31.6376 4.44593 28.343 4.44593 25C4.44593 13.7112 13.4828 4.55426 24.5492 4.55426C35.6157 4.55426 44.6526 13.7112 44.6526 25V25.0485V25.0969C44.7492 27.2771 44.0727 29.0213 42.7195 29.8934ZM49.0985 25V24.9515V24.9031C49.0502 11.1919 38.032 0 24.5492 0C11.0182 0 0 11.1919 0 25C0 38.7597 11.0182 50 24.5492 50C30.7832 50 36.6789 47.626 41.2215 43.3139C42.1396 42.4419 42.188 41.0368 41.3181 40.1163C40.4966 39.1957 39.0952 39.1473 38.177 39.9709C38.177 39.9709 38.177 39.9709 38.1286 40.0194C34.4559 43.5077 29.5267 45.4942 24.4526 45.4942C18.5086 45.4942 13.1928 42.8779 9.52008 38.7112L20.0067 21.8508V29.6512C20.0067 33.3818 21.4564 34.593 22.6646 34.9322C23.8727 35.2713 25.709 35.0291 27.6904 31.8798L33.4411 22.5291C33.6344 22.2384 33.7794 21.9477 33.9727 21.7539V26.5019C33.9727 29.9903 35.3741 32.8004 37.7904 34.157C39.965 35.4167 42.7196 35.2713 44.9908 33.8663C47.7937 32.0252 49.2918 28.8275 49.0985 25ZM83.3128 16.4729C83.8927 16.812 84.4243 17.6357 84.4243 18.3624C84.4243 19.5252 83.4578 20.4942 82.3463 20.4942C82.0563 20.4942 81.8147 20.3973 81.5731 20.3488C80.2683 19.3798 78.6252 18.75 76.8855 18.75C72.7779 18.75 69.975 22.093 69.975 26.2597C69.975 30.4264 72.8262 33.7209 76.8855 33.7209C78.9152 33.7209 80.7515 32.8973 82.1047 31.5891C82.4429 31.3469 82.8779 31.2015 83.3128 31.2015C84.4243 31.2015 85.2941 32.0736 85.2941 33.188C85.2941 33.9147 84.8592 34.5446 84.3276 34.8837C82.3463 36.5795 79.6884 37.6938 76.9338 37.6938C70.6516 37.6938 65.5291 32.5097 65.5291 26.1143C65.5291 19.719 70.6516 14.5349 76.9338 14.5349C79.2535 14.4864 81.4764 15.2132 83.3128 16.4729ZM94.8142 21.3178C99.1152 21.3178 102.691 24.9516 102.691 29.4574C102.691 33.9147 99.0668 37.7422 94.8142 37.7422C90.32 37.7422 86.5989 33.9632 86.5989 29.4574C86.5989 24.9516 90.32 21.3178 94.8142 21.3178ZM94.7659 33.7209C96.6506 33.7209 98.2453 31.9283 98.2453 29.5058C98.2453 27.0833 96.6506 25.5329 94.7659 25.5329C92.7362 25.5329 91.0448 27.0349 91.0448 29.5058C91.0448 31.8798 92.7362 33.7209 94.7659 33.7209ZM105.397 35.2229V23.7888C105.397 22.5291 106.364 21.5116 107.62 21.5116C108.829 21.5116 109.843 22.5291 109.843 23.7888V35.2229C109.843 36.4826 108.829 37.5 107.62 37.5C106.412 37.5 105.397 36.4341 105.397 35.2229ZM105.059 17.1996C105.059 15.6977 106.219 14.5349 107.62 14.5349C109.07 14.5349 110.23 15.7461 110.23 17.1996C110.23 18.6531 109.07 19.8159 107.62 19.8159C106.171 19.7674 105.059 18.6046 105.059 17.1996ZM118.349 29.0213V35.2229C118.349 36.4826 117.334 37.5 116.126 37.5C114.918 37.5 113.903 36.4826 113.903 35.2229V23.2558C113.903 22.2868 114.676 21.5116 115.642 21.5116C116.609 21.5116 117.334 22.3353 117.334 23.2558C119.122 21.5601 120.717 21.3178 122.215 21.3178C126.661 21.3178 128.642 24.6609 128.642 28.4884V35.2229C128.642 36.4826 127.627 37.5 126.419 37.5C125.211 37.5 124.196 36.4826 124.196 35.2229V29.0213C124.196 27.0833 123.954 25.436 121.151 25.436C119.17 25.436 118.349 27.0833 118.349 29.0213ZM143.043 31.3954C142.511 31.3954 142.173 31.1531 141.883 30.814L136.712 25.1938V35.2229C136.712 36.4826 135.697 37.5 134.489 37.5C133.281 37.5 132.266 36.4826 132.266 35.2229V15.3585C132.411 15.0194 132.75 14.7771 133.088 14.7771C133.474 14.7771 133.813 15.1163 134.054 15.3585L142.318 24.6608C142.56 24.9515 142.85 25.0969 143.043 25.0969C143.188 25.0969 143.526 24.9515 143.768 24.6608L152.031 15.3585C152.273 15.1163 152.563 14.7771 152.998 14.7771C153.384 14.7771 153.723 15.0194 153.819 15.3585V35.2229C153.819 36.4826 152.853 37.5 151.596 37.5C150.388 37.5 149.373 36.4826 149.373 35.2229V25.1938L144.203 30.814C143.816 31.1531 143.478 31.3954 143.043 31.3954ZM164.403 33.7209C166.384 33.7209 168.075 31.9283 168.075 29.5058C168.075 27.0833 166.336 25.4845 164.403 25.4845C162.47 25.4845 160.875 27.1318 160.875 29.5058C160.875 31.8314 162.421 33.7209 164.403 33.7209ZM169.138 35.7558L169.042 35.2229C168.172 36.9186 165.417 37.6938 163.678 37.6938C159.522 37.6938 156.429 33.9147 156.429 29.4089C156.429 24.9516 159.57 21.2694 163.919 21.2694C164.644 21.2694 167.157 21.4632 169.09 23.7403L169.187 23.2074C169.187 22.2384 169.912 21.4632 170.878 21.4632C171.845 21.4632 172.618 22.2868 172.618 23.2074V35.7074C172.618 36.6764 171.845 37.4516 170.878 37.4516C169.863 37.5 169.138 36.6764 169.138 35.7558ZM184.844 25.436H184.361C181.558 25.5814 181.026 27.1802 181.026 29.0213V35.2229C181.026 36.4826 180.012 37.5 178.804 37.5C177.595 37.5 176.581 36.4826 176.581 35.2229V23.2558C176.581 22.2868 177.354 21.5116 178.32 21.5116C179.287 21.5116 180.012 22.3353 180.012 23.2558C181.655 21.7054 183.008 21.3663 184.361 21.3178H184.796C185.859 21.3178 186.826 22.2384 186.826 23.4012C186.874 24.4671 185.907 25.436 184.844 25.436ZM202 34.157C202.193 34.4961 202.338 34.8353 202.338 35.2229C202.338 36.3857 201.275 37.4516 200.115 37.4516C199.342 37.4516 198.665 36.8702 198.134 36.1919L193.011 30.2326V35.1744C193.011 36.4341 191.996 37.4516 190.788 37.4516C189.58 37.4516 188.565 36.4341 188.565 35.1744V17.0058C188.565 15.7461 189.532 14.7287 190.788 14.7287C192.045 14.7287 193.011 15.7461 193.011 17.0058V28.343L198.134 22.6744C198.665 22.093 199.293 21.4632 200.067 21.4632C201.178 21.4632 202.193 22.4806 202.193 23.6434C202.193 23.9826 202.096 24.3701 201.903 24.6608L197.844 29.1182L202 34.157ZM210.698 25.4845C209.49 25.4845 207.509 26.1143 207.509 28.0039H213.936C213.888 26.1143 211.858 25.4845 210.698 25.4845ZM216.497 30.8624H207.509C207.509 33.5271 210.07 33.9632 211.181 33.9632C212.003 33.9632 213.163 33.8178 214.081 33.3818C214.371 33.188 214.806 33.0426 215.241 33.0426C216.207 33.0426 217.029 33.8663 217.029 34.8837C217.029 35.562 216.594 36.1434 216.062 36.4826C214.709 37.5 212.921 37.7422 211.23 37.7422C206.736 37.7422 203.014 35.3198 203.014 29.6512C203.014 25.1938 205.286 21.3178 210.602 21.3178C214.903 21.3178 218.14 24.1279 218.237 29.1182C218.237 30.0388 217.464 30.8624 216.497 30.8624ZM228.869 37.6938H227.66C224.278 37.6938 222.296 36.1919 222.296 30.9109V25.436H221.136C220.073 25.436 219.155 24.4671 219.155 23.4012C219.155 22.2384 220.122 21.3178 221.136 21.3178H222.296V17.1027C222.296 15.843 223.263 14.8256 224.519 14.8256C225.727 14.8256 226.742 15.843 226.742 17.1027V21.3178H228.579C229.642 21.3178 230.56 22.2384 230.56 23.4012C230.56 24.4671 229.593 25.436 228.579 25.436H226.742V30.0388C226.742 33.0911 226.887 33.7209 228.24 33.7209H228.869C229.932 33.7209 230.85 34.593 230.85 35.7074C230.85 36.7733 229.932 37.6938 228.869 37.6938ZM250.373 16.4729C250.953 16.812 251.485 17.6357 251.485 18.3624C251.485 19.5252 250.518 20.4942 249.407 20.4942C249.117 20.4942 248.875 20.3973 248.634 20.3488C247.329 19.3798 245.686 18.75 243.946 18.75C239.838 18.75 237.036 22.093 237.036 26.2597C237.036 30.4264 239.887 33.7209 243.946 33.7209C245.976 33.7209 247.812 32.8973 249.165 31.5891C249.503 31.3469 249.938 31.2015 250.373 31.2015C251.485 31.2015 252.355 32.0736 252.355 33.188C252.355 33.9147 251.92 34.5446 251.388 34.8837C249.407 36.5795 246.749 37.6938 243.994 37.6938C237.712 37.6938 232.59 32.5097 232.59 26.1143C232.59 19.719 237.712 14.5349 243.994 14.5349C246.314 14.4864 248.585 15.2132 250.373 16.4729ZM261.633 33.7209C263.614 33.7209 265.306 31.9283 265.306 29.5058C265.306 27.0833 263.566 25.4845 261.633 25.4845C259.652 25.4845 258.105 27.1318 258.105 29.5058C258.105 31.8314 259.7 33.7209 261.633 33.7209ZM266.369 35.7558L266.272 35.2229C265.402 36.9186 262.648 37.6938 260.908 37.6938C256.752 37.6938 253.659 33.9147 253.659 29.4089C253.659 24.9516 256.801 21.2694 261.15 21.2694C261.875 21.2694 264.388 21.4632 266.321 23.7403L266.417 23.2074C266.417 22.2384 267.142 21.4632 268.109 21.4632C269.075 21.4632 269.848 22.2868 269.848 23.2074V35.7074C269.848 36.6764 269.075 37.4516 268.109 37.4516C267.094 37.5 266.369 36.6764 266.369 35.7558ZM281.978 33.7209C283.959 33.7209 285.506 31.8314 285.506 29.5058C285.506 27.0833 283.911 25.4845 281.978 25.4845C279.997 25.4845 278.305 27.0833 278.305 29.5058C278.305 31.9283 279.997 33.7209 281.978 33.7209ZM278.305 36.3857V42.0543C278.305 43.314 277.29 44.3314 276.082 44.3314C274.874 44.3314 273.859 43.314 273.859 42.0543V23.2558C273.859 22.2868 274.633 21.5116 275.599 21.5116C276.566 21.5116 277.29 22.3353 277.29 23.4496C278.934 21.7539 280.963 21.3178 282.51 21.3178C286.811 21.3178 290 24.9516 290 29.4574C290 33.9147 286.956 37.7422 282.751 37.7422C281.446 37.6938 279.513 37.3062 278.305 36.3857Z" fill="white"/>
</svg>
