<svg width="275" height="55" viewBox="0 0 275 55" fill="none" xmlns="http://www.w3.org/2000/svg">
<path d="M82.6826 16.3174H87.816V39.234H82.6826V29.5174H74.066V39.234H68.9326V16.3174H74.066V25.1174H82.6826V16.3174Z" fill="white"/>
<path d="M99.917 27.6816C99.917 28.7816 100.1 29.8816 100.284 30.7982C100.65 31.7149 101.017 32.4482 101.384 33.1816C101.934 33.9149 102.484 34.2816 103.217 34.6482C103.95 35.0149 104.867 35.1982 105.784 35.1982C106.7 35.1982 107.617 35.0149 108.35 34.6482C109.084 34.2816 109.817 33.7316 110.184 33.1816C110.734 32.4482 111.1 31.7149 111.284 30.7982C111.65 29.8816 111.65 28.9649 111.65 27.6816C111.65 26.5816 111.467 25.4816 111.284 24.5649C110.917 23.6482 110.55 22.9149 110.184 22.1816C109.634 21.4482 109.084 21.0816 108.35 20.7149C107.617 20.3482 106.7 20.1649 105.784 20.1649C104.867 20.1649 103.95 20.3482 103.217 20.7149C102.484 21.0816 101.75 21.6316 101.384 22.1816C100.834 22.9149 100.467 23.6482 100.284 24.5649C100.1 25.6649 99.917 26.5816 99.917 27.6816ZM117.334 27.6816C117.334 29.6982 116.967 31.3482 116.417 32.8149C115.867 34.2816 114.95 35.5649 114.034 36.4816C112.934 37.3982 111.834 38.3149 110.367 38.6816C108.9 39.2316 107.434 39.4149 105.784 39.4149C104.134 39.4149 102.667 39.2316 101.384 38.6816C99.917 38.1316 98.817 37.3982 97.717 36.4816C96.617 35.5649 95.8837 34.2816 95.3337 32.8149C94.7837 31.3482 94.417 29.6982 94.417 27.6816C94.417 25.6649 94.7837 24.0149 95.3337 22.5482C95.8837 21.0816 96.8003 19.7982 97.9003 18.8816C99.0003 17.7816 100.1 17.0482 101.567 16.6816C103.034 16.1316 104.317 15.9482 105.967 15.9482C107.617 15.9482 109.084 16.1316 110.367 16.6816C111.834 17.2316 112.934 17.9649 114.034 18.8816C115.134 19.9816 115.867 21.0816 116.417 22.5482C117.15 24.0149 117.334 25.8482 117.334 27.6816Z" fill="white"/>
<path d="M130.35 35.1997C131.083 35.1997 131.633 35.1997 132.183 35.0163C132.733 34.833 133.1 34.6497 133.283 34.4663C133.65 34.283 133.833 34.0997 133.833 33.733C134.016 33.3663 134.016 33.183 134.016 32.8163C134.016 32.083 133.65 31.533 132.916 30.983C132.183 30.433 131.083 29.883 129.25 29.333C128.516 29.1497 127.783 28.783 127.05 28.4163C126.316 28.0497 125.583 27.683 125.033 27.133C124.483 26.583 123.933 26.033 123.566 25.2997C123.2 24.5663 123.016 23.6497 123.016 22.5497C123.016 21.4497 123.2 20.533 123.566 19.6163C123.933 18.6997 124.483 17.9663 125.216 17.4163C125.95 16.8663 126.866 16.3163 127.783 16.133C128.883 15.7663 129.983 15.583 131.266 15.583C132.733 15.583 134.2 15.7663 135.3 16.133C136.4 16.4997 137.316 16.8663 138.05 17.233L136.583 21.2663C136.033 20.8997 135.3 20.7163 134.383 20.3497C133.833 20.3497 132.916 20.1663 131.816 20.1663C130.533 20.1663 129.616 20.3497 129.066 20.7163C128.516 21.083 128.333 21.633 128.333 22.3663C128.333 22.733 128.516 23.0997 128.7 23.4663C128.883 23.833 129.25 24.0163 129.616 24.1997C129.983 24.383 130.35 24.5663 130.9 24.7497C131.45 24.933 131.816 25.1163 132.55 25.2997C133.65 25.6663 134.75 26.2163 135.666 26.583C136.583 26.9497 137.316 27.4997 137.866 28.0497C138.416 28.5997 138.966 29.333 139.15 30.0663C139.516 30.7997 139.516 31.7163 139.516 32.8163C139.516 35.0163 138.783 36.6663 137.316 37.7663C135.85 38.8663 133.466 39.5997 130.533 39.5997C129.433 39.5997 128.516 39.5997 127.783 39.4163C127.05 39.233 126.316 39.233 125.583 39.0497C125.033 38.8663 124.483 38.683 123.933 38.4997C123.566 38.3163 123.016 38.133 122.833 37.9497L124.3 33.9163C125.033 34.283 125.766 34.6497 126.866 34.833C127.6 35.0163 128.883 35.1997 130.35 35.1997Z" fill="white"/>
<path d="M162.067 16.3174V20.7174H155.1V39.234H149.967V20.7174H143V16.3174H162.067Z" fill="white"/>
<path d="M167.933 39.234H173.066V16.3174H167.933V39.234Z" fill="white"/>
<path d="M196.166 39.2348C194.699 36.6681 193.049 34.1014 191.399 31.5348C189.749 28.9681 187.916 26.5848 185.899 24.3848V39.4181H180.766V16.3181H184.982C185.716 17.0514 186.449 17.9681 187.366 19.0681C188.282 20.1681 189.199 21.2681 190.116 22.3681C191.032 23.6514 191.949 24.7514 192.866 26.0348C193.782 27.3181 194.699 28.6014 195.432 29.7014V16.1348H200.566V39.0514H196.166V39.2348Z" fill="white"/>
<path d="M219.266 20.3482C216.883 20.3482 215.05 21.0816 214.133 22.3649C213.033 23.6482 212.483 25.4816 212.483 27.8649C212.483 28.9649 212.666 30.0649 212.85 30.9816C213.033 31.8982 213.583 32.6316 213.95 33.3649C214.5 34.0982 215.05 34.4649 215.966 34.8316C216.7 35.1982 217.616 35.3816 218.716 35.3816C219.266 35.3816 219.816 35.3816 220.183 35.3816C220.55 35.3816 220.916 35.3816 221.283 35.1982V27.3149H226.416V38.6816C225.866 38.8649 224.766 39.2316 223.483 39.4149C222.2 39.5982 220.366 39.7816 218.35 39.7816C216.7 39.7816 215.05 39.5982 213.583 39.0482C212.116 38.4982 211.016 37.7649 209.916 36.6649C209 35.5649 208.083 34.4649 207.533 32.9982C206.983 31.5316 206.8 29.8816 206.8 27.8649C206.8 26.0316 207.166 24.1982 207.716 22.7316C208.266 21.2649 209.183 19.9816 210.1 19.0649C211.2 17.9649 212.3 17.2316 213.766 16.6816C215.233 16.1316 216.7 15.9482 218.166 15.9482C219.266 15.9482 220.183 15.9482 221.1 16.1316C222.016 16.3149 222.75 16.4982 223.3 16.6816C223.85 16.8649 224.4 17.0482 224.766 17.2316C225.133 17.4149 225.5 17.5982 225.683 17.7816L224.216 21.8149C223.483 21.4482 222.75 21.0816 221.833 20.8982C221.466 20.3482 220.366 20.3482 219.266 20.3482Z" fill="white"/>
<path d="M233.75 39.234V16.3174H249.15V20.7174H238.883V25.1174H248.05V29.334H238.883V34.834H249.883V39.234H233.75Z" fill="white"/>
<path d="M263.268 20.3514C262.901 20.3514 262.534 20.3514 262.351 20.3514C261.984 20.3514 261.801 20.3514 261.434 20.3514V26.5848H262.901C264.918 26.5848 266.201 26.4014 267.118 25.8514C268.034 25.3014 268.401 24.5681 268.401 23.4681C268.401 22.3681 268.034 21.6348 267.118 21.0848C266.201 20.7181 264.918 20.3514 263.268 20.3514ZM262.901 16.1348C266.384 16.1348 268.951 16.6848 270.784 17.9681C272.618 19.2514 273.534 21.0848 273.534 23.6514C273.534 25.3014 273.168 26.5848 272.434 27.5014C271.701 28.4181 270.601 29.3348 269.318 29.8848C269.868 30.4348 270.234 31.1681 270.784 31.9014C271.334 32.6348 271.884 33.3681 272.251 34.2848C272.801 35.0181 273.168 35.9348 273.718 36.8514C274.268 37.7681 274.634 38.5014 275.001 39.4181H269.318C268.951 38.6848 268.401 37.9514 268.034 37.2181C267.668 36.4848 267.118 35.7514 266.751 35.0181C266.384 34.2848 265.834 33.5514 265.468 33.0014C265.101 32.2681 264.551 31.7181 264.184 31.1681H261.618V39.6014H256.484V16.6848C257.584 16.5014 258.684 16.3181 259.968 16.1348C260.884 16.1348 261.984 16.1348 262.901 16.1348Z" fill="white"/>
<path d="M0 25.6667V0L13.0167 6.96667V18.5167H30.25L43.45 25.6667H0ZM33.7333 16.5V0L47.1167 6.78333V24.2L33.7333 16.5ZM33.7333 47.85V36.3H16.3167L2.93333 28.9667L47.1167 29.3333V55L33.7333 47.85ZM0 47.85V30.9833L13.0167 38.5V54.45L0 47.85Z" fill="white"/>
</svg>
