<svg width="274" height="40" viewBox="0 0 274 40" fill="none" xmlns="http://www.w3.org/2000/svg">
<path fill-rule="evenodd" clip-rule="evenodd" d="M1.37445 0V6.09691L15.9295 4.5815H21.2863V14.4493L12.2643 17.1982L0 20.1586L1.8326 26.1145L13.5683 21.6035L21.2863 19.2423V35.4185H15.9295L1.37445 33.9031V40H45.7797V33.9031L31.2599 35.4185H25.8678V19.2423L33.5859 21.6035L45.3568 26.1145L47.1542 20.1586L34.9604 17.1982L25.8678 14.4493V4.5815H31.2599L45.7797 6.09691V0H1.37445Z" fill="white"/>
<path fill-rule="evenodd" clip-rule="evenodd" d="M264.449 21.6758L260.438 10.9527H259.456L255.445 21.6758H264.449ZM273.494 34.5271H269.197L265.84 25.5639H254.012L250.656 34.5271H246.359L257.491 4.85449H262.362L273.494 34.5271Z" fill="white"/>
<path fill-rule="evenodd" clip-rule="evenodd" d="M227.491 19.6294C230.561 19.6294 234.244 18.6881 234.244 14.2269C234.244 9.47932 230.029 8.78354 227.491 8.78354H218.446V19.6703H227.491V19.6294ZM230.888 23.1901L238.051 34.4861H233.139L226.264 23.5994H218.446V34.4861H214.395V4.85449H227.491C234.981 4.85449 238.296 9.56118 238.296 14.2269C238.296 20.8981 232.812 22.7399 230.888 23.1901Z" fill="white"/>
<path fill-rule="evenodd" clip-rule="evenodd" d="M200.07 23.231C200.07 23.5584 199.988 31.0073 192.212 31.0073C184.967 31.0073 184.354 25.0318 184.354 23.231V4.85449H180.261V23.231C180.261 28.5926 183.371 34.8545 192.212 34.8545C201.011 34.8545 204.163 28.5926 204.163 23.231V4.85449H200.07V23.231Z" fill="white"/>
<path fill-rule="evenodd" clip-rule="evenodd" d="M172.157 4.85449V8.78354H152.307V16.5598H169.947V20.4479H152.307V34.4861H148.255V4.85449H172.157Z" fill="white"/>
<path fill-rule="evenodd" clip-rule="evenodd" d="M131.557 4.85449V28.3879H130.657L116.291 4.85449H111.011V34.4861H115.063V11.6894H115.963L129.674 34.4861H135.609V4.85449H131.557Z" fill="white"/>
<path fill-rule="evenodd" clip-rule="evenodd" d="M77.9824 4.85449V8.49705H87.0274V30.8027H77.9824V34.4452H100.124V30.8027H91.0793V8.49705H100.124V4.85449H77.9824Z" fill="white"/>
</svg>
