<svg width="270" height="47" viewBox="0 0 270 47" fill="none" xmlns="http://www.w3.org/2000/svg">
<path d="M237.466 23.1943C236.058 22.2661 234.508 21.6062 233.041 20.7812C232.089 20.245 231.075 19.7705 230.249 19.0899C228.842 17.9349 229.131 15.6663 230.6 14.6762C232.71 13.2737 236.203 14.0573 236.576 16.9243C236.576 16.9861 236.638 17.0275 236.7 17.0275H239.885C239.968 17.0275 240.03 16.9656 240.009 16.8831C239.844 14.903 239.078 13.2531 237.672 12.2012C236.327 11.1905 234.798 10.6543 233.163 10.6543C224.748 10.6543 223.982 19.5437 228.511 22.3487C229.028 22.6787 233.474 24.9061 235.046 25.8755C236.617 26.8449 237.114 28.6187 236.431 30.0211C235.81 31.2999 234.198 32.1868 232.585 32.0837C230.827 31.9805 229.462 31.0319 228.987 29.5468C228.904 29.2787 228.862 28.763 228.862 28.5362C228.862 28.4743 228.8 28.4124 228.738 28.4124H225.286C225.224 28.4124 225.162 28.4743 225.162 28.5362C225.162 31.0319 225.782 32.4136 227.478 33.6719C229.069 34.868 230.806 35.3631 232.606 35.3631C237.321 35.3631 239.761 32.7024 240.256 29.9387C240.69 27.2367 239.885 24.803 237.466 23.1943Z" fill="white"/>
<path d="M87.526 11.1084H85.9959H84.3209C84.2588 11.1084 84.2174 11.1496 84.1967 11.1909L81.364 20.5134C81.3226 20.6372 81.1572 20.6372 81.1158 20.5134L78.2829 11.1909C78.2622 11.129 78.2208 11.1084 78.1587 11.1084H76.4839H74.9537H72.8859C72.8238 11.1084 72.7617 11.1703 72.7617 11.2321V35.0335C72.7617 35.0952 72.8238 35.1571 72.8859 35.1571H76.3391C76.4012 35.1571 76.4632 35.0952 76.4632 35.0335V16.9452C76.4632 16.8009 76.67 16.7803 76.7114 16.904L79.5649 26.2884L79.7716 26.9484C79.7923 27.0103 79.8337 27.031 79.8958 27.031H82.5426C82.6046 27.031 82.6459 26.9896 82.6666 26.9484L82.8734 26.2884L85.727 16.904C85.7684 16.7596 85.9752 16.8009 85.9752 16.9452V35.0335C85.9752 35.0952 86.0372 35.1571 86.0992 35.1571H89.5525C89.6145 35.1571 89.6765 35.0952 89.6765 35.0335V11.2321C89.6765 11.1703 89.6145 11.1084 89.5525 11.1084H87.526Z" fill="white"/>
<path d="M184.59 11.1084C184.528 11.1084 184.486 11.1496 184.465 11.1909L181.634 20.5134C181.592 20.6372 181.427 20.6372 181.385 20.5134L178.552 11.1909C178.532 11.129 178.49 11.1084 178.428 11.1084H173.175C173.113 11.1084 173.051 11.1703 173.051 11.2321V35.0335C173.051 35.0952 173.113 35.1571 173.175 35.1571H176.629C176.692 35.1571 176.754 35.0952 176.754 35.0335V16.9452C176.754 16.8009 176.961 16.7803 177.002 16.904L179.854 26.2884L180.061 26.9484C180.082 27.0103 180.123 27.031 180.185 27.031H182.832C182.894 27.031 182.936 26.9896 182.957 26.9484L183.163 26.2884L186.017 16.904C186.059 16.7596 186.266 16.8009 186.266 16.9452V35.0335C186.266 35.0952 186.328 35.1571 186.39 35.1571H189.842C189.904 35.1571 189.966 35.0952 189.966 35.0335V11.2321C189.966 11.1703 189.904 11.1084 189.842 11.1084H184.59Z" fill="white"/>
<path d="M140.049 11.1084H133.618H130.165H123.734C123.672 11.1084 123.61 11.1703 123.61 11.2321V14.2021C123.61 14.264 123.672 14.3259 123.734 14.3259H130.041V35.0335C130.041 35.0952 130.103 35.1571 130.165 35.1571H133.618C133.68 35.1571 133.742 35.0952 133.742 35.0335V14.3259H140.049C140.111 14.3259 140.173 14.264 140.173 14.2021V11.2321C140.173 11.1703 140.132 11.1084 140.049 11.1084Z" fill="white"/>
<path d="M160.417 35.1566H163.559C163.642 35.1566 163.704 35.0742 163.683 34.9917L157.191 11.1079C157.17 11.046 157.129 11.0254 157.067 11.0254H155.868H153.758H152.559C152.497 11.0254 152.456 11.0666 152.435 11.1079L145.942 34.9917C145.921 35.0742 145.983 35.1566 146.066 35.1566H149.209C149.271 35.1566 149.313 35.1154 149.333 35.0742L151.215 28.1235C151.236 28.0617 151.277 28.041 151.339 28.041H158.287C158.35 28.041 158.391 28.0822 158.412 28.1235L160.293 35.0742C160.314 35.1154 160.376 35.1566 160.417 35.1566ZM152.166 24.6379L154.689 15.336C154.73 15.2123 154.896 15.2123 154.937 15.336L157.46 24.6379C157.48 24.7204 157.418 24.8028 157.336 24.8028H152.29C152.207 24.8028 152.146 24.7204 152.166 24.6379Z" fill="white"/>
<path d="M214.016 35.1566H217.158C217.241 35.1566 217.303 35.0742 217.282 34.9917L210.79 11.1079C210.769 11.046 210.728 11.0254 210.666 11.0254H209.467H207.358H206.158C206.096 11.0254 206.054 11.0666 206.034 11.1079L199.541 34.9917C199.52 35.0742 199.583 35.1566 199.665 35.1566H202.809C202.871 35.1566 202.912 35.1154 202.933 35.0742L204.814 28.1235C204.835 28.0617 204.877 28.041 204.939 28.041H211.886C211.949 28.041 211.99 28.0822 212.011 28.1235L213.892 35.0742C213.913 35.1154 213.954 35.1566 214.016 35.1566ZM205.765 24.6379L208.288 15.336C208.329 15.2123 208.494 15.2123 208.536 15.336L211.059 24.6379C211.079 24.7204 211.017 24.8028 210.935 24.8028H205.889C205.806 24.8028 205.744 24.7204 205.765 24.6379Z" fill="white"/>
<path d="M103.697 31.6302V24.2464C103.697 24.1846 103.759 24.1227 103.821 24.1227H113.023C113.085 24.1227 113.147 24.0608 113.147 23.9988V21.0289C113.147 20.9671 113.085 20.9052 113.023 20.9052H103.821C103.759 20.9052 103.697 20.8433 103.697 20.7814V14.4702C103.697 14.4083 103.759 14.3464 103.821 14.3464H114.284C114.346 14.3464 114.408 14.2845 114.408 14.2227V11.2527C114.408 11.1908 114.346 11.1289 114.284 11.1289H103.697H100.12C100.058 11.1289 99.9956 11.1908 99.9956 11.2527V14.3464V20.9257V24.1434V31.7745V35.0332C99.9956 35.0952 100.058 35.1571 100.12 35.1571H103.697H114.718C114.781 35.1571 114.843 35.0952 114.843 35.0332V31.8984C114.843 31.8364 114.781 31.7745 114.718 31.7745H103.8C103.738 31.754 103.697 31.7126 103.697 31.6302Z" fill="white"/>
<path d="M269.019 34.9508L257.067 22.6376C257.026 22.5964 257.026 22.5139 257.067 22.4727L267.821 11.3352C267.903 11.2527 267.841 11.1289 267.738 11.1289H263.334C263.292 11.1289 263.272 11.1495 263.251 11.1702L254.132 20.6165C254.049 20.6989 253.925 20.637 253.925 20.5338V11.2527C253.925 11.1908 253.863 11.1289 253.801 11.1289H250.347C250.285 11.1289 250.223 11.1908 250.223 11.2527V35.0539C250.223 35.1158 250.285 35.1778 250.347 35.1778H253.801C253.863 35.1778 253.925 35.1158 253.925 35.0539V24.5765C253.925 24.4733 254.07 24.4114 254.132 24.4939L264.47 35.1364C264.491 35.1571 264.532 35.1778 264.553 35.1778H268.957C269.04 35.1571 269.102 35.0127 269.019 34.9508Z" fill="white"/>
<path d="M47.2439 1L28.2388 15.0624L31.7729 6.77499L47.2439 1Z" fill="#E17726" stroke="#E17726" stroke-width="0.25" stroke-linecap="round" stroke-linejoin="round"/>
<path d="M3.40625 1L22.2422 15.1937L18.8773 6.77497L3.40625 1Z" fill="#E27625" stroke="#E27625" stroke-width="0.25" stroke-linecap="round" stroke-linejoin="round"/>
<path d="M40.4009 33.6055L35.3442 41.3305L46.172 44.3117L49.2738 33.7743L40.4009 33.6055Z" fill="#E27625" stroke="#E27625" stroke-width="0.25" stroke-linecap="round" stroke-linejoin="round"/>
<path d="M1.39355 33.7743L4.47646 44.3117L15.2855 41.3305L10.2475 33.6055L1.39355 33.7743Z" fill="#E27625" stroke="#E27625" stroke-width="0.25" stroke-linecap="round" stroke-linejoin="round"/>
<path d="M14.703 20.556L11.6953 25.0935L22.4103 25.581L22.0532 14.0498L14.703 20.556Z" fill="#E27625" stroke="#E27625" stroke-width="0.25" stroke-linecap="round" stroke-linejoin="round"/>
<path d="M35.946 20.5554L28.4832 13.918L28.2388 25.5804L38.9537 25.0929L35.946 20.5554Z" fill="#E27625" stroke="#E27625" stroke-width="0.25" stroke-linecap="round" stroke-linejoin="round"/>
<path d="M15.2861 41.3308L21.7715 38.1996L16.1885 33.8496L15.2861 41.3308Z" fill="#E27625" stroke="#E27625" stroke-width="0.25" stroke-linecap="round" stroke-linejoin="round"/>
<path d="M28.877 38.1996L35.3435 41.3308L34.4599 33.8496L28.877 38.1996Z" fill="#E27625" stroke="#E27625" stroke-width="0.25" stroke-linecap="round" stroke-linejoin="round"/>
<path d="M35.3435 41.3304L28.877 38.1992L29.4032 42.3992L29.3468 44.1804L35.3435 41.3304Z" fill="#D5BFB2" stroke="#D5BFB2" stroke-width="0.25" stroke-linecap="round" stroke-linejoin="round"/>
<path d="M15.2861 41.3304L21.3016 44.1804L21.264 42.3992L21.7715 38.1992L15.2861 41.3304Z" fill="#D5BFB2" stroke="#D5BFB2" stroke-width="0.25" stroke-linecap="round" stroke-linejoin="round"/>
<path d="M21.4144 31.0746L16.0381 29.4996L19.8353 27.7559L21.4144 31.0746Z" fill="#233447" stroke="#233447" stroke-width="0.25" stroke-linecap="round" stroke-linejoin="round"/>
<path d="M29.2354 31.0746L30.8145 27.7559L34.6305 29.4996L29.2354 31.0746Z" fill="#233447" stroke="#233447" stroke-width="0.25" stroke-linecap="round" stroke-linejoin="round"/>
<path d="M15.2859 41.3305L16.2259 33.6055L10.248 33.7743L15.2859 41.3305Z" fill="#CC6228" stroke="#CC6228" stroke-width="0.25" stroke-linecap="round" stroke-linejoin="round"/>
<path d="M34.4224 33.6055L35.3435 41.3305L40.4002 33.7743L34.4224 33.6055Z" fill="#CC6228" stroke="#CC6228" stroke-width="0.25" stroke-linecap="round" stroke-linejoin="round"/>
<path d="M38.9537 25.0938L28.2388 25.5812L29.235 31.0751L30.8142 27.7562L34.6302 29.5L38.9537 25.0938Z" fill="#CC6228" stroke="#CC6228" stroke-width="0.25" stroke-linecap="round" stroke-linejoin="round"/>
<path d="M16.0377 29.5L19.8349 27.7562L21.4141 31.0751L22.4103 25.5812L11.6953 25.0938L16.0377 29.5Z" fill="#CC6228" stroke="#CC6228" stroke-width="0.25" stroke-linecap="round" stroke-linejoin="round"/>
<path d="M11.6973 25.0938L16.1901 33.85L16.0396 29.5L11.6973 25.0938Z" fill="#E27525" stroke="#E27525" stroke-width="0.25" stroke-linecap="round" stroke-linejoin="round"/>
<path d="M34.6301 29.5L34.4609 33.85L38.9537 25.0938L34.6301 29.5Z" fill="#E27525" stroke="#E27525" stroke-width="0.25" stroke-linecap="round" stroke-linejoin="round"/>
<path d="M22.4114 25.5801L21.415 31.0739L22.6745 37.5613L22.9565 29.0114L22.4114 25.5801Z" fill="#E27525" stroke="#E27525" stroke-width="0.25" stroke-linecap="round" stroke-linejoin="round"/>
<path d="M28.2378 25.5801L27.7114 28.9927L27.9746 37.5613L29.2341 31.0739L28.2378 25.5801Z" fill="#E27525" stroke="#E27525" stroke-width="0.25" stroke-linecap="round" stroke-linejoin="round"/>
<path d="M29.2351 31.0741L27.9756 37.5614L28.8779 38.199L34.4611 33.849L34.6302 29.499L29.2351 31.0741Z" fill="#F5841F" stroke="#F5841F" stroke-width="0.25" stroke-linecap="round" stroke-linejoin="round"/>
<path d="M16.0381 29.499L16.1886 33.849L21.7716 38.199L22.6739 37.5614L21.4144 31.0741L16.0381 29.499Z" fill="#F5841F" stroke="#F5841F" stroke-width="0.25" stroke-linecap="round" stroke-linejoin="round"/>
<path d="M29.3473 44.1811L29.4036 42.3998L28.9149 41.9873H21.734L21.264 42.3998L21.3016 44.1811L15.2861 41.3311L17.3915 43.056L21.6587 45.9998H28.9712L33.2572 43.056L35.3438 41.3311L29.3473 44.1811Z" fill="#C0AC9D" stroke="#C0AC9D" stroke-width="0.25" stroke-linecap="round" stroke-linejoin="round"/>
<path d="M28.8784 38.1999L27.9761 37.5625H22.675L21.7727 38.1999L21.2651 42.4L21.7351 41.9874H28.916L29.4048 42.4L28.8784 38.1999Z" fill="#161616" stroke="#161616" stroke-width="0.25" stroke-linecap="round" stroke-linejoin="round"/>
<path d="M48.0511 15.9811L49.649 8.21872L47.2428 1L28.877 14.5938L35.945 20.5561L45.9269 23.4625L48.1263 20.8937L47.1677 20.1999L48.6902 18.8125L47.5248 17.9125L49.0475 16.7499L48.0511 15.9811Z" fill="#763E1A" stroke="#763E1A" stroke-width="0.25" stroke-linecap="round" stroke-linejoin="round"/>
<path d="M1 8.21872L2.61665 15.9811L1.58275 16.7499L3.1242 17.9125L1.95871 18.8125L3.48137 20.1999L2.52266 20.8937L4.72206 23.4625L14.704 20.5561L21.7721 14.5938L3.40618 1L1 8.21872Z" fill="#763E1A" stroke="#763E1A" stroke-width="0.25" stroke-linecap="round" stroke-linejoin="round"/>
<path d="M45.9279 23.4618L35.946 20.5557L38.9537 25.0932L34.4609 33.8493L40.4012 33.7744H49.2739L45.9279 23.4618Z" fill="#F5841F" stroke="#F5841F" stroke-width="0.25" stroke-linecap="round" stroke-linejoin="round"/>
<path d="M14.7027 20.5557L4.72084 23.4618L1.39355 33.7744H10.2475L16.1877 33.8493L11.695 25.0932L14.7027 20.5557Z" fill="#F5841F" stroke="#F5841F" stroke-width="0.25" stroke-linecap="round" stroke-linejoin="round"/>
<path d="M28.2385 25.5816L28.8776 14.594L31.7725 6.77539H18.877L21.7718 14.594L22.411 25.5816L22.6554 29.0315L22.6742 37.5628H27.9753L27.9941 29.0315L28.2385 25.5816Z" fill="#F5841F" stroke="#F5841F" stroke-width="0.25" stroke-linecap="round" stroke-linejoin="round"/>
</svg>
